<svg width="71" height="50" viewBox="0 0 71 50" fill="none" xmlns="http://www.w3.org/2000/svg">
<g clip-path="url(#clip0_1458_720)">
<path fill-rule="evenodd" clip-rule="evenodd" d="M45.205 26.4879C45.1502 26.3418 45.0772 26.214 44.9676 26.1227C44.858 26.0313 44.7119 25.9583 44.5657 25.94L38.5932 25.0633L35.9266 19.657C35.8535 19.5291 35.7622 19.4013 35.6343 19.3282C35.5065 19.2551 35.3604 19.2003 35.2142 19.2003C35.0681 19.2003 34.922 19.2369 34.7942 19.3282C34.6663 19.4013 34.575 19.5108 34.5019 19.657L31.8353 25.0633L25.8627 25.94C25.7166 25.9583 25.5705 26.0313 25.4609 26.1227C25.3513 26.214 25.26 26.3418 25.2235 26.4879C25.1687 26.6341 25.1687 26.7802 25.2052 26.9263C25.2417 27.0724 25.3148 27.2003 25.4244 27.3099L29.7531 31.529L28.7303 37.4833C28.712 37.6294 28.7303 37.7938 28.7851 37.9216C28.8399 38.0495 28.9312 38.1773 29.0591 38.2686C29.1869 38.36 29.333 38.4148 29.4609 38.4148C29.607 38.433 29.7531 38.3965 29.8992 38.3234L35.2325 35.5107L40.5658 38.3234L40.7484 38.3965L40.9311 38.4148C41.0224 38.4148 41.0955 38.3965 41.1685 38.3782C41.2416 38.36 41.3146 38.3234 41.3877 38.2686C41.5155 38.1773 41.6069 38.0495 41.6617 37.9216C41.7165 37.7938 41.7347 37.6294 41.7165 37.4833L40.6936 31.529L45.0224 27.3099C45.1319 27.2003 45.205 27.0724 45.2415 26.9263C45.2781 26.7802 45.2781 26.6341 45.2233 26.4879H45.205ZM59.5245 37.5563C60.6934 37.5563 61.8441 37.3737 62.94 37.0084C64.0359 36.6431 65.0769 36.1134 66.0267 35.4194C67.2139 34.5427 68.2002 33.465 68.9308 32.2596C69.6614 31.0358 70.1728 29.666 70.392 28.2231C70.4285 28.0039 70.3737 27.7847 70.2458 27.6386C70.118 27.4742 69.9353 27.3464 69.7162 27.3281C68.0541 27.0724 66.4285 27.2003 64.9308 27.6569C63.3601 28.1318 61.9354 28.9354 60.7117 30.013L60.0359 30.6158L60.1272 29.7208C60.182 29.1181 60.2368 28.5153 60.2551 27.9126C60.2733 27.3099 60.2916 26.7071 60.2733 26.1044V25.8304L60.5291 25.7574C61.8258 25.3921 63.0313 24.7893 64.1089 23.9857C65.1683 23.2003 66.0815 22.1958 66.8121 21.0451C67.5975 19.8031 68.1271 18.4515 68.3646 17.0451C68.602 15.6387 68.5838 14.1776 68.255 12.7529C68.2002 12.5337 68.0724 12.3694 67.908 12.2598C67.7436 12.1502 67.5244 12.1137 67.3052 12.1502C65.8623 12.479 64.5473 13.0634 63.3783 13.8853C62.2094 14.7072 61.2048 15.7666 60.4195 17.0086C60.2733 17.2278 60.1455 17.4652 60.0176 17.7026C59.8898 17.9401 59.7619 18.1775 59.6523 18.4332L59.2688 19.2734L58.9948 18.3967C58.8487 17.9401 58.7026 17.5017 58.5382 17.0634C58.3738 16.625 58.2094 16.1867 58.0268 15.7666L57.9172 15.5292L58.1181 15.3648C60.3829 13.5566 61.7528 10.9813 62.1181 8.29635C62.4834 5.61144 61.8806 2.78042 60.182 0.406017C60.1272 0.314693 60.0359 0.241635 59.9628 0.186841C59.8715 0.132047 59.7802 0.0955175 59.6706 0.0772529C59.561 0.0589882 59.4697 0.0589882 59.3601 0.0772529C59.2505 0.0955175 59.1592 0.150311 59.0679 0.205105C57.8624 1.06354 56.8761 2.12289 56.109 3.32836C55.3602 4.53383 54.8305 5.90368 54.593 7.34659L54.5017 8.05891L54.4469 8.77123L54.4104 9.6662L53.8259 8.97214C53.552 8.66164 53.2962 8.35114 53.0223 8.05891C52.7483 7.74841 52.4561 7.45617 52.1821 7.16394C52.0177 6.99956 51.8168 6.9265 51.6159 6.9265C51.415 6.9265 51.2141 6.99956 51.0497 7.16394C50.8853 7.32832 50.8123 7.52923 50.8123 7.73014C50.8123 7.93105 50.8853 8.13197 51.0497 8.29635C51.4698 8.71643 51.8716 9.15479 52.2552 9.59314C52.6387 10.0498 53.0223 10.4881 53.3693 10.9447L54.246 12.0771L52.9492 11.4744C51.6342 10.8534 50.2278 10.5064 48.8031 10.4333C47.3785 10.3603 45.9539 10.5612 44.5657 11.0543C44.3648 11.1274 44.2004 11.2735 44.1091 11.4561C44.0178 11.6388 43.9995 11.858 44.0726 12.0589C44.858 14.2872 46.3009 16.0954 48.0908 17.3739C49.9356 18.6707 52.1638 19.4013 54.4652 19.4013C54.9218 19.4013 55.3784 19.3647 55.835 19.3099C56.2917 19.2551 56.73 19.1638 57.1866 19.0542L57.5154 18.9629L57.6067 19.2917C57.9537 20.4789 58.2277 21.7026 58.4104 22.9263C58.593 24.1501 58.6843 25.3921 58.6843 26.6523V28.1135L58.0085 26.8167C57.3327 25.5017 56.383 24.3145 55.214 23.3464C54.1182 22.4332 52.8031 21.7209 51.3602 21.2825L51.3054 21.2643C51.0862 21.2095 50.867 21.2277 50.7027 21.3373C50.52 21.4286 50.3922 21.593 50.3191 21.8122C49.899 23.2186 49.7894 24.6797 49.9356 26.0861C50.0817 27.5108 50.52 28.8989 51.2323 30.1774C51.8716 31.3281 52.6752 32.3509 53.6433 33.1728C54.6113 34.013 55.7072 34.6888 56.9309 35.1454L57.2414 35.2732L57.1318 35.602C56.4926 37.3919 55.6524 39.1088 54.6296 40.7344C53.625 42.3234 52.4378 43.8211 51.0497 45.191C50.4287 45.8119 49.7712 46.3964 49.0771 46.9626C48.4013 47.5106 47.689 48.0402 46.9401 48.5334C46.7575 48.6612 46.6479 48.8439 46.5931 49.0448C46.5566 49.2457 46.5931 49.4649 46.7027 49.6475C46.7758 49.7571 46.8854 49.8484 46.9767 49.9032C47.0863 49.958 47.2324 49.9946 47.3602 49.9946C47.4333 49.9946 47.5246 49.9763 47.5977 49.958C47.6707 49.9398 47.7438 49.9032 47.7986 49.8667C48.5292 49.3736 49.2598 48.8621 49.9356 48.2959C50.6296 47.7297 51.3054 47.127 51.9447 46.506L52.1456 46.3051L52.383 46.4695C53.3328 47.127 54.3373 47.6384 55.3967 47.9672C56.4743 48.3142 57.6067 48.4786 58.7208 48.4786C60.3464 48.4786 61.972 48.1133 63.4514 47.4192C64.876 46.7434 66.1911 45.7572 67.2504 44.4421C67.3235 44.369 67.36 44.2777 67.3966 44.1681C67.4331 44.0768 67.4331 43.9672 67.4331 43.8576C67.4148 43.748 67.3966 43.6567 67.3418 43.5654C67.287 43.4741 67.2322 43.401 67.1409 43.328C66.0084 42.3965 64.7117 41.7207 63.3418 41.3006C61.972 40.8805 60.5291 40.7344 59.0679 40.8805C58.6843 40.917 58.3008 40.9718 57.9172 41.0631C57.5336 41.1362 57.1501 41.2458 56.7848 41.3554L55.9081 41.6293L56.383 40.844C56.6752 40.3326 56.9674 39.8211 57.2414 39.2915C57.4971 38.7801 57.7528 38.2321 57.9903 37.7024L58.0999 37.465L58.9218 37.5381L59.4697 37.5563H59.5245ZM66.9217 14.3419C67.013 15.3648 66.9217 16.3876 66.6842 17.3739C66.4468 18.3602 66.045 19.3099 65.4788 20.1866C64.9308 21.0633 64.2368 21.8305 63.4514 22.4697C62.666 23.109 61.771 23.6204 60.803 23.9674L60.3647 24.1318L60.3281 23.6752C60.1455 21.5748 60.6934 19.5291 61.771 17.8488C62.8487 16.1501 64.456 14.7986 66.4285 14.068L66.8669 13.9036L66.9034 14.3602L66.9217 14.3419ZM68.529 29.2276C67.9262 31.255 66.6842 32.9536 65.0769 34.1408C63.4514 35.328 61.4605 36.0038 59.3601 35.9856H58.9035L59.0313 35.5472C59.6341 33.5198 60.8761 31.8212 62.4834 30.634C64.1089 29.4468 66.0998 28.771 68.2002 28.8076H68.6568L68.529 29.2459V29.2276ZM46.3374 12.1867C47.342 11.9858 48.3648 11.931 49.3693 12.0589C50.3739 12.1867 51.3602 12.4607 52.2917 12.9173C53.2232 13.3557 54.0816 13.9584 54.7939 14.6524C55.5245 15.3648 56.1273 16.1867 56.6021 17.0999L56.8031 17.5017L56.3464 17.5931C54.2825 18.0131 52.2004 17.7392 50.3739 16.8625C48.5657 16.004 47.0132 14.5611 46.0634 12.6799L45.8443 12.278L46.3009 12.1867H46.3374ZM57.1318 13.52C56.6569 12.6068 56.3282 11.6388 56.1638 10.6342C55.9994 9.62967 56.0177 8.60685 56.1821 7.58403C56.3464 6.56121 56.6935 5.59318 57.1684 4.69821C57.6432 3.80324 58.2642 2.98133 59.0131 2.28728L59.3418 1.97678L59.561 2.3786C60.5291 4.24159 60.8395 6.32377 60.4925 8.31461C60.1638 10.2872 59.1957 12.1685 57.6615 13.6114L57.3327 13.9219L57.1136 13.52H57.1318ZM59.2871 42.506C60.3281 42.3965 61.351 42.4695 62.3373 42.6887C63.3235 42.9079 64.2733 43.3097 65.15 43.8394L65.5336 44.0768L65.2048 44.3873C63.6706 45.8119 61.7345 46.6521 59.7254 46.853C57.7346 47.0539 55.6524 46.6156 53.8625 45.5197L53.4789 45.2823L53.8077 44.9718C54.5565 44.2777 55.4149 43.7115 56.3282 43.2914C57.2414 42.8713 58.246 42.6156 59.2688 42.506H59.2871ZM57.077 33.5016C56.1455 33.0815 55.2871 32.5153 54.5382 31.8395C53.7894 31.1637 53.1684 30.3418 52.657 29.4286C52.1638 28.5153 51.8168 27.5473 51.6342 26.561C51.4515 25.5564 51.4515 24.5336 51.5976 23.5291L51.6707 23.0725L52.0908 23.2551C54.0086 24.1135 55.5428 25.5747 56.5108 27.3281C57.4789 29.0815 57.8807 31.1637 57.5702 33.2459L57.4971 33.7025L57.077 33.5198V33.5016ZM15.9085 19.4013C18.2098 19.4013 20.4381 18.6707 22.2829 17.3739C24.0728 16.1136 25.5157 14.2872 26.3011 12.0589V12.0406C26.3741 11.8397 26.3559 11.6205 26.2646 11.4379C26.1732 11.2552 26.0271 11.1091 25.8079 11.036C24.4198 10.5429 22.9952 10.342 21.5705 10.415C20.1459 10.4881 18.7395 10.8351 17.4245 11.4561L16.1277 12.0589L16.9861 10.9265C17.3331 10.4698 17.6984 10.0132 18.1003 9.57487C18.4838 9.13652 18.8856 8.69817 19.3057 8.27808C19.4701 8.1137 19.5432 7.91279 19.5432 7.71188C19.5432 7.51097 19.4701 7.31006 19.3057 7.14567C19.1596 6.99956 18.9404 6.90823 18.7395 6.90823C18.5386 6.90823 18.3377 6.98129 18.1733 7.14567L17.3149 8.04064L16.5112 8.95388L15.9268 9.64793L15.8902 8.7347C15.8354 7.05435 15.3788 5.39227 14.5752 3.89457C13.8081 2.45166 12.6939 1.15487 11.2693 0.150311C11.0866 0.0224589 10.8675 -0.0140704 10.6665 0.0224589C10.4656 0.0589882 10.283 0.168576 10.1551 0.351223C9.2967 1.55669 8.71223 2.87175 8.38346 4.27812C8.07296 5.66624 8.01817 7.12741 8.25561 8.57032C8.47479 9.90364 8.94967 11.1822 9.60719 12.3146C10.283 13.447 11.1597 14.4698 12.2008 15.3282L12.4017 15.4926L12.2921 15.7301C12.1095 16.1501 11.9451 16.5885 11.7807 17.0269C11.6163 17.4652 11.4702 17.9036 11.3241 18.3602L11.0501 19.2369L10.6665 18.3967C10.557 18.1593 10.4474 17.9218 10.3013 17.6661C10.1734 17.4287 10.0455 17.1912 9.89943 16.9721C9.11405 15.7301 8.10949 14.6707 6.94055 13.8488C5.77162 13.0269 4.4383 12.4424 3.01365 12.1137C2.90407 12.0954 2.79448 12.0954 2.70315 12.1137C2.61183 12.1319 2.50224 12.1685 2.41092 12.2232C2.3196 12.278 2.24654 12.3511 2.19174 12.4424C2.13695 12.5337 2.08216 12.6251 2.06389 12.7347C1.42463 15.5839 1.9543 18.4332 3.34242 20.7711C4.73053 23.109 6.99535 24.9537 9.78984 25.7391L10.0455 25.8122V26.0861C10.0273 26.6889 10.0455 27.2916 10.0638 27.8761C10.0821 28.4788 10.1369 29.0815 10.1917 29.6843L10.283 30.5792L9.60719 29.9765C9.35149 29.7573 9.07752 29.5199 8.80355 29.319C7.61635 28.4423 6.30129 27.8395 4.91318 27.4925C3.52506 27.1455 2.08216 27.0907 0.620984 27.3099C0.401808 27.3464 0.219161 27.456 0.0913087 27.6204C-0.0365438 27.7847 -0.0913378 28.0039 -0.0548085 28.2231C0.164367 29.6843 0.657513 31.0541 1.40636 32.2596C2.13695 33.4833 3.12324 34.5609 4.31044 35.4194C5.26021 36.1134 6.30129 36.6614 7.39717 37.0084C8.49305 37.3737 9.64372 37.5563 10.8127 37.5563L11.3789 37.5381L12.2008 37.465L12.3104 37.7024C12.5478 38.2504 12.8035 38.7801 13.0592 39.3097C13.3332 39.8394 13.6072 40.3508 13.9177 40.8622L14.3925 41.6476L13.5158 41.3736C11.7624 40.8074 9.88116 40.6978 8.07296 41.0266C6.31956 41.3554 4.63921 42.1225 3.15977 43.328C2.99539 43.4741 2.8858 43.6567 2.86754 43.8576C2.84927 44.0585 2.90407 44.2777 3.05018 44.4421C3.98168 45.5745 5.11409 46.506 6.37435 47.1818C7.63461 47.8576 9.02273 48.2777 10.4839 48.4238C10.8492 48.4603 11.2145 48.4786 11.598 48.4786C12.7305 48.4786 13.8446 48.2959 14.9222 47.9672C15.9816 47.6202 17.0044 47.127 17.9359 46.4695L18.1733 46.3051L18.3742 46.506C19.0135 47.127 19.671 47.7297 20.3833 48.2959C21.0774 48.8621 21.7897 49.3736 22.5386 49.8667C22.6116 49.9032 22.6664 49.9398 22.7395 49.958C22.8125 49.9763 22.8856 49.9946 22.9769 49.9946C23.1048 49.9946 23.2326 49.958 23.3605 49.9032C23.4701 49.8484 23.5797 49.7571 23.6527 49.6475C23.7806 49.4649 23.8171 49.2457 23.7623 49.0448C23.7258 48.8439 23.5979 48.6612 23.4153 48.5334C22.6847 48.0585 21.9724 47.5288 21.2966 46.9626C20.6025 46.3964 19.945 45.8119 19.324 45.1727C17.9359 43.7846 16.7487 42.2869 15.7441 40.7161C14.703 39.0906 13.8811 37.3554 13.2419 35.5837L13.1323 35.255L13.4428 35.1271C16.0911 34.1043 18.1551 32.1317 19.3423 29.7208C20.5295 27.3281 20.84 24.5154 20.0363 21.7574C19.9815 21.5382 19.8354 21.3738 19.6528 21.2825C19.4701 21.1912 19.2509 21.1547 19.05 21.2095C17.6436 21.6295 16.3469 22.3053 15.2327 23.2003C14.1186 24.0953 13.1871 25.2094 12.4747 26.4879L11.6711 28.0404V26.5793C11.6711 25.3373 11.7624 24.0953 11.9451 22.8715C12.1277 21.6478 12.3834 20.4423 12.7487 19.2369L12.84 18.9081L13.1688 18.9994C13.6254 19.109 14.0638 19.2003 14.5204 19.2551C14.977 19.3099 15.4336 19.3465 15.8902 19.3465L15.9085 19.4013ZM9.57067 23.9857C7.59808 23.2551 5.97253 21.9035 4.91318 20.2049C3.83556 18.5063 3.30589 16.4606 3.47027 14.3785L3.5068 13.9219L3.94515 14.0862C4.91318 14.4333 5.80815 14.9447 6.59353 15.5839C7.37891 16.2232 8.0547 16.9903 8.6209 17.867C9.16884 18.7437 9.57067 19.6935 9.82637 20.6798C10.0638 21.6661 10.1551 22.6889 10.0638 23.7117L10.0273 24.1683L9.58893 24.004L9.57067 23.9857ZM5.315 34.1591C4.47483 33.5381 3.7625 32.8075 3.17804 31.9856C2.59357 31.1637 2.15521 30.2322 1.86298 29.2459L1.73513 28.8076H2.33786C4.42003 28.8076 6.39261 29.5016 7.98164 30.6888C9.57066 31.876 10.7944 33.5746 11.3789 35.5655L11.5067 36.0038H11.0501C10.0273 36.0221 9.00446 35.876 8.03643 35.5655C7.06841 35.255 6.15517 34.7984 5.315 34.1774V34.1591ZM10.6665 46.8713C9.62546 46.7617 8.63917 46.506 7.72593 46.0859C6.79444 45.6658 5.95426 45.0996 5.18715 44.4056L4.85838 44.0951L5.24194 43.8576C7.03188 42.7618 9.09578 42.3234 11.1049 42.5243C13.0957 42.7252 15.0501 43.5654 16.5843 44.99L16.9131 45.3005L16.5295 45.538C15.6528 46.0859 14.703 46.4695 13.7167 46.6887C12.7305 46.9078 11.7076 46.9809 10.6665 46.8713ZM13.8811 27.3099C14.3743 26.3966 15.0135 25.593 15.7624 24.8989C16.5112 24.2049 17.3697 23.6387 18.3012 23.2368L18.7213 23.0542L18.7943 23.5108C19.1048 25.593 18.703 27.6569 17.735 29.4286C16.7669 31.2002 15.251 32.6431 13.3149 33.5016L12.8948 33.6842L12.8218 33.2276C12.6757 32.223 12.6757 31.182 12.8583 30.1957C13.0409 29.2094 13.3697 28.2231 13.8811 27.3099ZM18.082 12.9173C19.0135 12.479 19.9998 12.1867 21.0043 12.0589C22.0089 11.931 23.0317 11.9858 24.0363 12.1867L24.4929 12.278L24.292 12.6799C23.324 14.5611 21.7897 15.9858 19.9815 16.8625C18.1733 17.7209 16.0729 18.0131 14.009 17.5931L13.5524 17.5017L13.7533 17.0999C14.2282 16.1867 14.8309 15.3648 15.5615 14.6524C16.2921 13.9401 17.1322 13.3557 18.0637 12.9173H18.082ZM9.88116 8.31461C9.71678 7.29179 9.69852 6.26897 9.8629 5.26442C10.0273 4.25986 10.3378 3.29183 10.8309 2.3786L11.0501 1.97678L11.3789 2.28728C12.9131 3.73018 13.8811 5.61144 14.2099 7.58403C14.5387 9.55661 14.2464 11.657 13.2784 13.52L13.0592 13.9219L12.7305 13.6114C11.9816 12.9173 11.3606 12.0954 10.8675 11.2004C10.3926 10.3055 10.0638 9.33743 9.88116 8.31461ZM39.269 30.6888C39.1777 30.7801 39.1046 30.8897 39.0681 31.0176C39.0316 31.1454 39.0133 31.2733 39.0498 31.4011L39.8717 36.1682L35.5978 33.9217C35.4882 33.8669 35.3604 33.8303 35.2325 33.8303C35.1047 33.8303 34.9768 33.8669 34.8672 33.9217L30.5933 36.1682L31.4152 31.4011C31.4335 31.2733 31.4335 31.1454 31.3969 31.0176C31.3604 30.8897 31.2873 30.7801 31.196 30.6888L27.7257 27.3099L32.5111 26.6158C32.6389 26.5975 32.7668 26.5427 32.8581 26.4697C32.9677 26.3966 33.0407 26.287 33.0955 26.1774L35.2325 21.8487L37.3695 26.1774C37.4243 26.287 37.5156 26.3966 37.6069 26.4697C37.6982 26.5427 37.8261 26.5975 37.9539 26.6158L42.7393 27.3099L39.269 30.6888Z" fill="#F03033"/>
</g>
<defs>
<clipPath id="clip0_1458_720">
<rect width="70.4102" height="50" fill="white"/>
</clipPath>
</defs>
</svg>
