<svg width="44" height="50" viewBox="0 0 44 50" fill="none" xmlns="http://www.w3.org/2000/svg">
<path d="M43.3799 13.3129C43.3485 12.7631 43.3485 12.2133 43.3328 11.6635C43.317 10.4225 42.7982 9.27573 41.9649 8.42745C41.1315 7.57917 39.9838 7.02936 38.7102 6.96653C35.6128 6.79373 32.877 6.2125 30.377 5.19142C27.8771 4.17034 25.6444 2.69371 23.6004 0.745803L23.569 0.714385C23.0501 0.258827 22.3897 0.0231934 21.7294 0.0231934C21.069 0.0231934 20.4086 0.258827 19.8898 0.714385L19.8583 0.745803C17.8144 2.69371 15.5817 4.17034 13.0817 5.19142C10.5975 6.2125 7.84598 6.79373 4.74855 6.96653C3.47499 7.02936 2.32721 7.59488 1.49389 8.42745C0.660573 9.27573 0.141714 10.4225 0.125991 11.6635L0.0788224 13.36C0.0159304 16.3447 -0.0469615 19.6907 0.220329 23.1467C0.48762 26.5555 1.08509 30.0743 2.34293 33.4046C3.03474 35.2268 3.89951 36.9391 4.93723 38.4943C5.97494 40.0652 7.16989 41.5104 8.53779 42.8142C10.0944 44.2909 11.9025 45.6261 13.9308 46.8043C15.9748 47.9825 18.2389 49.0035 20.7231 49.8361L20.9275 49.8989L21.1319 49.9461L21.4464 49.9932L21.7451 50.0089L22.0438 49.9932L22.3583 49.9461L22.5784 49.8989L22.7828 49.8361C25.2671 48.9878 27.5312 47.9668 29.5594 46.7886C31.5877 45.6104 33.3958 44.2752 34.9367 42.7985C36.3046 41.4947 37.4995 40.0652 38.5373 38.4786C39.575 36.9077 40.4397 35.1954 41.1315 33.3732C42.3894 30.0272 42.9869 26.5084 43.2542 23.0839C43.5214 19.6279 43.4585 16.2819 43.3957 13.2972L43.3799 13.3129ZM25.9274 21.4816L19.4024 27.8594L17.2955 25.8015C17.1225 25.6287 16.8867 25.5502 16.6509 25.5502C16.415 25.5502 16.1949 25.6287 16.0219 25.8015C15.849 25.9743 15.7546 26.1942 15.7546 26.4299C15.7546 26.6498 15.849 26.8854 16.0219 27.0425L18.7577 29.713C18.8363 29.7916 18.9464 29.8544 19.0565 29.9015C19.1665 29.9486 19.2766 29.9644 19.4024 29.9644C19.5282 29.9644 19.6382 29.9486 19.7483 29.9015C19.8583 29.8544 19.9527 29.7916 20.0313 29.713L27.201 22.7226C27.3739 22.5498 27.4683 22.3298 27.4683 22.1099C27.4683 21.89 27.3739 21.6543 27.201 21.4973C27.028 21.3245 26.7922 21.2459 26.5721 21.2459C26.3362 21.2459 26.1161 21.3245 25.9431 21.4973L25.9274 21.4816ZM21.7137 12.8574C18.286 12.8574 15.1729 14.224 12.9245 16.4233C10.6761 18.6225 9.27677 21.6543 9.27677 25.0003C9.27677 28.3463 10.6761 31.3782 12.9245 33.5774C15.1729 35.7766 18.286 37.1433 21.7137 37.1433C25.1413 37.1433 28.2544 35.7766 30.5028 33.5774C32.7512 31.3782 34.1505 28.3463 34.1505 25.0003C34.1505 21.6543 32.7512 18.6225 30.5028 16.4233C28.2544 14.224 25.1413 12.8574 21.7137 12.8574ZM21.7137 35.3996C18.7735 35.3996 16.1163 34.2372 14.1823 32.3521C12.2484 30.467 11.0535 27.8751 11.0535 25.0003C11.0535 22.1413 12.2484 19.5336 14.1823 17.6486C16.1163 15.7635 18.7735 14.6011 21.7137 14.6011C24.6539 14.6011 27.311 15.7635 29.245 17.6486C31.1789 19.5336 32.3738 22.1256 32.3738 25.0003C32.3738 27.8594 31.1789 30.467 29.245 32.3364C27.311 34.2215 24.6539 35.3839 21.7137 35.3839V35.3996ZM39.4177 32.7762C38.0341 36.4521 35.9115 39.5468 33.0342 42.1073C30.1726 44.6522 26.5563 46.6629 22.1539 48.171L21.9652 48.2181C21.8709 48.2338 21.7923 48.2495 21.6979 48.2495C21.6193 48.2495 21.525 48.2338 21.4464 48.2181L21.2577 48.171C16.8395 46.6629 13.2232 44.6679 10.3617 42.123C7.48435 39.5625 5.37747 36.4678 3.97812 32.792C1.57251 26.4299 1.71401 19.5179 1.82407 13.4072C1.82407 13.1244 1.8398 12.8259 1.85552 12.5589L1.87124 11.7106C1.88697 10.9252 2.21715 10.1869 2.73601 9.65275C3.27059 9.11865 3.99385 8.77305 4.81144 8.72592C6.47808 8.63167 8.05038 8.42745 9.54406 8.11328C11.0377 7.7991 12.4371 7.35925 13.7735 6.80944C15.11 6.25963 16.3836 5.58414 17.5785 4.7987C18.7892 4.01325 19.937 3.08643 21.0533 2.03393L21.0847 2.00251C21.2577 1.86113 21.4778 1.78259 21.6979 1.78259C21.9181 1.78259 22.1225 1.86113 22.3111 2.00251L22.3426 2.03393C23.4589 3.08643 24.6067 4.01325 25.8174 4.7987C27.028 5.58414 28.2859 6.25963 29.6223 6.80944C30.9588 7.35925 32.3581 7.7991 33.8518 8.11328C35.3455 8.42745 36.9178 8.63167 38.5844 8.72592C39.402 8.77305 40.1253 9.11865 40.6599 9.65275C41.1787 10.1869 41.5089 10.9095 41.5246 11.7106L41.5718 13.3758C41.6347 16.4233 41.6976 19.6907 41.446 22.9582C41.1944 26.2728 40.6284 29.6031 39.4177 32.8077V32.7762Z" fill="#F03033"/>
</svg>
