<svg width="50" height="50" viewBox="0 0 50 50" fill="none" xmlns="http://www.w3.org/2000/svg">
<path d="M33.9719 15.3252C33.7756 15.3252 33.5957 15.4069 33.4649 15.5378C33.334 15.6686 33.2522 15.8485 33.2522 16.0448C33.2522 16.2411 33.334 16.421 33.4649 16.5518C33.5957 16.6827 33.7756 16.7644 33.9719 16.7644C34.1682 16.7644 34.3481 16.6827 34.4789 16.5518C34.6098 16.421 34.6915 16.2411 34.6915 16.0448C34.6915 15.8485 34.6098 15.6686 34.4789 15.5378C34.3481 15.4069 34.1682 15.3252 33.9719 15.3252ZM43.1475 44.1598C43.2784 44.2906 43.4747 44.3724 43.6546 44.3724C43.8345 44.3724 44.0144 44.307 44.1616 44.1598C44.3088 44.0126 44.3742 43.8327 44.3742 43.6528C44.3742 43.4728 44.3088 43.2929 44.1616 43.1457L35.264 34.2647C35.1332 34.1339 34.9369 34.0521 34.757 34.0521C34.5771 34.0521 34.3971 34.1175 34.2499 34.2647C34.1191 34.3956 34.0373 34.5919 34.0373 34.7718C34.0373 34.9517 34.1027 35.1316 34.2499 35.2788L43.1475 44.1434V44.1598ZM30.668 18.3182L18.3193 30.6665C18.1884 30.7974 18.1067 30.9937 18.1067 31.1736C18.1067 31.3535 18.1721 31.5334 18.3193 31.6806C18.4501 31.8114 18.6464 31.8932 18.8263 31.8932C19.0062 31.8932 19.1861 31.8278 19.3333 31.6806L31.6821 19.3322C31.8129 19.2014 31.8947 19.0051 31.8947 18.8252C31.8947 18.6453 31.8293 18.4654 31.6821 18.3182C31.5512 18.1874 31.3549 18.1056 31.175 18.1056C30.9951 18.1056 30.8152 18.171 30.668 18.3182ZM48.9866 6.06799C48.8721 6.03527 48.7413 6.05163 48.6268 6.08434C48.5123 6.11705 48.3978 6.18247 48.316 6.26425L44.1453 10.4676H41.9536L39.631 8.06335V5.85536L43.7527 1.68473C43.8345 1.60295 43.8999 1.48847 43.9326 1.37398C43.9653 1.25949 43.9653 1.145 43.9326 1.01416C43.8999 0.899671 43.8508 0.785183 43.7691 0.703405C43.6873 0.621628 43.5892 0.539851 43.4747 0.50714C42.984 0.343586 42.477 0.212743 41.9699 0.130965C41.4629 0.0491884 40.9395 0.00012207 40.4161 0.00012207C38.8459 0.00012207 37.3576 0.359941 36.0327 1.04687C34.7079 1.7338 33.5303 2.73148 32.6307 4.0072C31.7802 5.20115 31.2241 6.52594 30.9624 7.88344C30.7171 9.25729 30.7661 10.6802 31.1423 12.0868L31.1914 12.234C28.6726 14.7691 26.1374 17.2878 23.6022 19.8229C19.4642 15.685 15.3262 11.5471 11.2045 7.40913V4.90675C11.2045 4.77591 11.1718 4.66142 11.1063 4.56329C11.0409 4.46515 10.9591 4.36702 10.8446 4.3016L3.86066 0.11461C3.71346 0.0328329 3.56626 0.00012207 3.4027 0.0164775C3.2555 0.0328329 3.10829 0.0982546 2.9938 0.212743L0.196942 3.00952C0.0824505 3.12401 0.0170269 3.27121 0.000671007 3.41841C-0.0156849 3.56561 0.0170269 3.72916 0.0988064 3.87636L4.28592 10.8601C4.35134 10.9746 4.44948 11.0564 4.54761 11.1218C4.64575 11.1872 4.7766 11.2199 4.89109 11.2199H7.39354L19.7913 23.6337C17.2725 26.1525 14.7701 28.6712 12.2349 31.1899L12.0877 31.1409C10.6974 30.7647 9.25811 30.6993 7.88422 30.9609C6.51032 31.2063 5.18549 31.7787 4.00787 32.6292C2.73211 33.5451 1.7344 34.7063 1.0638 36.0311C0.376857 37.3559 0.0170269 38.8443 0.0170269 40.4144C0.0170269 40.9378 0.0660946 41.4611 0.147874 41.9681C0.229654 42.4752 0.360501 42.9822 0.52406 43.4728C0.556772 43.5873 0.638551 43.7018 0.720331 43.7672C0.80211 43.849 0.916602 43.8981 1.03109 43.9308C1.14558 43.9635 1.27643 43.9472 1.39092 43.9144C1.50541 43.8817 1.61991 43.8163 1.70168 43.7345L5.87244 39.5312H8.08049L10.4848 41.9354V44.1434L6.28134 48.3141C6.19956 48.3958 6.13413 48.5103 6.10142 48.6248C6.06871 48.7393 6.06871 48.8701 6.08507 48.9846C6.11778 49.0991 6.16685 49.2136 6.24863 49.2954C6.33041 49.3772 6.42854 49.4589 6.54303 49.4916C7.03371 49.6552 7.54074 49.786 8.04778 49.8678C8.55481 49.9496 9.0782 49.9987 9.60159 49.9987C11.1718 49.9987 12.6601 49.6388 13.985 48.9519C15.3098 48.265 16.4711 47.2673 17.387 46.0079C18.2375 44.814 18.7936 43.4892 19.0553 42.1153C19.3006 40.7415 19.2516 39.3186 18.8754 37.912L18.8263 37.7648C20.8708 35.7204 22.9153 33.6759 24.9598 31.6315L26.6608 33.4797L25.8594 34.2811C25.7285 34.4119 25.6467 34.6082 25.6467 34.7881C25.6467 34.968 25.7122 35.1479 25.8594 35.2951C25.9902 35.426 26.1865 35.5078 26.3664 35.5078C26.5463 35.5078 26.7262 35.4423 26.8734 35.2951L27.6258 34.5428C31.8293 39.1223 36.0491 43.8981 40.3507 48.3631C41.4629 49.4589 42.9022 50.015 44.3415 50.015C45.7808 50.015 47.2365 49.4589 48.3324 48.3631C49.4282 47.2673 49.9843 45.8117 49.9843 44.3724C49.9843 42.9331 49.4282 41.4775 48.3324 40.3817C43.8018 36.0965 39.0913 31.9096 34.4953 27.6735L35.2476 26.9212C35.3785 26.7903 35.4603 26.594 35.4603 26.4141C35.4603 26.2342 35.3948 26.0543 35.2476 25.9071C35.1168 25.7763 34.9205 25.6945 34.7406 25.6945C34.5607 25.6945 34.3808 25.7599 34.2336 25.9071L33.4321 26.7085L31.5676 25.0076C33.6284 22.9631 35.6893 20.9024 37.7337 18.8416L37.8809 18.8906C38.2898 19.0051 38.6987 19.0869 39.1076 19.136C39.5165 19.185 39.9418 19.2177 40.367 19.2177C43.0167 19.2177 45.421 18.1383 47.1547 16.4046C48.8885 14.6709 49.968 12.2667 49.968 9.61711C49.968 9.09374 49.9189 8.57037 49.8371 8.06335C49.7553 7.55633 49.6245 7.04931 49.4609 6.55865C49.4282 6.44416 49.3464 6.32967 49.2647 6.26425C49.1829 6.18247 49.0684 6.13341 48.9539 6.1007L48.9866 6.06799ZM8.19498 9.97693C8.12955 9.91151 8.04778 9.86244 7.966 9.82973C7.88422 9.79702 7.78608 9.78067 7.68795 9.78067H5.29998L1.60355 3.61467L3.61533 1.60295L9.7815 5.29928V7.68717C9.7815 7.78531 9.79786 7.88344 9.83057 7.96522C9.86328 8.04699 9.91235 8.12877 9.97777 8.19419L22.5718 20.8206L20.789 22.6033L8.19498 9.97693ZM33.6938 28.8347L47.351 41.363C48.1688 42.1808 48.5777 43.2766 48.5777 44.3397C48.5777 45.4191 48.1688 46.4986 47.3347 47.3164C46.5169 48.1341 45.4374 48.5594 44.3579 48.5594C43.2784 48.5594 42.1989 48.1505 41.3811 47.3327C37.1122 43.064 32.7779 37.9938 28.6399 33.496L33.4976 28.6385L33.6938 28.8184V28.8347ZM32.2545 27.9025L27.6912 32.4656L25.9902 30.6175L30.6189 25.9889L32.4835 27.6899L32.2872 27.8861L32.2545 27.9025ZM40.4161 17.7621C39.9745 17.7621 39.5329 17.7294 39.0913 17.6476C38.6497 17.5822 38.2244 17.4677 37.7992 17.3205C37.6683 17.2715 37.5375 17.2715 37.4066 17.3042C37.2758 17.3369 37.1613 17.4023 37.0631 17.5004L17.5178 37.0452C17.4197 37.1433 17.3543 37.2578 17.3216 37.3886C17.2889 37.5195 17.2889 37.6503 17.3379 37.7812C17.7632 39.0405 17.8777 40.349 17.6814 41.6083C17.4851 42.8677 16.9945 44.078 16.2257 45.1738C15.457 46.2533 14.4593 47.1038 13.3307 47.6925C12.2022 48.265 10.9264 48.5921 9.60159 48.5921L9.15998 48.5757L8.12955 48.4776L11.6788 44.9612C11.7442 44.8958 11.7933 44.814 11.8423 44.7322C11.8751 44.6504 11.8914 44.5523 11.8914 44.4542V41.6574C11.8914 41.5593 11.8751 41.4611 11.8423 41.3794C11.8096 41.2976 11.7606 41.2158 11.6951 41.1504L8.86557 38.3209C8.80015 38.2555 8.71837 38.2064 8.63659 38.1737C8.55481 38.141 8.45667 38.1246 8.35854 38.1246H5.56168C5.46354 38.1246 5.36541 38.141 5.28363 38.1737C5.20185 38.2064 5.12007 38.2555 5.05465 38.3372L1.53813 41.8864L1.43999 40.8723L1.42363 40.4307C1.42363 39.1059 1.7344 37.8302 2.32321 36.7017C2.89567 35.5732 3.76253 34.5755 4.84202 33.8068C5.92151 33.0217 7.1482 32.5311 8.40761 32.3512C9.66701 32.1549 10.9755 32.2694 12.2349 32.6946C12.3657 32.7437 12.4966 32.7437 12.6274 32.711C12.7583 32.6783 12.8728 32.6128 12.9709 32.5147L32.5162 12.97C32.6143 12.8718 32.6798 12.7574 32.7125 12.6265C32.7452 12.4957 32.7452 12.3648 32.6961 12.234C32.2709 10.9746 32.1564 9.66618 32.3526 8.40681C32.5489 7.14744 33.0396 5.93714 33.8083 4.85768C34.5771 3.77823 35.5748 2.92774 36.7033 2.33895C37.8319 1.75015 39.1076 1.4394 40.4325 1.4394L40.8904 1.45576L41.9209 1.55389L38.4534 5.0703C38.388 5.13573 38.3389 5.2175 38.3062 5.29928C38.2735 5.38106 38.2571 5.47919 38.2571 5.57732V8.3741C38.2571 8.47223 38.2735 8.55401 38.3062 8.63579C38.3389 8.71756 38.388 8.79934 38.4534 8.86476L41.1848 11.6943C41.2503 11.7597 41.332 11.8251 41.4138 11.8578C41.4956 11.8905 41.5937 11.9069 41.6919 11.9069H44.4887C44.5869 11.9069 44.685 11.8905 44.7668 11.8578C44.8486 11.8251 44.9303 11.776 44.9958 11.7106L48.5123 8.16148L48.6104 9.17552L48.6268 9.61711C48.6268 11.8742 47.7108 13.9186 46.2225 15.3906C44.7504 16.8789 42.6896 17.7948 40.4488 17.7948L40.4161 17.7621ZM16.0458 33.2507C15.8495 33.2507 15.6696 33.3325 15.5388 33.4633C15.4079 33.5942 15.3262 33.7741 15.3262 33.9703C15.3262 34.1666 15.4079 34.3465 15.5388 34.4774C15.6696 34.6082 15.8495 34.69 16.0458 34.69C16.2421 34.69 16.422 34.6082 16.5528 34.4774C16.6837 34.3465 16.7655 34.1666 16.7655 33.9703C16.7655 33.7741 16.6837 33.5942 16.5528 33.4633C16.422 33.3325 16.2421 33.2507 16.0458 33.2507Z" fill="#F03033"/>
</svg>
