<svg width="48" height="50" viewBox="0 0 48 50" fill="none" xmlns="http://www.w3.org/2000/svg">
<g clip-path="url(#clip0_1428_573)">
<path d="M43.5121 3.6549V0.845351C43.5121 0.621581 43.4126 0.397812 43.2634 0.248633C43.1143 0.099453 42.8905 0 42.6667 0H31.2296C31.0059 0 30.7821 0.099453 30.6329 0.248633C30.4837 0.397812 30.3843 0.621581 30.3843 0.845351V3.92839L30.1108 3.95326C29.1411 4.07757 28.2958 4.54998 27.6742 5.24615C27.0775 5.94232 26.7045 6.83739 26.7045 7.83192V37.643H12.6568L13.3032 30.2586H14.3226C15.2177 30.2586 16.063 30.0845 16.8587 29.7613C17.6543 29.4381 18.3753 28.9408 19.0218 28.3192C19.6434 27.6977 20.1406 26.9518 20.4638 26.1561C20.7871 25.3605 20.9611 24.4903 20.9611 23.6201C20.9611 21.8797 20.2898 20.2884 19.171 19.095C18.0521 17.9015 16.5106 17.1059 14.7702 16.9816L14.4469 16.9567L15.2177 7.95624H15.4912C17.2068 7.88165 18.7483 7.13575 19.8423 5.99204C20.9362 4.84833 21.6324 3.28195 21.6324 1.56639C21.6324 1.34262 21.533 1.11885 21.3838 0.969667C21.2346 0.820487 21.0108 0.721034 20.7871 0.721034C20.5633 0.721034 20.3395 0.820487 20.1903 0.969667C20.0412 1.11885 19.9417 1.34262 19.9417 1.56639C19.9417 2.78468 19.4942 3.87867 18.7234 4.72402C17.9527 5.56937 16.9084 6.14122 15.715 6.26554L15.3172 6.31527L15.3917 5.51964C15.4415 4.8732 15.3669 4.22675 15.168 3.63004C14.9691 3.03332 14.6458 2.46146 14.1983 1.98906C13.7508 1.51666 13.2286 1.14371 12.6568 0.870214C12.0849 0.621581 11.4385 0.472402 10.792 0.472402C10.1456 0.472402 9.49915 0.621581 8.92729 0.870214C8.35544 1.11885 7.80845 1.4918 7.38577 1.9642C6.93823 2.4366 6.61501 3.00845 6.41611 3.60517C6.2172 4.20189 6.11775 4.84833 6.19234 5.49478L6.26693 6.26554L5.91884 6.2904C4.27787 6.36499 2.78607 7.06116 1.69209 8.18001C0.622968 9.29886 -0.0483398 10.7907 -0.0483398 12.4565C-0.0483398 13.277 0.10084 14.0726 0.424062 14.8185C0.722421 15.5644 1.19482 16.2357 1.76668 16.8324C2.33853 17.4043 3.0347 17.8767 3.7806 18.175C4.5265 18.4734 5.32212 18.6474 6.14261 18.6474H7.31118L8.15653 28.5927H7.162C5.67021 28.5927 4.32759 29.1895 3.35793 30.1591C2.38826 31.1288 1.79154 32.4714 1.79154 33.9632C1.79154 34.6842 1.94072 35.3804 2.18935 36.0269C2.46285 36.6733 2.86066 37.27 3.35793 37.7673C3.85519 38.2645 4.45191 38.6624 5.09835 38.9359C5.7448 39.2094 6.44097 39.3337 7.162 39.3337H9.07647L9.92182 49.2541C9.94669 49.4779 10.0461 49.6768 10.1953 49.8011C10.3445 49.9503 10.5434 50.0249 10.7672 50.0249C10.9909 50.0249 11.1898 49.9503 11.339 49.8011C11.4882 49.6519 11.5877 49.4779 11.6125 49.2541L12.4579 39.3337H26.6548V40.8006C26.6548 41.7951 27.0277 42.6902 27.6245 43.3864C28.246 44.0826 29.0914 44.555 30.0611 44.6793L30.3346 44.7041V47.7872C30.3346 48.0109 30.434 48.2347 30.5832 48.3839C30.7324 48.5331 30.9561 48.6325 31.1799 48.6325H42.617C42.8408 48.6325 43.0645 48.5331 43.2137 48.3839C43.3629 48.2347 43.4624 48.0109 43.4624 47.7872V44.7041L43.7358 44.6793C44.7055 44.555 45.5509 44.0826 46.1724 43.3864C46.7692 42.6902 47.1421 41.7951 47.1421 40.8006V7.85679C47.1421 6.86226 46.7692 5.96718 46.1724 5.27101C45.5509 4.57484 44.7055 4.10244 43.7358 3.97812L43.4624 3.95326V3.67976L43.5121 3.6549ZM10.4937 35.6788L10.0213 30.2586H11.5877L10.792 39.4083L10.4688 35.6788H10.4937ZM19.2704 23.6201C19.2704 24.2914 19.1461 24.9378 18.8975 25.5097C18.6488 26.1064 18.2759 26.6534 17.8283 27.1258C17.3559 27.5982 16.8089 27.9463 16.2122 28.1949C15.6155 28.4436 14.9691 28.5679 14.3226 28.5679H13.4524L14.3226 18.6226L14.6458 18.6474C15.9387 18.722 17.1073 19.3187 17.9527 20.2138C18.798 21.1089 19.2953 22.3023 19.2953 23.6201H19.2704ZM6.16747 16.9816C5.57076 16.9816 4.97404 16.8573 4.45191 16.6335C3.90492 16.4097 3.40765 16.0865 2.98498 15.6638C2.5623 15.2412 2.23908 14.7439 2.01531 14.1969C1.79154 13.6499 1.66722 13.0781 1.66722 12.4814C1.66722 11.2382 2.16449 10.1193 2.96011 9.32372C3.75574 8.50323 4.87458 8.00597 6.11775 7.9811H6.41611L7.18687 16.9816H6.16747ZM8.45489 7.9811H9.97155V9.92044C9.97155 10.1442 10.071 10.368 10.2202 10.5172C10.3694 10.6663 10.5931 10.7658 10.8169 10.7658C11.0407 10.7658 11.2644 10.6663 11.4136 10.5172C11.5628 10.368 11.6623 10.1442 11.6623 9.92044V5.04724C11.6623 4.82347 11.5628 4.5997 11.4136 4.45052C11.2644 4.30134 11.0407 4.20189 10.8169 4.20189C10.5931 4.20189 10.3694 4.30134 10.2202 4.45052C10.071 4.5997 9.97155 4.82347 9.97155 5.04724V6.2904H7.95763L7.88304 5.37046C7.85817 4.94779 7.9079 4.54998 8.03222 4.17703C8.15653 3.80408 8.3803 3.43113 8.6538 3.13277C8.92729 2.83441 9.27538 2.58578 9.64833 2.4366C10.0213 2.26256 10.4191 2.18797 10.8418 2.18797C11.2644 2.18797 11.6623 2.26256 12.0352 2.4366C12.4081 2.61064 12.7314 2.83441 13.0297 3.13277C13.3032 3.43113 13.527 3.80408 13.6513 4.17703C13.7756 4.54998 13.8254 4.97265 13.8005 5.37046L11.7866 28.5927H9.92182C9.34997 21.7305 8.75325 14.8434 8.13167 7.9811H8.47976H8.45489ZM7.21173 37.6678C6.71446 37.6678 6.24206 37.5684 5.79452 37.3943C5.34699 37.2203 4.94917 36.9468 4.60109 36.5987C4.253 36.2506 3.97951 35.8528 3.80546 35.4053C3.63142 34.9577 3.53197 34.4853 3.53197 33.9881C3.53197 32.9687 3.95464 32.0487 4.62595 31.3774C5.29726 30.7061 6.2172 30.2834 7.23659 30.2834H8.35544L9.00188 37.6678H7.23659H7.21173ZM45.2774 37.6927L28.4449 41.3973L28.3952 41.0492L28.3704 40.8255V38.6624C34.0889 37.3943 39.8075 36.1512 45.526 34.8831V37.643L45.2774 37.6927ZM45.2774 33.2173L28.3704 36.9468V34.187C34.0889 32.9189 39.8075 31.6758 45.526 30.4078V33.1676L45.2774 33.2173ZM45.2774 28.7419L28.3704 32.4714V29.7116C34.0889 28.4436 39.8075 27.2004 45.526 25.9324V28.6922L45.2774 28.7419ZM45.2774 24.2665L28.3704 27.996V25.2362C34.0889 23.9682 39.8075 22.725 45.526 21.457V24.2168L45.2774 24.2665ZM45.2774 19.7912L28.3704 23.5206V20.7608C34.0889 19.4928 39.8075 18.2496 45.526 16.9816V19.7414L45.2774 19.7912ZM45.2774 15.3158L28.3704 19.0453V16.2854C34.0889 15.0174 39.8075 13.7742 45.526 12.5062V15.266L45.2774 15.3158ZM45.2774 10.8404L28.3704 14.5699V11.81C34.0889 10.542 39.8075 9.29886 45.526 8.03083V10.7907L45.2774 10.8404ZM41.8214 2.08851V4.02785H32.075V1.76529H41.8214V2.08851ZM30.5832 5.69369H43.2883C43.4872 5.69369 43.6613 5.71855 43.8353 5.76827C44.0093 5.818 44.1834 5.89259 44.3574 5.96718L45.1282 6.38986L28.3704 10.0696V7.90651C28.3704 7.28493 28.619 6.73794 29.0168 6.34013C29.4146 5.94232 29.9616 5.69369 30.5832 5.69369ZM32.075 46.6932V44.7539H41.8214V47.0164H32.075V46.6932ZM43.3132 43.088H28.8428C34.4121 41.8697 39.9566 40.6514 45.526 39.4083V40.8752C45.526 41.4968 45.2774 42.0438 44.8796 42.4416C44.4817 42.8394 43.9348 43.088 43.3132 43.088Z" fill="#F03033"/>
</g>
<defs>
<clipPath id="clip0_1428_573">
<rect width="47.2184" height="50" fill="white"/>
</clipPath>
</defs>
</svg>
