<svg width="50" height="50" viewBox="0 0 50 50" fill="none" xmlns="http://www.w3.org/2000/svg">
<path fill-rule="evenodd" clip-rule="evenodd" d="M10.7218 19.6381C10.694 19.8325 10.7218 20.027 10.7773 20.1936C10.8329 20.3048 11.4162 21.5825 12.6662 23.527C13.944 25.4992 15.9162 28.1659 18.7495 30.9992L19.0273 31.277C20.944 33.1936 22.8051 34.7214 24.4162 35.9159C27.5273 38.1936 29.694 39.1936 29.8329 39.2492C30.0273 39.3325 30.2218 39.3603 30.3884 39.3325C30.5829 39.3048 30.7495 39.2214 30.8884 39.0825L34.694 35.3048C36.1384 33.9159 37.6384 33.1103 39.694 33.4436C41.5273 33.7492 43.7495 35.0548 46.6384 37.8603C47.5551 38.7492 48.0551 39.9159 48.1107 41.1103C48.1662 42.3048 47.7495 43.4992 46.8884 44.4714L46.8329 44.527C45.6384 45.7214 44.1662 46.6381 42.4995 47.2492C40.8607 47.8603 38.9995 48.1659 36.9995 48.1659H36.9162C35.3329 48.1659 33.6107 47.9436 31.8607 47.527C30.1107 47.1103 28.2773 46.4992 26.444 45.6936C26.194 45.5825 25.944 45.5825 25.7218 45.6936C25.4995 45.777 25.3051 45.9436 25.194 46.1936C25.0829 46.4436 25.0829 46.6936 25.194 46.9159C25.2773 47.1381 25.444 47.3325 25.694 47.4436C27.694 48.3048 29.6662 48.9714 31.5273 49.4159C33.3884 49.8603 35.194 50.0825 36.9162 50.0825H37.0273C39.3329 50.0825 41.4718 49.7214 43.3607 48.9992C45.2218 48.3048 46.8884 47.2492 48.2495 45.8603L48.3329 45.777C48.9162 45.1381 49.3607 44.3881 49.6384 43.6103C49.9162 42.8048 50.0551 41.9714 50.0273 41.0825C49.9995 40.2214 49.8051 39.3603 49.444 38.6103C49.1107 37.8325 48.6107 37.1381 47.9718 36.527C46.5829 35.1936 45.3329 34.1659 44.1662 33.3603C43.0273 32.6103 41.944 32.0825 40.9162 31.777C39.5551 31.3881 38.2495 31.3603 36.9995 31.7214C35.7218 32.0825 34.4995 32.8325 33.3607 33.9714C32.2773 35.0825 31.1107 36.1936 30.0273 37.277L29.3051 36.8881C28.2773 36.3048 26.6662 35.3048 24.7495 33.8325C23.4162 32.777 21.9162 31.527 20.3884 29.9992L20.1107 29.7214C18.5829 28.1936 17.3329 26.7214 16.2773 25.3881C14.8051 23.4714 13.8051 21.8603 13.194 20.8048L12.8051 20.0825C13.7218 19.1381 15.444 17.6381 16.1384 16.7214C17.2773 15.5548 18.0273 14.3603 18.3607 13.0825C18.7218 11.8325 18.694 10.527 18.3051 9.16587C17.9995 8.13809 17.4995 7.08254 16.7218 5.91587C15.944 4.7492 14.8884 3.47142 13.5551 2.11031C12.944 1.47142 12.2495 0.999202 11.4718 0.638091C10.694 0.304758 9.86065 0.110314 8.99954 0.054758C8.13843 0.0269802 7.27732 0.165869 6.47176 0.443647C5.69398 0.721425 4.94398 1.16587 4.30509 1.7492L4.19398 1.83254C2.80509 3.22142 1.74954 4.88809 1.05509 6.77698C0.33287 8.69365 -0.0282415 10.8603 -0.000463762 13.1659C0.027314 17.1936 1.13843 21.527 3.19398 25.777C5.24954 30.0548 8.24954 34.277 11.9995 38.027L12.0273 38.0548C12.7218 38.7492 13.4718 39.4436 14.2773 40.1381C15.0829 40.8325 15.9162 41.527 16.7773 42.1936C16.9995 42.3603 17.2495 42.4159 17.4718 42.3881C17.7218 42.3603 17.944 42.2214 18.1107 42.027C18.2773 41.8048 18.3329 41.5548 18.3051 41.3325C18.2773 41.0825 18.1384 40.8603 17.944 40.6936C17.0829 40.027 16.2773 39.3603 15.5273 38.7214C14.7495 38.0548 14.0273 37.3881 13.3607 36.6936L13.3329 36.6659C9.77732 33.1103 6.94398 29.1659 4.99954 25.1381C3.02731 21.0825 1.94398 16.9714 1.9162 13.1381C1.9162 11.1103 2.22176 9.2492 2.80509 7.58254C3.4162 5.88809 4.33287 4.41587 5.52732 3.19365L5.58287 3.13809C6.52732 2.27698 7.74954 1.88809 8.94398 1.91587C10.1384 1.97142 11.3051 2.44365 12.194 3.38809C14.9995 6.30476 16.3051 8.4992 16.6106 10.3325C16.944 12.3881 16.1384 13.8881 14.7495 15.3325L10.9718 19.1381C10.8329 19.277 10.7495 19.4436 10.7218 19.6381Z" fill="#F03033"/>
<path fill-rule="evenodd" clip-rule="evenodd" d="M30.472 13.2754C31.4164 13.5254 32.8053 13.9143 34.4442 15.5532C36.0275 17.1365 36.4164 18.5254 36.6942 19.4421L36.722 19.5532C36.7775 19.7476 36.9164 19.9143 37.0553 20.0532C37.222 20.1643 37.4164 20.2476 37.6386 20.2476H37.7775L37.9164 20.2199C38.1664 20.1365 38.3609 19.9699 38.472 19.7754C38.5831 19.5532 38.6109 19.3032 38.5553 19.0532L38.5275 18.9699C38.3886 18.4699 38.1664 17.7476 37.7775 16.9699C37.3609 16.1643 36.7775 15.2476 35.8053 14.2754C33.8331 12.3032 31.9164 11.7754 30.9998 11.4976C30.7498 11.4143 30.4998 11.4699 30.2775 11.581C30.0553 11.6921 29.8886 11.9143 29.8331 12.1643C29.7498 12.4143 29.8053 12.6643 29.9164 12.8865C30.0275 13.081 30.222 13.2476 30.472 13.331H30.4998L30.472 13.2754Z" fill="#F03033"/>
<path fill-rule="evenodd" clip-rule="evenodd" d="M40.194 9.77756C42.0551 11.6387 43.4995 13.8053 44.4717 16.1942C45.444 18.5553 45.944 21.1387 45.944 23.7776C45.944 24.0276 46.0551 24.2776 46.2217 24.4442C46.3884 24.6109 46.6384 24.722 46.8884 24.722C47.1662 24.722 47.3884 24.6109 47.5551 24.4442C47.7217 24.2776 47.8328 24.0276 47.8328 23.7776C47.8328 20.8609 47.3051 18.0553 46.2217 15.4442C45.1662 12.8609 43.5828 10.472 41.5273 8.41645C39.4995 6.38867 37.1384 4.80534 34.5551 3.74978C31.9717 2.69423 29.194 2.13867 26.3051 2.13867H26.194C25.944 2.13867 25.694 2.24978 25.5273 2.41645C25.3606 2.58312 25.2495 2.83312 25.2495 3.08312C25.2495 3.33312 25.3606 3.58312 25.5273 3.74978C25.694 3.91645 25.944 4.02756 26.194 4.02756H26.3051C28.9162 4.02756 31.4717 4.52756 33.8328 5.49978C36.194 6.47201 38.3328 7.91645 40.194 9.74978V9.77756Z" fill="#F03033"/>
</svg>
