<svg width="57" height="50" viewBox="0 0 57 50" fill="none" xmlns="http://www.w3.org/2000/svg">
<g clip-path="url(#clip0_1428_399)">
<path fill-rule="evenodd" clip-rule="evenodd" d="M56.3447 16.6089C56.3071 15.9116 55.8566 15.2708 54.9743 14.6866C54.0356 14.0646 52.6465 13.5369 50.7692 13.0658L50.4313 12.9904L50.5815 12.67C50.6378 12.5569 50.6753 12.425 50.7129 12.2931C50.7504 12.1611 50.7504 12.048 50.7504 11.9161V5.62136L50.7316 5.37636C50.619 3.62362 47.8782 2.41744 44.2738 1.62589C37.4218 0.0993121 27.4723 0.0239258 25.8203 0.0239258C24.1683 0.0239258 14.2188 0.0993121 7.36672 1.62589C3.76236 2.43629 1.02155 3.62362 0.908909 5.37636L0.890137 5.62136V11.9161C0.890137 12.67 1.37823 13.3485 2.223 13.9704C3.19918 14.6866 4.64468 15.3274 6.39054 15.8551L6.67213 15.9304L6.54072 16.4016L6.50317 16.8162V23.356L6.29667 23.4125C4.49449 23.8837 3.14286 24.4114 2.24177 25.0145C1.397 25.5799 0.946455 26.2207 0.908909 26.918V27.0688V33.4578C0.908909 33.9855 1.15295 34.4755 1.56595 34.9278C2.05404 35.4555 2.76741 35.9267 3.68727 36.3601L3.91254 36.4732L3.81868 36.7182L3.74359 36.9632L3.68727 37.4156V43.7669C3.68727 45.0673 5.09522 46.1604 7.34794 47.065C10.0888 48.177 14.031 48.9497 18.2173 49.4397L18.4426 49.4585C19.156 49.5339 19.9069 49.6093 20.6766 49.6847C21.4462 49.7601 22.2159 49.8166 22.9481 49.8543H23.0795C24.0369 49.9108 24.9943 49.9485 25.8954 49.9862C26.8152 50.0239 27.7163 50.0239 28.5986 50.0239C29.4997 50.0239 30.4008 50.0051 31.3207 49.9862C32.2405 49.9485 33.1792 49.9108 34.1366 49.8543H34.2868C35.0377 49.8166 35.8074 49.7412 36.577 49.6847C37.3467 49.6093 38.0788 49.5528 38.7922 49.4585L39.0175 49.4397C43.185 48.9497 47.1461 48.177 49.8869 47.065C52.1208 46.1604 53.5288 45.0673 53.5475 43.7669V37.4721L53.5288 37.2082C53.51 36.6994 53.266 36.2471 52.8342 35.8136C52.3649 35.3613 51.6703 34.9278 50.7504 34.5509L50.4876 34.4378L50.6002 34.1739C50.6566 34.0609 50.6941 33.9289 50.7129 33.8159C50.7316 33.7028 50.7504 33.5709 50.7504 33.4578V27.1253L50.9569 27.0688C52.684 26.5411 54.092 25.9191 55.0494 25.203C55.8754 24.581 56.3447 23.9026 56.3447 23.1675V16.7974L56.3259 16.6278L56.3447 16.6089ZM49.2486 33.9855L48.9295 34.2682C48.6666 34.4943 48.3287 34.7205 47.9157 34.9467C47.5027 35.1728 47.0146 35.399 46.4702 35.6063L46.076 35.7571V30.6685L46.2637 30.5931C46.8081 30.4046 47.3338 30.1973 47.7843 29.99C48.2349 29.7827 48.6479 29.5565 49.0046 29.3304L49.4363 29.0477V33.4389C49.4363 33.5143 49.4176 33.5897 49.3988 33.6651C49.38 33.7405 49.3425 33.8159 49.2861 33.8912L49.2298 33.9478L49.2486 33.9855ZM28.1856 38.4144L26.4773 38.4333V33.1751L29.0867 33.1185L30.795 33.0431V38.3013C29.9315 38.339 29.068 38.3767 28.2044 38.3956L28.1856 38.4144ZM24.0932 38.4333C23.0044 38.4144 21.9343 38.3767 20.8643 38.3202V33.062L22.5726 33.1374L25.182 33.1939V38.4521L24.112 38.4333H24.0932ZM7.16022 36.2848L6.85985 36.1905V31.0643L7.21654 31.1585C7.66708 31.2716 8.09885 31.3846 8.5494 31.4977C8.99994 31.6108 9.48803 31.705 9.99489 31.7993L10.2202 31.837V37.0009L8.64326 36.6428L7.16022 36.2471V36.2848ZM26.9279 43.4842L27.9791 43.503V48.7612L25.8015 48.7235L23.6614 48.6293V43.3711L25.3697 43.4465L26.9279 43.4842ZM30.4759 43.4842L31.8839 43.4465L33.5922 43.3711V48.6293L31.4521 48.7235L29.2745 48.7612V43.503L30.4759 43.4842ZM38.2478 43.3522V48.2712L36.6146 48.4408L34.8687 48.5727V43.3145L36.5207 43.2015L38.229 43.0507V43.3711L38.2478 43.3522ZM39.8059 42.8622L41.2139 42.6738L42.9222 42.4099V47.5927L41.3078 47.8566L39.5431 48.1016V42.8811L39.7872 42.8434L39.8059 42.8622ZM44.4616 42.1272C44.9684 42.033 45.4565 41.9199 45.9071 41.8257C46.3576 41.7314 46.8081 41.6183 47.2399 41.4864L47.5966 41.3922V46.5185L47.3901 46.575C46.9583 46.7069 46.5078 46.82 46.0385 46.9331C45.5692 47.0462 45.0811 47.1592 44.5742 47.2723L44.2363 47.3477V42.1837L44.4616 42.146V42.1272ZM13.0548 42.4099V47.3289L12.7169 47.2535C12.2101 47.1404 11.722 47.0273 11.2527 46.9142C10.7833 46.8012 10.3328 46.6692 9.90103 46.5562L9.69453 46.4996V41.3733L10.0512 41.4676C10.5018 41.5807 10.9523 41.6937 11.3841 41.8068C11.8346 41.9199 12.3227 42.0141 12.8296 42.1084L13.0548 42.146V42.3911V42.4099ZM14.6881 42.4664L16.0585 42.6738L17.7292 42.8811V48.1016L15.9646 47.8566L14.3502 47.5927V42.4099L14.6881 42.4664ZM19.3437 43.0695L20.7329 43.1826L22.4036 43.2957V48.5539L20.6578 48.422L19.0246 48.2523V43.0318L19.3437 43.0695ZM16.9783 38.0375L16.2274 37.9621V32.7416L17.917 32.8924L19.5877 33.0055V38.2448L18.1047 38.1317L16.9596 38.0186L16.9783 38.0375ZM14.9321 32.8358V37.7925L13.1675 37.5475L11.5718 37.2836V32.1008L13.2989 32.3647L14.9509 32.572V32.817L14.9321 32.8358ZM33.029 38.1883L32.1091 38.2637V33.0055L33.7799 32.8924L35.4694 32.7416V37.9621L33.029 38.1883ZM36.7648 37.4721V32.5908L38.4355 32.3835L40.1438 32.1197V37.3025L38.5294 37.5663L36.7835 37.8113V37.4909L36.7648 37.4721ZM41.6644 31.8181C42.1713 31.7239 42.6594 31.6108 43.1099 31.5166C43.5605 31.4223 44.011 31.3093 44.4428 31.1773L44.7995 31.0831V36.2094L44.593 36.2659C44.1612 36.3978 43.7107 36.5109 43.2413 36.624C42.772 36.7371 42.2652 36.8502 41.7583 36.9632L41.4204 37.0386V31.8747L41.6457 31.837L41.6644 31.8181ZM28.9365 28.1053L26.4961 28.0111V22.7529L28.2044 22.8283L30.8138 22.8848V28.143L28.9553 28.1242L28.9365 28.1053ZM6.87863 14.4227V9.52261L7.23531 9.61684C7.68585 9.72992 8.11762 9.843 8.56817 9.95608C9.01871 10.0692 9.5068 10.1634 10.0137 10.2576L10.2389 10.2953V15.4593C9.0938 15.2143 7.98622 14.9504 6.85985 14.63V14.4227H6.87863ZM24.1307 11.6146L25.182 11.6334V16.8916L23.0044 16.8539L20.8643 16.7597V11.5203L22.5726 11.5957L24.1307 11.6334V11.6146ZM27.6788 11.6146L29.0867 11.5769L30.795 11.5015V16.7409C29.3495 16.8162 27.9228 16.8539 26.4961 16.8728V11.6146L27.6975 11.5957L27.6788 11.6146ZM49.0046 12.67L48.7793 12.8585C48.5165 13.0658 48.1973 13.2731 47.8031 13.4615C47.4276 13.65 46.9771 13.8573 46.4702 14.0458L46.076 14.1966V9.12683L46.2637 9.05144C46.8081 8.86298 47.3338 8.65566 47.7843 8.44835C48.2349 8.24104 48.6479 8.01488 49.0046 7.78872L49.4363 7.50602V11.8973C49.4363 12.0104 49.3988 12.1234 49.3612 12.2365C49.3237 12.3307 49.2486 12.4438 49.1547 12.5381L49.0421 12.67L48.9858 12.6511L49.0046 12.67ZM36.746 15.8928V11.0115L38.4168 10.8042L40.1251 10.5403V15.7043L38.5294 15.9681L36.7648 16.2131V15.8928H36.746ZM41.4204 15.1012V10.2953L41.6457 10.2576C42.1525 10.1634 42.6406 10.0503 43.0912 9.95608C43.5417 9.86185 43.9922 9.74876 44.424 9.61684L44.7807 9.52261V14.63L44.5742 14.6866C44.1612 14.7997 43.7107 14.9316 43.2413 15.0447C42.7532 15.1577 42.2652 15.2897 41.7395 15.3839L41.4016 15.4593V15.1012H41.4204ZM35.4507 11.4638V16.3639L33.7987 16.5335L32.0904 16.6655V11.4261L33.7611 11.313L35.4694 11.1623V11.4827L35.4507 11.4638ZM16.2087 16.1189V11.1434L17.917 11.2942L19.5877 11.4073V16.6466L17.8607 16.5147L16.2087 16.3451V16.0812V16.1189ZM14.9133 11.2565V16.2131C13.787 16.0812 12.6606 15.9116 11.5343 15.7043V10.5215L13.2613 10.7853L14.9133 10.9926V11.2376V11.2565ZM24.6564 27.8792C23.7177 27.8038 22.7603 27.7284 21.8217 27.6153V22.3948L23.53 22.5456L25.2008 22.6587V27.898L24.6564 27.8603V27.8792ZM18.4614 27.1819L17.1473 26.9557V21.7917L18.8556 22.0556L20.5264 22.2629V27.4834C19.8506 27.3892 19.1372 27.3138 18.4614 27.1819ZM15.852 21.7917V26.7107L15.5141 26.6353C15.0072 26.5222 14.5003 26.4091 14.031 26.2961C13.5617 26.183 13.1112 26.0511 12.6794 25.938L12.4729 25.8814V20.774L12.8296 20.8683C13.2801 20.9813 13.7307 21.0944 14.1812 21.2075C14.6317 21.3206 15.1198 21.4148 15.6267 21.509L15.852 21.5467V21.7729V21.7917ZM11.1776 20.5667V25.4291L10.7833 25.2784C10.0324 24.9957 9.41294 24.6941 8.94362 24.4114C8.43676 24.1099 8.09885 23.7895 7.91112 23.5068L7.81726 23.356C7.61076 22.3383 7.77972 19.9825 7.77972 18.7574L8.21149 19.0401C8.56817 19.2663 8.98117 19.4925 9.43171 19.6998C9.90103 19.9071 10.4079 20.1144 10.9523 20.3029L11.14 20.3782V20.5856L11.1776 20.5667ZM33.273 22.866L34.681 22.8283L36.3893 22.7529V27.9923L34.2492 28.0865L32.0716 28.1242V22.866L33.273 22.8471V22.866ZM45.4002 27.0311C44.3865 27.2007 43.3727 27.3515 42.359 27.4834V22.2817L44.0298 22.0744L45.7381 21.8106V26.9934L45.419 27.0499L45.4002 27.0311ZM39.055 27.8415L37.6846 27.9357V22.6964L39.3554 22.5833L41.0449 22.4325V27.653C40.4254 27.7096 39.6182 27.7473 39.0363 27.8603L39.055 27.8415ZM49.7742 26.0699C49.3049 26.2018 48.7981 26.3338 48.31 26.4468L47.0334 26.7295V21.5656L47.2587 21.5279C47.7656 21.4336 48.2536 21.3206 48.7042 21.2263C49.1547 21.1321 49.6053 21.019 50.0371 20.8871L50.3937 20.7929V25.9191L49.7742 26.0888V26.0699ZM55.0494 16.7032C54.993 17.1178 54.5425 17.5701 53.754 18.0224C53.0407 18.4182 52.0457 18.8328 50.7692 19.2286C48.9858 19.7752 46.6955 20.3029 43.9359 20.7175C41.5142 21.0756 38.7547 21.3583 35.6759 21.4902C34.268 21.5467 32.86 21.5656 31.4521 21.5844C30.6636 21.5844 29.8752 21.5656 29.0867 21.5467L27.2282 21.4902C24.1495 21.3583 21.3899 21.0756 18.9682 20.7175C16.2087 20.3029 13.8996 19.7752 12.135 19.2286C10.8584 18.8328 9.86349 18.4182 9.1689 18.0413C8.38044 17.6078 7.9299 17.1555 7.85481 16.7409L7.83603 16.6843L7.89235 16.5147L7.98622 16.3074L9.52558 16.6466C10.4642 16.8539 11.4216 17.0235 12.4353 17.1932C13.4491 17.3628 14.5003 17.4947 15.6079 17.6266H15.6267C16.3588 17.702 17.1097 17.7774 17.8982 17.8528C18.6679 17.9282 19.4563 17.9847 20.2448 18.0224C20.808 18.0224 21.4462 18.079 22.0094 18.1166L23.7553 18.1732C24.9567 18.192 26.1582 18.2109 27.3596 18.192C30.7012 18.1355 33.9301 17.9093 36.8774 17.5513C39.8623 17.1743 42.5467 16.6655 44.7432 16.0247C46.489 15.5158 47.8219 15.007 49.38 14.0646L49.4926 14.0835C51.201 14.4604 52.4024 14.8373 53.2284 15.1954C54.5425 15.7608 55.0118 16.2885 55.0869 16.5712L55.1057 16.6278V16.6843L55.0494 16.7032ZM25.839 1.32434C32.4846 1.32434 37.7034 1.77666 41.533 2.3986C46.7143 3.24669 49.3612 4.49057 49.4551 5.41405V5.48944C49.38 5.90406 48.9295 6.33753 48.141 6.78985C47.4464 7.18563 46.4327 7.58141 45.1749 7.97719C43.3915 8.52374 41.1012 9.05144 38.3417 9.46607C35.92 9.82415 33.1604 10.1069 30.0817 10.2388C28.6737 10.2953 27.2658 10.3142 25.839 10.333C24.4311 10.3142 23.0231 10.2953 21.6152 10.2388C18.5365 10.1069 15.7769 9.82415 13.3552 9.46607C10.5956 9.05144 8.28658 8.52374 6.52195 7.97719C5.26417 7.58141 4.25045 7.18563 3.55586 6.78985C2.76741 6.35638 2.31686 5.90406 2.24177 5.48944V5.41405C2.33563 4.50941 4.98258 3.26554 10.1638 2.3986C13.9935 1.77666 19.2123 1.32434 25.8578 1.32434H25.839ZM2.20423 11.9161V7.52487L2.636 7.80757C2.99268 8.03373 3.40568 8.25988 3.85622 8.4672C4.32554 8.67451 4.8324 8.88182 5.37681 9.07029L5.56454 9.14567V14.2531L5.18908 14.1023C4.26922 13.7631 3.55586 13.405 3.06777 13.0658C2.50459 12.6888 2.20423 12.2931 2.20423 11.935V11.9161ZM7.19776 24.6753L7.25408 24.7318C7.83603 25.3349 8.73712 25.8626 9.86349 26.3526C11.1025 26.8803 12.6231 27.3515 14.3314 27.7284L15.2888 27.9357C16.8094 28.2561 18.4802 28.5388 20.2448 28.765C21.9906 28.9911 23.8491 29.1608 25.7827 29.2738L27.7351 29.3681C30.2694 29.4435 32.6535 29.4435 35.1879 29.3681L37.0088 29.2738C38.9987 29.1608 40.8947 28.9723 42.6969 28.7461C44.4803 28.52 46.1887 28.2373 47.7468 27.898L49.793 27.4457L47.9345 28.4257C47.5778 28.6142 47.1648 28.8027 46.6955 28.9911C46.2262 29.1796 45.7193 29.3492 45.1374 29.5377C43.2601 30.1219 40.7821 30.6685 37.7973 31.1019C35.2066 31.4789 32.2218 31.7427 28.9178 31.8558C26.4585 31.9312 24.0181 31.9124 21.5589 31.8181C18.4802 31.6862 15.7206 31.4035 13.2989 31.0454C10.5393 30.6308 8.23026 30.1031 6.46563 29.5565C5.18908 29.1608 4.17536 28.7461 3.48077 28.3503C2.69232 27.898 2.24177 27.4457 2.18545 27.0311V26.9745L2.20423 26.918C2.27932 26.6542 2.69232 26.183 3.78113 25.6741C4.47572 25.3537 5.48945 24.9957 6.91617 24.6376L7.06635 24.5999L7.17899 24.6941L7.19776 24.6753ZM2.20423 33.4766V29.0665L2.636 29.3492C2.99268 29.5754 3.40568 29.8015 3.85622 30.0088C4.32554 30.2162 4.8324 30.4235 5.37681 30.6119L5.56454 30.6873V35.7759L4.81363 35.4932L4.79486 35.5121L4.6259 35.4367C3.875 35.1163 3.29304 34.8147 2.89882 34.5132C2.44827 34.1739 2.20423 33.8159 2.20423 33.4955V33.4766ZM5.00136 43.7857V39.3944L5.43313 39.6771C5.78981 39.9033 6.20281 40.1295 6.65335 40.3368C7.12267 40.5441 7.62953 40.7514 8.17394 40.9399L8.36167 41.0153V46.1227L7.98622 45.9719C7.06635 45.6327 6.35299 45.2746 5.8649 44.9353C5.30172 44.5584 5.00136 44.1626 5.00136 43.8046V43.7857ZM48.8919 45.6892V40.9964L49.0796 40.921C49.6241 40.7326 50.1497 40.5252 50.6002 40.3179C51.0508 40.1106 51.4638 39.8845 51.8205 39.6583L52.2522 39.3756V43.7669C52.2522 44.1249 51.9519 44.5207 51.3887 44.8977C50.9006 45.2369 50.1872 45.5761 49.2674 45.9342L48.8919 46.085V45.6704V45.6892ZM52.2522 37.359C52.1959 37.7736 51.7454 38.226 50.9381 38.6594C50.2436 39.0552 49.2298 39.451 47.9533 39.8468C46.1699 40.3933 43.8796 40.921 41.12 41.3356C38.6983 41.6937 35.9388 41.9764 32.86 42.1084C31.4521 42.1649 30.0441 42.1837 28.6362 42.2026C27.2282 42.1837 25.8203 42.1649 24.4123 42.1084C21.3336 41.9764 18.574 41.6937 16.1523 41.3356C13.3928 40.921 11.0837 40.3933 9.31908 39.8468C8.08008 39.4698 7.1039 39.0741 6.40931 38.6971C5.62086 38.2825 5.17031 37.849 5.05767 37.4533L4.90749 36.9255C5.92122 37.2648 6.85985 37.5663 7.89235 37.8302C9.58189 38.2637 11.4967 38.6406 13.5993 38.9421C15.683 39.2437 17.917 39.4698 20.226 39.6018H20.2823C21.0145 39.6395 21.7466 39.6771 22.4787 39.7148C23.2109 39.7337 23.943 39.7525 24.6939 39.7714C26.2896 39.7902 27.8665 39.7525 29.481 39.7148L31.4896 39.6206C32.2593 39.5829 33.029 39.5075 33.7987 39.451C34.6059 39.3756 35.3756 39.3002 36.0889 39.2248H36.164C36.99 39.1306 37.7785 39.0175 38.5669 38.9044C39.3554 38.7914 40.1063 38.6594 40.8197 38.5275L41.9085 38.3202C43.3164 38.0375 44.6305 37.6983 45.7944 37.3213C46.8832 36.9632 47.8406 36.5675 48.6103 36.1528C48.9107 35.9644 49.2486 35.7759 49.5302 35.5686L49.6616 35.6251C50.4313 35.9078 50.9757 36.1717 51.3699 36.3978C51.9894 36.7748 52.2147 37.114 52.2522 37.3025L52.271 37.359L52.2522 37.4156V37.359ZM51.7078 25.071V20.3782L51.8955 20.3029C52.44 20.1144 52.9656 19.9071 53.4161 19.6998C53.8667 19.4925 54.2797 19.2663 54.6364 19.0401L55.0681 18.7574V23.1487C55.0681 23.5068 54.7678 23.9026 54.2046 24.2795C53.7165 24.6187 53.0031 24.958 52.0833 25.316L51.7078 25.4668V25.0522V25.071Z" fill="#F03033"/>
</g>
<defs>
<clipPath id="clip0_1428_399">
<rect width="55.6211" height="50" fill="white" transform="translate(0.90918)"/>
</clipPath>
</defs>
</svg>
