<svg width="50" height="50" viewBox="0 0 50 50" fill="none" xmlns="http://www.w3.org/2000/svg">
<path fill-rule="evenodd" clip-rule="evenodd" d="M46.2199 33.8488H42.6117C42.0962 33.8488 41.7526 34.1924 41.7526 34.7079C41.7526 35.2234 42.0962 35.567 42.6117 35.567H45.3608V48.9691H38.488V37.6289C38.488 37.1134 38.1443 36.7698 37.6289 36.7698C37.1134 36.7698 36.7698 37.1134 36.7698 37.6289V48.9691H29.8969V42.4399C29.8969 41.9244 29.5533 41.5808 29.0378 41.5808C28.5223 41.5808 28.1787 41.9244 28.1787 42.4399V48.9691H21.3058V47.4227C21.3058 46.9072 20.9622 46.5636 20.4467 46.5636C19.9313 46.5636 19.5876 46.9072 19.5876 47.4227V48.9691H15.2921C15.6357 48.4536 15.9794 47.7663 15.9794 47.079L44.6735 30.5842C45.5326 30.0687 46.2199 29.2096 46.5636 28.1787C46.9072 27.1478 46.7354 26.1168 46.2199 25.0859L41.9244 17.6976C41.4089 16.8385 40.5498 16.1512 39.5189 15.8076C38.488 15.4639 37.457 15.6357 36.4261 16.1512L33.3333 17.8694C32.9897 18.0412 32.8179 18.5567 32.9897 18.9003C33.1615 19.244 33.677 19.4158 34.0206 19.244L36.4261 17.8694L43.1271 29.3814L37.2852 32.8179L31.6151 23.0241C31.4433 22.6804 30.9278 22.5086 30.5842 22.6804C30.2406 22.8522 30.0687 23.3677 30.2406 23.7113L35.9107 33.5052L30.0687 36.9416L26.8041 31.2715C26.6323 30.9278 26.1168 30.756 25.7732 30.9278C25.4296 31.0997 25.2577 31.6151 25.4296 31.9588L28.6942 37.6289L22.8522 41.0653L21.9931 39.6907C21.8213 39.3471 21.3058 39.1753 20.9622 39.3471C20.6186 39.5189 20.4467 40.0344 20.6186 40.378L21.4777 41.7526L16.1512 44.8454V44.1581L21.3058 35.2234L34.1924 13.5739C35.2234 11.6838 34.7079 9.27835 32.646 8.0756L25.2577 3.78007C24.3986 3.2646 23.1959 3.09278 22.1649 3.43643C21.134 3.78007 20.2749 4.29553 19.7594 5.32646L18.0412 8.41924C17.8694 8.76289 17.8694 9.27835 18.3849 9.45017C18.7285 9.62199 19.244 9.62199 19.4158 9.10653L20.7904 6.70103L32.3024 13.4021L28.866 19.244L19.0722 13.5739C18.7285 13.4021 18.2131 13.4021 18.0412 13.9175C17.8694 14.2612 17.8694 14.7766 18.3849 14.9485L28.1787 20.6186L24.7423 26.4605L19.0722 23.1959C18.7285 23.0241 18.2131 23.0241 18.0412 23.5395C17.8694 23.8832 17.8694 24.3986 18.3849 24.5704L24.055 27.8351L20.6186 33.677L19.244 32.8179C18.9003 32.646 18.3849 32.646 18.2131 33.1615C18.0412 33.5052 18.0412 34.0206 18.5567 34.1924L19.9313 35.0515L16.4948 40.8935V3.95189C16.4948 1.71821 14.7766 0 12.543 0H3.95189C1.71821 0 0 1.71821 0 3.95189V46.0481C0 48.2818 1.71821 50 3.95189 50H46.0481C48.2818 50 50 48.2818 50 46.0481V37.457C50 35.2234 48.2818 33.5052 46.0481 33.5052L46.2199 33.8488ZM8.41924 39.1753C6.87285 39.1753 5.49828 40.5498 5.49828 42.0962C5.49828 43.6426 6.87285 45.0172 8.41924 45.0172C9.96564 45.0172 11.3402 43.6426 11.3402 42.0962C11.3402 40.5498 9.96564 39.1753 8.41924 39.1753ZM8.41924 43.4708C7.73196 43.4708 7.04467 42.9553 7.04467 42.0962C7.04467 41.4089 7.56014 40.7216 8.41924 40.7216C9.10653 40.7216 9.79381 41.2371 9.79381 42.0962C9.79381 42.7835 9.27835 43.4708 8.41924 43.4708ZM38.6598 17.1821C39.0034 17.1821 39.3471 17.1821 39.6907 17.1821C40.378 17.354 40.8935 17.6976 41.0653 18.2131L45.3608 25.6014C45.7045 26.1168 45.7045 26.8041 45.5326 27.4914C45.3608 27.8351 45.189 28.1787 45.0172 28.3505L38.488 17.0103L38.6598 17.1821ZM22.1649 5.49828C22.5086 5.32646 22.6804 5.15464 23.0241 4.98282C23.7113 4.811 24.2268 4.98282 24.9141 5.15464L32.3024 9.45017C33.1615 9.96564 33.677 10.9966 33.5052 12.0275L22.1649 5.49828ZM15.1203 46.5636C15.1203 47.9381 14.0893 48.9691 12.7148 48.9691H4.12371C2.74914 48.9691 1.71821 47.9381 1.71821 46.5636V4.46735C1.71821 3.09278 2.74914 2.06186 4.12371 2.06186H12.7148C14.0893 2.06186 15.1203 3.09278 15.1203 4.46735V46.5636ZM48.7972 46.5636C48.7972 47.5945 48.11 48.4536 47.2509 48.7972V35.7388C48.11 36.0825 48.7972 36.9416 48.7972 37.9725V46.5636Z" fill="#F03033"/>
</svg>
