<svg width="92" height="30" viewBox="0 0 92 30" fill="none" xmlns="http://www.w3.org/2000/svg">
<g clip-path="url(#clip0_1428_782)">
<path d="M11.4077 0.00341797H12.225C15.0626 0.0651037 17.8538 1.20629 19.8586 3.2265C19.1184 3.98215 18.3627 4.70695 17.6379 5.4626C16.5122 4.44479 15.1551 3.6583 13.6746 3.38071C11.4848 2.91807 9.1253 3.33445 7.29015 4.58358C5.28536 5.8944 3.92828 8.11509 3.63527 10.49C3.31142 12.834 3.97454 15.3015 5.50126 17.1212C6.9663 18.8947 9.20241 20.005 11.5156 20.0821C13.6746 20.2055 15.9262 19.5424 17.4991 18.0311C18.7329 16.967 19.3035 15.3477 19.4885 13.7747C16.9286 13.7747 14.3686 13.7902 11.8086 13.7747V10.5979H22.5882C23.1434 14.0061 22.3415 17.846 19.7507 20.2826C18.0235 22.0098 15.6332 23.0276 13.1966 23.2281C10.8371 23.4594 8.4005 23.0122 6.30318 21.871C3.78948 20.5293 1.7847 18.2624 0.797726 15.5945C-0.127561 13.1425 -0.142982 10.3666 0.720618 7.89919C1.50711 5.64766 3.01841 3.6583 4.96151 2.27037C6.82751 0.897861 9.09446 0.142211 11.4077 0.00341797Z" fill="#232323"/>
<path d="M73.248 0.804688H76.5482V22.8265C75.4533 22.8265 74.343 22.8419 73.248 22.8111C73.2635 15.4859 73.248 8.14529 73.248 0.804688Z" fill="#232323"/>
<path d="M29.9296 8.43807C31.9652 8.05253 34.1705 8.48433 35.8514 9.70263C37.3782 10.7821 38.4423 12.4785 38.7661 14.329C39.1825 16.4726 38.6582 18.8167 37.2702 20.513C35.7743 22.4099 33.3223 23.4277 30.932 23.2735C28.7422 23.1501 26.614 22.0552 25.3186 20.2663C23.8536 18.2924 23.4989 15.5782 24.3008 13.265C25.1027 10.7821 27.3696 8.88529 29.9296 8.43807ZM30.3923 11.3681C29.5595 11.584 28.7884 12.0621 28.2332 12.7406C26.7374 14.5295 26.8299 17.4442 28.48 19.1097C29.4207 20.0658 30.8395 20.513 32.1503 20.2509C33.3686 20.035 34.4327 19.2176 35.0187 18.1381C36.0365 16.303 35.7435 13.7739 34.1859 12.3397C33.1835 11.4144 31.7185 11.0289 30.3923 11.3681Z" fill="#232323"/>
<path d="M46.2763 8.43823C48.6049 7.99101 51.1495 8.63871 52.8921 10.2734C55.7296 12.8179 56.0381 17.5831 53.6169 20.5132C52.1519 22.3638 49.777 23.3816 47.4329 23.2736C45.1968 23.212 42.9916 22.1016 41.6653 20.2665C40.1694 18.2463 39.8456 15.4704 40.6938 13.1109C41.5419 10.7052 43.7626 8.87003 46.2763 8.43823ZM46.739 11.3683C45.9062 11.5842 45.1351 12.0623 44.58 12.7254C43.0995 14.4834 43.1612 17.3518 44.7496 19.0328C45.6903 20.0351 47.1553 20.5286 48.5124 20.251C49.7153 20.0197 50.7948 19.2178 51.3808 18.1383C52.3832 16.2877 52.0902 13.7586 50.5172 12.3244C49.5148 11.3991 48.0498 11.029 46.739 11.3683Z" fill="#232323"/>
<path d="M60.14 9.33266C61.9135 8.22232 64.2729 7.91389 66.1852 8.87002C66.7866 9.13218 67.2801 9.57941 67.7582 10.0266C67.7736 9.61025 67.7582 9.17845 67.7736 8.74665C68.8068 8.76207 69.8401 8.74665 70.8887 8.76207V22.3638C70.8733 24.4148 70.349 26.5893 68.8685 28.0851C67.2493 29.7352 64.7664 30.2441 62.5303 29.9049C60.14 29.5502 58.0581 27.8075 57.1328 25.6023C58.0581 25.1551 59.0296 24.8004 59.9858 24.384C60.5255 25.6485 61.6204 26.728 62.993 26.9748C64.3655 27.2215 65.9539 26.8823 66.8483 25.7411C67.8044 24.569 67.8044 22.9652 67.7582 21.531C67.0488 22.225 66.2315 22.8418 65.2445 23.0732C63.1009 23.6746 60.7414 22.9344 59.0913 21.4848C57.4258 20.0351 56.4388 17.799 56.5314 15.5783C56.5776 13.0647 57.9964 10.6435 60.14 9.33266ZM63.3322 11.3066C62.3915 11.4608 61.5125 11.9851 60.9111 12.71C59.4614 14.4372 59.4614 17.1976 60.9265 18.894C61.7592 19.8963 63.1009 20.4515 64.3963 20.3127C65.6146 20.1894 66.7404 19.4183 67.3418 18.3542C68.3596 16.5499 68.19 14.0979 66.8175 12.5249C65.9693 11.5533 64.6122 11.0753 63.3322 11.3066Z" fill="#232323"/>
<path d="M80.512 10.119C82.3626 8.39182 85.2156 7.8058 87.5905 8.71567C89.842 9.56385 91.2762 11.7074 92.0011 13.9127C88.6546 15.3006 85.3235 16.6731 81.9771 18.0611C82.4397 18.9401 83.1491 19.742 84.1052 20.0659C85.4469 20.5439 87.0508 20.3743 88.1765 19.4798C88.6237 19.1406 88.9784 18.6933 89.3177 18.2615C90.1659 18.8321 91.0141 19.3873 91.8623 19.9579C90.6594 21.7622 88.6392 23.0268 86.4647 23.2273C84.059 23.5203 81.499 22.595 79.9414 20.7136C77.3815 17.7526 77.6282 12.7869 80.512 10.119ZM82.1621 12.972C81.6378 13.7276 81.4219 14.6529 81.4373 15.5628C83.6734 14.6375 85.9096 13.7122 88.1457 12.7715C87.7756 11.9079 86.8811 11.3836 85.9713 11.2448C84.5062 10.9826 82.9795 11.7691 82.1621 12.972Z" fill="#232323"/>
</g>
<defs>
<clipPath id="clip0_1428_782">
<rect width="91.9118" height="30" fill="white" transform="translate(0.0888672)"/>
</clipPath>
</defs>
</svg>
