<svg width="127" height="30" viewBox="0 0 127 30" fill="none" xmlns="http://www.w3.org/2000/svg">
<path fill-rule="evenodd" clip-rule="evenodd" d="M49.8497 21.6855L48.1353 29.6557H44.1924L50.7068 0.770734H55.3776L61.5064 29.6557H57.5206L55.8491 21.6855H49.8497ZM55.3776 18.4712L54.049 11.5703C53.6633 9.5988 53.2776 7.02874 52.9783 4.97083H52.8062C52.5069 7.07088 52.0769 9.72738 51.6926 11.5703L50.3211 18.4712H55.3776ZM76.5567 0V24.2992C76.5567 25.8856 76.6424 28.2 76.7274 29.6564H73.2566L72.9995 27.1285H72.8709C72.1852 28.585 70.5994 30 68.5001 30C64.6429 30 62.2857 25.7992 62.2857 19.329C62.2857 11.9574 65.4136 8.48592 68.7144 8.48592C70.3851 8.48592 71.7137 9.25808 72.4423 10.8431H72.5281V0H76.5567ZM72.5273 16.7568C72.5273 16.3718 72.5273 15.9004 72.4845 15.4704C72.2702 13.5853 71.1987 11.9567 69.7423 11.9567C67.2129 11.9567 66.3565 15.4704 66.3565 19.3283C66.3565 23.6141 67.4708 26.6135 69.6137 26.6135C70.5137 26.6135 71.713 26.1421 72.3988 23.657C72.4845 23.3141 72.5273 22.7991 72.5273 22.3291V16.7568ZM86.1527 29.9993C81.9961 29.9993 78.9953 26.4421 78.9953 19.2862C78.9953 11.6996 82.5519 8.48521 86.3662 8.48521C90.4806 8.48521 93.4371 12.171 93.4371 19.1997C93.4371 27.4714 89.3656 29.9993 86.1948 29.9993H86.1527ZM86.2805 26.8285C88.7656 26.8285 89.3235 22.4141 89.3235 19.2433C89.3235 16.114 88.7663 11.6574 86.1955 11.6574C83.5376 11.6574 83.024 16.114 83.024 19.2433C83.024 22.7141 83.624 26.8285 86.2384 26.8285H86.2805ZM95.8657 0H99.8937V11.1853H99.9794C101.051 9.30022 102.508 8.48521 104.351 8.48521C107.907 8.48521 110.137 12.5139 110.137 18.8997C110.137 26.3563 107.094 29.9993 103.665 29.9993C101.608 29.9993 100.451 28.8843 99.5501 27.0414H99.3801L99.1651 29.6557H95.6943C95.78 28.2421 95.8657 25.8849 95.8657 24.2984V0ZM99.8937 22.2841C99.8937 22.757 99.9366 23.2284 100.065 23.5706C100.707 26.0999 101.951 26.6135 102.764 26.6135C105.165 26.6135 106.065 23.4427 106.065 19.1569C106.065 15.1711 105.122 11.9567 102.722 11.9567C101.393 11.9567 100.322 13.5425 100.022 15.0425C99.9359 15.4711 99.893 16.029 99.893 16.4568V22.2841H99.8937ZM116.081 20.0562C116.124 25.4135 118.438 26.7414 120.881 26.7414C122.338 26.7414 123.581 26.3992 124.481 25.9699L125.081 28.8843C123.838 29.5271 121.952 29.8707 120.109 29.8707C114.881 29.8707 112.138 25.9278 112.138 19.499C112.138 12.6846 115.266 8.48449 119.595 8.48449C123.924 8.48449 125.938 12.6417 125.938 17.8711C125.938 18.899 125.894 19.5426 125.852 20.0991L116.081 20.0562ZM122.124 17.1854C122.166 13.4996 120.881 11.5288 119.296 11.5288C117.195 11.5288 116.252 14.5718 116.124 17.1854H122.124Z" fill="#232323"/>
<path fill-rule="evenodd" clip-rule="evenodd" d="M21.4895 0.847656H33.5234V29.6555L21.4895 0.847656ZM13.0122 0.847656H0.969727V29.6555L13.0122 0.847656ZM17.2515 11.4643L24.9189 29.6555H19.8945L17.6015 23.8618H11.9893L17.2515 11.4643Z" fill="#232323"/>
<path fill-rule="evenodd" clip-rule="evenodd" d="M125.596 8.43141C125.717 8.43196 125.836 8.45643 125.947 8.50339C126.058 8.55034 126.159 8.61887 126.244 8.705C126.329 8.79114 126.395 8.89317 126.44 9.00523C126.485 9.11728 126.507 9.23713 126.506 9.35786C126.506 9.88073 126.102 10.2886 125.592 10.2886C125.085 10.2886 124.673 9.88144 124.673 9.35786C124.672 9.23667 124.696 9.11655 124.741 9.00436C124.787 8.89217 124.855 8.79013 124.94 8.70407C125.025 8.61801 125.127 8.54963 125.239 8.50285C125.35 8.45606 125.47 8.43178 125.592 8.43141H125.596ZM125.592 8.57498C125.184 8.57498 124.85 8.92571 124.85 9.35786C124.85 9.79858 125.184 10.1443 125.596 10.1443C126.007 10.1486 126.337 9.79858 126.337 9.36214C126.337 8.9257 126.007 8.57498 125.596 8.57498H125.592ZM125.419 9.89787H125.254V8.86356C125.341 8.85142 125.424 8.83856 125.547 8.83856C125.704 8.83856 125.806 8.87213 125.868 8.91713C125.93 8.96213 125.963 9.03214 125.963 9.13143C125.963 9.26714 125.872 9.35 125.761 9.38286V9.39072C125.852 9.40715 125.914 9.49 125.934 9.64215C125.959 9.80287 125.983 9.8643 126 9.89787H125.827C125.802 9.8643 125.778 9.77001 125.757 9.63429C125.732 9.50214 125.667 9.45286 125.534 9.45286H125.419V9.89787H125.419ZM125.419 9.325H125.538C125.674 9.325 125.79 9.27571 125.79 9.14785C125.79 9.05713 125.724 8.96642 125.538 8.96642C125.485 8.96642 125.447 8.97071 125.419 8.97499V9.325ZM35.1094 0.847656C35.2302 0.848212 35.3496 0.872672 35.4608 0.91963C35.572 0.966589 35.6729 1.03511 35.7575 1.12125C35.8421 1.20738 35.9088 1.30942 35.9538 1.42148C35.9987 1.53353 36.021 1.65338 36.0194 1.7741C36.0194 2.29697 35.6159 2.70484 35.1051 2.70484C34.5987 2.70484 34.1865 2.29769 34.1865 1.7741C34.1859 1.65292 34.2091 1.53279 34.255 1.4206C34.3008 1.30842 34.3683 1.20637 34.4536 1.12032C34.539 1.03426 34.6404 0.965879 34.7522 0.919091C34.864 0.872303 34.9839 0.84803 35.1051 0.847656H35.1094ZM35.1051 0.991229C34.6973 0.991229 34.3637 1.34195 34.3637 1.7741C34.3637 2.21483 34.6973 2.56055 35.1094 2.56055C35.5209 2.56484 35.8509 2.21483 35.8509 1.77839C35.8509 1.34195 35.5209 0.991229 35.1094 0.991229H35.1051ZM34.9323 2.31412H34.7673V1.27981C34.8641 1.26374 34.962 1.25562 35.0601 1.25552C35.2166 1.25552 35.3194 1.28767 35.3809 1.33338C35.443 1.37838 35.4759 1.4491 35.4759 1.54767C35.4759 1.68339 35.3851 1.76625 35.2737 1.79911V1.80696C35.3644 1.82339 35.4266 1.90625 35.4473 2.05911C35.4716 2.21983 35.4966 2.28126 35.513 2.31483H35.3401C35.3151 2.28126 35.2901 2.18697 35.2701 2.05125C35.2451 1.91911 35.1794 1.86982 35.0473 1.86982H34.9323V2.31412ZM34.9323 1.74125H35.0516C35.1873 1.74125 35.303 1.69196 35.303 1.5641C35.303 1.47338 35.2373 1.38267 35.0516 1.38267C34.998 1.38267 34.9608 1.38696 34.9323 1.39124V1.74125Z" fill="#232323"/>
</svg>
