<svg width="47" height="50" viewBox="0 0 47 50" fill="none" xmlns="http://www.w3.org/2000/svg">
<path d="M35.8025 33.1527V25.8368C35.8025 23.8126 34.9732 21.9796 33.6496 20.6567C32.3259 19.3338 30.4919 18.5049 28.4666 18.5049H14.9909C12.9655 18.5049 11.1316 19.3338 9.80793 20.6567C8.48428 21.9796 7.655 23.8126 7.655 25.8368V34.6988H8.81918V25.8368C8.81918 24.1473 9.50492 22.6012 10.6213 21.4855C11.7376 20.3698 13.2686 19.6844 14.9749 19.6844H16.4102L21.2902 24.5617C21.4018 24.6733 21.5613 24.737 21.7048 24.737C21.8483 24.737 22.0078 24.6733 22.1195 24.5617L26.9994 19.6844H28.4347C30.1411 19.6844 31.6721 20.3698 32.7884 21.4855C33.9047 22.6012 34.5905 24.1313 34.5905 25.8368V33.1527H35.8025ZM19.7911 6.45521C19.7911 6.0408 19.9187 5.65827 20.142 5.3395C20.3174 5.08448 20.5566 4.87727 20.8437 4.73382L20.445 3.61811C19.9346 3.85719 19.5041 4.20784 19.1851 4.65413C18.8183 5.16417 18.611 5.78578 18.611 6.45521V7.04495H19.7752V6.45521H19.7911ZM21.7367 16.3054C23.5228 16.3054 25.1495 15.5722 26.3137 14.4087C27.4938 13.2292 28.2114 11.6194 28.2114 9.83424V6.47115C28.2114 4.68601 27.4778 3.06025 26.3137 1.89672C25.1335 0.717246 23.5228 0 21.7208 0C19.9346 0 18.308 0.733185 17.1438 1.89672C15.9637 3.07619 15.2461 4.68601 15.2461 6.47115V9.83424C15.2461 11.6194 15.9796 13.2451 17.1438 14.4087C18.3239 15.5881 19.9346 16.3054 21.7208 16.3054H21.7367ZM16.4262 6.45521C16.4262 4.98884 17.0162 3.66592 17.989 2.69366C18.9459 1.73733 20.2855 1.13165 21.7527 1.13165C23.2198 1.13165 24.5435 1.72139 25.5163 2.69366C26.4731 3.64998 27.0792 4.98884 27.0792 6.45521V9.8183C27.0792 11.2847 26.4891 12.6076 25.5163 13.5799C24.5594 14.5362 23.2198 15.1419 21.7527 15.1419C20.2855 15.1419 18.9618 14.5521 17.989 13.5799C17.0322 12.6235 16.4262 11.2847 16.4262 9.8183V6.45521ZM39.1834 45.4574H38.0192V46.621H39.1834V45.4574ZM46.1843 37.0418H35.3719L35.3081 37.0099C34.3991 36.5158 33.4263 36.1332 32.4375 35.8623C31.4488 35.6073 30.4122 35.4638 29.3756 35.4479L29.1842 35.4319C28.1157 35.4319 27.0473 35.5595 26.0266 35.8304C24.99 36.0854 24.0013 36.4839 23.0604 36.9939L22.9966 37.0258L16.6654 37.0418C15.8042 37.0418 15.0228 37.3924 14.4646 37.9503C13.9065 38.5081 13.5556 39.2891 13.5556 40.1498C13.5556 40.3251 13.5875 40.4845 13.6035 40.6439L13.6672 40.9627L13.8108 41.4887L5.64561 37.759C5.13529 37.5199 4.57712 37.4243 4.01896 37.4562C3.47674 37.488 2.93452 37.6634 2.45609 37.9822C1.97767 38.285 1.59493 38.7153 1.32382 39.1935C1.05271 39.6717 0.90918 40.2295 0.90918 40.7874V40.9786C0.90918 41.6162 1.0846 42.2219 1.40355 42.7319C1.72251 43.242 2.18499 43.6723 2.7591 43.9592L13.6513 49.4103C14.034 49.6015 14.4487 49.745 14.8793 49.8566C15.3098 49.9522 15.7404 50 16.171 50H46.1525C46.3119 50 46.4555 49.9362 46.5671 49.8247C46.6787 49.7131 46.7425 49.5697 46.7425 49.4103V37.6156C46.7425 37.4562 46.6787 37.3127 46.5671 37.2011C46.4555 37.0896 46.3119 37.0258 46.1525 37.0258L46.1843 37.0418ZM34.3831 48.8365H16.2029C15.8521 48.8365 15.5172 48.7887 15.1823 48.7249C14.8474 48.6452 14.5125 48.5336 14.2095 48.3742L3.31726 42.9232C2.95047 42.7478 2.64747 42.4609 2.44015 42.1262C2.23283 41.7915 2.1212 41.3931 2.1212 40.9946V40.8033C2.1212 40.4367 2.21688 40.0861 2.3923 39.7673C2.56773 39.4485 2.82289 39.1776 3.12589 38.9863C3.4289 38.7791 3.79569 38.6675 4.14654 38.6516C4.49738 38.6197 4.86418 38.6835 5.19908 38.8428L14.7836 43.226L14.8952 43.2579L15.0228 43.2738H24.0332V42.1103H16.7132C16.2029 42.1103 15.7245 41.9031 15.3736 41.5684C15.0228 41.2337 14.7995 40.7714 14.7836 40.2455V40.1498C14.7836 39.6238 15.0068 39.1297 15.3577 38.7791C15.7085 38.4284 16.187 38.2053 16.7292 38.2053H23.1879L23.3315 38.1894C23.3793 38.1734 23.4272 38.1575 23.475 38.1256L23.6823 38.014C24.5275 37.5518 25.4366 37.2011 26.3615 36.9621C27.2865 36.723 28.2433 36.5955 29.2161 36.5955L29.3916 36.6114C30.2846 36.6273 31.1777 36.7389 32.0388 36.9461C32.9 37.1533 33.7452 37.4721 34.5586 37.8865L34.7021 37.9503V48.8046H34.4469L34.3831 48.8365ZM35.8184 48.8365V38.2212H45.6102V48.8365H35.8184ZM29.9178 27.7813H28.7536V33.1686H29.9178V27.7813ZM14.7517 27.7813H13.5875V34.8422H14.7517V27.7813ZM21.5772 23.1431L18.1166 19.6844H25.4047L21.7686 23.3185L21.5932 23.1431H21.5772Z" fill="#F03033"/>
</svg>
