<svg width="126" height="40" viewBox="0 0 126 40" fill="none" xmlns="http://www.w3.org/2000/svg">
<g clip-path="url(#clip0_1516_245)">
<path fill-rule="evenodd" clip-rule="evenodd" d="M-0.000428115 3.81381C-0.000428115 5.7696 1.19077 8.17359 1.74529 9.82379C2.56681 12.2889 2.09444 13.9187 3.12133 16.1801C4.72329 19.725 7.24945 21.2937 11.09 21.8641C11.7472 21.966 12.3223 21.803 12.8152 22.1086C11.5008 22.4142 10.5355 22.842 8.54334 22.5364C6.28417 22.1901 5.23674 22.9642 5.23674 25.4294C5.23674 29.0557 6.34578 33.0284 7.55752 36.0232C7.82451 36.6751 8.02989 37.3474 8.37903 37.8364C9.30324 39.1199 10.3096 39.9144 11.3981 39.9959H11.7267C12.4455 39.9552 13.2054 39.5681 13.9653 38.7939C14.2529 38.5087 14.5609 38.2438 14.7869 37.9586C15.5468 37.0215 16.2656 35.9213 16.9023 34.862L17.5389 33.7211C17.7443 33.3136 17.8881 32.9469 18.0935 32.5191C18.4837 31.7245 18.7917 30.9096 19.0998 30.0947C19.8597 27.9963 20.1472 26.9369 20.7428 24.8793C20.9893 24.0033 21.2563 22.5568 21.6671 22.2716C22.5913 22.9439 21.934 26.6517 23.0431 27.4463C23.5976 27.3036 23.7414 26.3665 23.7414 25.7757C23.7414 25.7757 21.9135 21.2529 23.1252 16.2616C23.1869 15.9967 23.2895 15.6912 23.3101 15.4671C23.3512 15.1003 23.3306 14.8355 23.3922 14.4688C23.5976 13.2057 22.9815 14.1021 22.3037 13.4705C22.0983 13.2872 22.0367 13.1446 21.8724 12.9205C21.3179 12.2482 20.9893 11.6981 20.6812 10.8832C20.3937 10.1498 20.1678 9.11074 20.0651 8.25508C19.9419 7.17532 20.291 7.46054 19.8803 7.17532C19.5311 7.44017 19.8392 8.68291 19.9419 9.17186C20.1883 10.5776 20.5991 11.5147 21.359 12.6556C21.5233 12.9001 21.6876 13.1242 21.8519 13.3483C22.0573 13.6131 22.2627 13.7557 22.4475 14.0206C21.4206 15.5282 22.5913 15.0189 22.3448 16.0782H22.1394C21.6671 14.1021 18.5864 9.39596 17.2309 7.74576C15.5673 5.70848 13.534 4.03791 11.2749 2.69331C10.782 2.38772 10.3096 2.18399 9.77561 1.91914C8.31742 1.18572 4.57952 -0.0773926 2.81326 -0.0773926C0.636247 -0.0773926 -0.0415039 1.91914 -0.0415039 3.73232L-0.000428115 3.81381Z" fill="#F03033"/>
<path fill-rule="evenodd" clip-rule="evenodd" d="M43.2732 21.1307C43.2732 19.0934 43.0884 16.7098 44.3412 15.1411C44.6698 14.7336 45.2243 14.428 45.7788 14.2243C46.8879 13.8169 48.2639 13.8983 49.4962 13.8983C54.4253 13.8983 53.8707 17.5451 54.1788 19.5212C54.302 20.275 54.0556 22.3938 53.8502 23.2087C53.3984 24.92 52.4536 25.7757 50.5436 26.0813C49.6399 26.2239 47.4835 26.1831 46.703 26.0609C45.5118 25.8572 44.6287 25.3886 44.1152 24.5329C43.5813 23.6569 43.2937 22.4957 43.2937 21.1511L43.2732 21.1307ZM39.8228 19.073C39.8228 21.9049 39.7407 24.6756 41.5685 26.7332C43.6634 29.0965 47.3192 28.7705 50.4615 28.7705C51.591 28.7705 52.8233 28.4853 53.6243 28.2C57.506 26.8147 57.547 22.679 57.547 19.0934C57.547 13.878 55.1646 11.2703 49.8659 11.2703C47.2781 11.2703 44.2385 11.0869 42.2052 12.7575C41.5069 13.3279 41.3837 13.4298 40.8908 14.2854C40.1514 15.5078 39.8228 17.5247 39.8228 19.0934V19.073Z" fill="#232323"/>
<path fill-rule="evenodd" clip-rule="evenodd" d="M77.0995 21.1307C77.0995 19.0934 76.9147 16.8117 78.1264 15.2022C79.2149 13.7558 81.5973 13.8984 83.3225 13.8984C86.1773 13.8984 87.5123 15.1207 87.8614 17.6266C88.19 20.0306 88.1284 23.0254 87.0604 24.6552C86.5059 25.4905 85.6022 25.8979 84.37 26.1017C83.5074 26.2443 81.2687 26.2239 80.5294 26.0609C77.9621 25.5516 77.0995 23.8199 77.0995 21.1511V21.1307ZM73.6492 19.1749C73.6492 22.0067 73.5876 24.6959 75.3949 26.7332C77.4692 29.0557 81.0223 28.7705 84.103 28.7705C86.28 28.7705 88.2105 28.2001 89.6482 26.7332C91.4145 24.9404 91.3939 21.7011 91.3939 19.0731C91.3939 13.6131 88.7856 11.2499 83.7127 11.2499C81.1044 11.2499 78.0854 11.0665 76.0521 12.7371C75.0047 13.6131 74.5323 14.3262 74.1215 15.7115C73.8135 16.7098 73.6697 17.9118 73.6697 19.1749H73.6492Z" fill="#232323"/>
<path fill-rule="evenodd" clip-rule="evenodd" d="M93.3652 14.3873V28.5668H96.7129V14.9782C96.7129 14.4892 97.1237 14.1021 97.596 14.1021H103.716C106.386 14.1021 105.606 18.8082 104.969 19.4602C103.675 20.8455 98.6845 18.8694 98.6845 21.1307C98.6845 22.5161 99.3418 22.9032 100.533 24.0848L104.969 28.4038C105.318 28.6891 106.222 28.5668 106.982 28.5668C107.742 28.5668 108.502 28.5668 109.241 28.5668C108.892 28.0371 108.214 27.5889 107.639 27.0185L103.552 23.2495C103.285 22.9847 102.854 22.6791 102.731 22.3939C103.634 22.3939 104.579 22.4142 105.503 22.3939C106.242 22.3735 107.064 21.966 107.495 21.6197C108.995 20.4381 108.953 17.7692 108.953 15.9357C108.953 13.2465 107.434 11.4333 104.805 11.4333H95.9325C95.111 11.4333 94.3716 11.7796 93.9814 12.2482C93.5501 12.7575 93.3652 13.4706 93.3652 14.367V14.3873Z" fill="#232323"/>
<path fill-rule="evenodd" clip-rule="evenodd" d="M110.72 15.0596C110.72 16.9136 110.658 18.1767 112.219 19.4398C112.917 20.0102 114.704 20.4992 115.628 20.764C116.778 21.0696 118.072 21.5789 119.222 21.9049C121.872 22.6383 122.057 22.9032 122.057 24.5737C122.057 25.9998 121.009 25.9387 119.592 25.9387H107.762C107.885 26.4073 108.522 26.7333 109.077 27.2833C109.508 27.7111 109.795 27.8945 110.001 28.3223C110.124 28.5668 110.001 28.689 110.329 28.689H121.461C124.398 28.689 125.61 26.8962 125.61 24.2885C125.61 23.168 125.363 21.803 124.562 21.0289L124.254 20.7437C124.008 20.5399 123.843 20.4177 123.556 20.2751C122.057 19.5417 118.442 18.5638 116.922 18.0544C115.217 17.484 114.067 17.5451 114.067 15.5893C114.067 14.5911 114.725 14.1225 115.751 14.1225H126V11.474H113.965C113.636 11.474 112.897 11.6981 112.65 11.8204C112.424 11.9426 111.788 12.3908 111.623 12.5742C111.13 13.1039 110.72 14.1021 110.72 15.1004V15.0596Z" fill="#232323"/>
<path fill-rule="evenodd" clip-rule="evenodd" d="M23.5572 19.562C23.5572 22.8217 23.6598 25.5109 26.3914 27.5074C27.5415 28.3427 29.3899 28.6483 30.9508 28.6483H38.1391V25.9184H31.6286C27.7264 25.9184 26.987 23.5755 26.987 20.2547C26.987 17.4025 27.4594 14.5707 30.5606 14.204C33.21 13.8984 37.1943 14.0818 40.1107 14.0818C40.3366 13.2057 41.5073 12.2482 42.2877 11.7389L42.6779 11.4537C40.4393 11.4537 30.5195 11.3111 29.164 11.5555C25.2207 12.2278 23.5366 14.9985 23.5366 19.5824L23.5572 19.562Z" fill="#232323"/>
<path fill-rule="evenodd" clip-rule="evenodd" d="M60.0322 26.8962C60.0322 27.5889 60.4019 28.0371 60.8743 28.302C61.4904 28.6483 61.9833 28.5668 62.887 28.5668H76.4831C76.3804 28.4853 76.4625 28.5464 76.3188 28.4446C76.2366 28.3834 76.2366 28.3834 76.1339 28.3223C75.9491 28.2205 75.8464 28.1593 75.7026 28.0778C75.0865 27.6908 73.998 26.6925 73.8337 26.0202H65.3515C64.4273 26.0202 63.2772 26.1221 63.2772 25.246V11.4536H60.0322V26.8962V26.8962Z" fill="#232323"/>
<path fill-rule="evenodd" clip-rule="evenodd" d="M96.22 34.923C96.22 34.047 96.1378 33.5988 96.3226 32.8654C96.9799 32.5598 98.0889 32.5802 98.0889 33.1506C98.0889 35.7583 98.397 35.4935 96.6102 35.4935C96.3021 35.4935 96.22 35.2082 96.22 34.9027V34.923ZM95.5217 33.171C95.5217 35.1064 95.1725 36.1046 96.8977 36.1046C97.4112 36.1046 97.7398 35.9824 98.0889 35.8194C98.0889 36.6343 98.2121 36.8584 97.7603 37.0622C97.2468 37.3066 96.2816 37.1233 95.727 37.0825C95.727 37.816 95.7681 37.6937 97.3085 37.6937C98.2327 37.6937 98.8899 37.3474 98.8899 36.4306V32.3153C98.705 32.3153 98.6023 32.3153 98.4175 32.3357C98.397 32.3357 98.3559 32.3561 98.3354 32.3561L98.1094 32.4172C98.1094 32.4172 95.5422 31.6023 95.5422 33.1913L95.5217 33.171Z" fill="#F03033"/>
<path fill-rule="evenodd" clip-rule="evenodd" d="M108.338 35.4121C107.947 35.4936 106.571 35.7584 106.571 35.1269C106.571 32.7229 106.304 32.6821 107.557 32.6821C107.906 32.6821 108.112 32.7636 108.338 32.8858C108.461 33.4155 108.543 34.9639 108.338 35.4324V35.4121ZM105.77 33.4563C105.77 35.188 105.483 36.1047 107.352 36.1047C107.783 36.1047 108.153 35.9621 108.44 35.8195C108.44 37.6735 107.824 37.0826 106.078 37.0826C106.078 37.8161 105.935 37.6735 107.762 37.6735C108.399 37.6735 109.139 37.3475 109.139 36.6956V32.295L108.276 32.3358C107.742 32.2543 108.584 32.1932 107.064 32.1932C106.222 32.1932 105.791 32.621 105.791 33.4563H105.77Z" fill="#F03033"/>
<path fill-rule="evenodd" clip-rule="evenodd" d="M66.4399 35.1064C66.4399 32.9266 66.1935 32.6617 67.2204 32.6617C68.5964 32.6617 68.3089 32.9673 68.3089 35.1064C68.3089 35.6769 66.4399 35.6769 66.4399 35.1064V35.1064ZM68.3089 31.582C68.3089 32.0709 68.391 32.0098 68.4116 32.458C67.5901 32.0302 65.6595 31.8672 65.6595 33.1507C65.6595 35.0046 65.3103 36.0843 67.1382 36.0843C67.7133 36.0843 68.083 35.9214 68.4116 35.6973V35.9825H69.1099V30.6041H68.3294V31.582H68.3089Z" fill="#F03033"/>
<path fill-rule="evenodd" clip-rule="evenodd" d="M74.4294 33.0488C74.4294 32.4988 76.1135 32.4988 76.1135 33.0488V33.7415H74.4294V33.0488ZM73.649 33.2526C73.649 34.8213 73.2793 36.0844 75.3331 36.0844C75.826 36.0844 76.4216 35.9825 76.8118 35.8807C76.8118 34.9639 76.5859 35.4936 75.3331 35.4936C74.2856 35.4936 74.4499 35.025 74.4499 34.3119H76.9145C76.9145 32.5191 76.9761 32.1524 74.9428 32.1524C74.224 32.1524 73.6695 32.5395 73.6695 33.2322L73.649 33.2526Z" fill="#F03033"/>
<path fill-rule="evenodd" clip-rule="evenodd" d="M62.2092 35.0046C62.2092 34.0674 62.2092 34.2304 63.8933 34.2304C63.8933 35.901 63.9959 35.4935 62.3118 35.4935C62.2502 35.2694 62.2092 35.2694 62.2092 35.0046V35.0046ZM61.7162 32.458V32.7432C63.6468 32.7432 63.8933 32.1931 63.8933 33.7211C62.5378 33.7211 61.4287 33.4766 61.4287 34.9027C61.4287 36.2473 62.7226 36.1455 63.5852 35.9621C63.9959 35.8806 64.0165 35.9825 64.6942 35.9825C64.6942 31.8264 65.0845 32.1728 62.0243 32.1728C61.7984 32.1728 61.7368 32.2339 61.7368 32.458H61.7162Z" fill="#F03033"/>
<path fill-rule="evenodd" clip-rule="evenodd" d="M110.905 33.3544C110.905 33.0896 110.946 33.0895 111.007 32.8654C111.747 32.5191 112.034 32.7228 112.589 32.7636L112.692 33.7415H110.925V33.3544H110.905ZM110.206 33.1507C110.206 34.3934 110.001 35.3713 110.679 35.8195C111.357 36.2473 112.568 36.064 113.267 35.901V35.3102C112.979 35.4528 110.905 35.9214 110.905 34.7194V34.3323C113.842 34.3323 113.472 34.5768 113.472 33.4563C113.472 32.0709 112.404 32.1931 111.5 32.1931C110.843 32.1931 110.227 32.5395 110.227 33.171L110.206 33.1507Z" fill="#F03033"/>
<path fill-rule="evenodd" clip-rule="evenodd" d="M102.341 35.0046C102.341 34.0674 102.341 34.2304 104.025 34.2304C104.025 35.901 104.127 35.4935 102.443 35.4935C102.402 35.2694 102.341 35.2694 102.341 35.0046V35.0046ZM101.848 32.458V32.7432C104.107 32.5599 104.025 32.4987 104.025 33.7211C102.854 33.7211 101.56 33.497 101.56 34.8009C101.56 36.8178 103.819 35.8399 104.086 35.8806L104.189 35.9214C104.209 35.9214 104.23 35.9417 104.251 35.9417C104.497 36.0029 104.538 35.9825 104.805 35.9825C104.805 31.8264 105.195 32.1728 102.135 32.1728C101.909 32.1728 101.848 32.2339 101.848 32.458V32.458Z" fill="#F03033"/>
<path fill-rule="evenodd" clip-rule="evenodd" d="M114.458 32.2747V35.9825C115.32 35.9825 115.259 36.0436 115.259 35.2083C115.238 33.3544 114.971 32.6618 116.142 32.6618C116.347 32.6618 116.778 32.784 116.922 32.8655C116.922 33.4155 116.922 33.9656 116.922 34.536C116.922 35.9621 116.696 36.0029 117.703 36.0029C117.703 32.5803 118.052 32.1932 116.121 32.1932C115.69 32.1932 115.423 32.3969 115.32 32.3969L114.437 32.295L114.458 32.2747Z" fill="#F03033"/>
<path fill-rule="evenodd" clip-rule="evenodd" d="M91.1885 32.2746V35.9825H91.9689V33.1507C91.9689 32.5191 93.2628 32.6821 93.653 32.8654C93.8584 33.7415 93.7557 35.0453 93.7557 36.0029H94.454V33.0692C94.454 31.6023 92.0921 32.3969 91.9689 32.3765L91.1885 32.295V32.2746Z" fill="#F03033"/>
<path fill-rule="evenodd" clip-rule="evenodd" d="M122.735 37.5511H123.515C123.597 37.1844 123.823 36.6751 123.967 36.2473L125.384 32.2746H124.603C124.501 32.7431 124.336 33.2321 124.172 33.7007C124.008 34.1692 123.967 34.8619 123.618 35.1064C123.577 34.6989 123.33 34.0877 123.186 33.6803C123.022 33.1913 122.837 32.7431 122.735 32.2746H121.954C121.995 32.7228 122.242 33.171 122.406 33.5784C122.591 34.0674 123.351 35.7991 123.248 36.1861L122.735 37.5307V37.5511Z" fill="#F03033"/>
<path fill-rule="evenodd" clip-rule="evenodd" d="M85.376 33.0487C85.376 34.7193 86.2386 34.0877 87.6351 34.4137V35.3916C86.5877 35.6361 86.3207 35.3916 85.4581 35.3916V35.9824C86.8136 35.9824 88.4156 36.5936 88.4156 34.6174C88.4156 33.5173 87.0395 33.8432 86.1564 33.6395C86.1564 32.1727 86.6493 32.7227 88.2307 32.7635V32.1727C87.286 32.1727 85.376 31.9486 85.376 33.0487V33.0487Z" fill="#F03033"/>
<path fill-rule="evenodd" clip-rule="evenodd" d="M80.9398 31.9894C80.9398 32.3765 80.6933 32.2747 80.0566 32.2747V32.7636H80.9398C80.9398 35.2695 80.5701 36.0844 82.3158 36.0844C82.665 36.0844 82.706 36.0029 83.0141 35.9825V35.4936C81.4943 35.4936 81.6381 36.0233 81.6381 32.7636H83.0141V32.2747C81.3916 32.2747 81.6381 32.5191 81.6381 31.093H80.9398V31.9691V31.9894Z" fill="#F03033"/>
<path fill-rule="evenodd" clip-rule="evenodd" d="M70.9789 35.9824H71.8621C72.088 35.4935 72.2933 34.7397 72.4987 34.1692C72.7246 33.5173 72.9916 32.9469 73.1559 32.2746H72.4576C72.2112 32.7635 71.7594 34.923 71.3691 35.2083C71.287 34.3322 70.5476 33.1506 70.486 32.2746H69.7056C69.7466 32.8043 70.8146 35.2897 70.9789 35.9824V35.9824Z" fill="#F03033"/>
<path fill-rule="evenodd" clip-rule="evenodd" d="M118.688 33.6395C118.688 35.2897 118.463 36.4306 121.091 36.0232C121.646 35.9417 121.646 36.0435 121.646 35.3916C120.968 35.412 120.619 35.6361 119.572 35.3916C119.387 34.6378 119.469 34.0266 119.469 33.1506C119.469 32.3764 121.215 32.7024 121.543 32.8654V32.2746C120.927 32.132 119.325 31.9894 118.914 32.6005C118.771 32.8246 118.688 33.2932 118.688 33.6395V33.6395Z" fill="#F03033"/>
<path fill-rule="evenodd" clip-rule="evenodd" d="M78.5782 32.5598V32.2745H77.8799V35.9824H78.6603C78.6603 32.8246 78.3112 32.7635 79.9337 32.7635V32.1727C79.1532 32.1727 79.2148 32.1319 78.5576 32.5598H78.5782Z" fill="#F03033"/>
<path fill-rule="evenodd" clip-rule="evenodd" d="M83.6919 35.9824H84.4929V32.2746H83.6919V35.9824Z" fill="#F03033"/>
<path fill-rule="evenodd" clip-rule="evenodd" d="M89.3193 35.9824H90.0998V32.2746H89.3193V35.9824Z" fill="#F03033"/>
<path fill-rule="evenodd" clip-rule="evenodd" d="M83.6919 31.6838H84.1848C84.4107 31.6838 84.4723 31.6227 84.4723 31.3986V30.9096H83.6919V31.6838Z" fill="#F03033"/>
<path fill-rule="evenodd" clip-rule="evenodd" d="M89.3193 31.6838H89.8122C90.0382 31.6838 90.0998 31.6227 90.0998 31.3986V30.9096H89.3193V31.6838Z" fill="#F03033"/>
</g>
<defs>
<clipPath id="clip0_1516_245">
<rect width="126" height="40" fill="white"/>
</clipPath>
</defs>
</svg>
