<svg width="30" height="30" viewBox="0 0 30 30" fill="none" xmlns="http://www.w3.org/2000/svg">
<path fill-rule="evenodd" clip-rule="evenodd" d="M0.000488281 14.9343C0.000488281 23.0753 6.70365 29.6769 14.9755 29.6769C23.2458 29.6769 29.9506 23.0753 29.9506 14.9343C29.9506 6.79324 23.2458 0.193237 14.9755 0.193237C6.70365 0.193237 0.000488281 6.79324 0.000488281 14.9343ZM10.0108 27.375C4.96297 25.4281 1.38603 20.5934 1.38603 14.9344C1.38603 7.55445 7.46202 1.57497 14.9576 1.57497C22.4531 1.57497 28.5291 7.55445 28.5291 14.9344C28.5291 22.3129 22.4531 28.2939 14.9576 28.2939C13.5573 28.2939 12.2083 28.0855 10.9395 27.6971C11.4913 26.8097 12.319 25.3555 12.6253 24.195C12.7905 23.5697 13.4706 21.0197 13.4706 21.0197C13.9134 21.8502 15.2062 22.5544 16.5824 22.5544C20.6743 22.5544 23.624 18.8487 23.624 14.2444C23.624 9.83129 19.9653 6.52813 15.2575 6.52813C9.40127 6.52813 6.29109 10.3997 6.29109 14.6139C6.29109 16.5718 7.34974 19.0129 9.04358 19.7897C9.30182 19.9066 9.43977 19.8544 9.49911 19.6097C9.5173 19.5349 9.56571 19.3416 9.62371 19.11C9.70898 18.7696 9.81496 18.3464 9.87606 18.0955C9.90814 17.9597 9.8921 17.8444 9.78142 17.7118C9.22002 17.0423 8.7725 15.8108 8.7725 14.6629C8.7725 11.7166 11.039 8.86497 14.8998 8.86497C18.2346 8.86497 20.5684 11.1008 20.5684 14.2997C20.5684 17.9139 18.7142 20.4181 16.3017 20.4181C14.9704 20.4181 13.9727 19.335 14.2919 18.0039C14.4304 17.4301 14.6156 16.8399 14.7956 16.2661C15.114 15.2516 15.4163 14.2882 15.4163 13.556C15.4163 12.5297 14.8565 11.6739 13.7 11.6739C12.3366 11.6739 11.2443 13.0602 11.2443 14.9187C11.2443 16.1013 11.6501 16.9018 11.6501 16.9018C11.6501 16.9018 10.3043 22.4992 10.0589 23.5413C9.78623 24.6971 9.8921 26.3187 10.0108 27.375Z" fill="white"/>
</svg>
