<svg width="120" height="30" viewBox="0 0 120 30" fill="none" xmlns="http://www.w3.org/2000/svg">
<g clip-path="url(#clip0_1428_772)">
<path fill-rule="evenodd" clip-rule="evenodd" d="M38.4346 23.6214L39.9142 20.1832C41.5123 21.3782 43.6417 21.9995 45.7425 21.9995C47.2932 21.9995 48.2749 21.4019 48.2749 20.4962C48.2512 17.9638 38.9847 19.9461 38.9135 13.5961C38.8898 10.3713 41.7542 7.88631 45.8136 7.88631C48.2275 7.88631 50.6366 8.48384 52.3581 9.84489L50.9733 13.3542C49.3988 12.3488 47.4403 11.6327 45.5765 11.6327C44.3103 11.6327 43.4757 12.2303 43.4757 12.9938C43.4994 15.4788 52.837 14.1177 52.9319 20.1832C52.9319 23.4791 50.1386 25.7981 46.1266 25.7981C43.1864 25.7933 40.488 25.101 38.4346 23.6214ZM95.2525 18.9407C94.5126 20.2306 93.1279 21.1127 91.525 21.1127C89.1586 21.1127 87.2521 19.2015 87.2521 16.8398C87.2521 14.4781 89.1633 12.567 91.525 12.567C93.1231 12.567 94.5126 13.4491 95.2525 14.739L99.3356 12.4721C97.8086 9.75004 94.8683 7.88631 91.525 7.88631C86.5787 7.88631 82.5667 11.8983 82.5667 16.8446C82.5667 21.7908 86.5787 25.8028 91.525 25.8028C94.892 25.8028 97.8086 23.9628 99.3356 21.217L95.2525 18.9407ZM54.9853 0.455078H60.0975V25.4614H54.9853V0.455078ZM101.342 0.455078V25.4614H106.454V17.959L112.519 25.4614H119.064L111.348 16.5505L118.49 8.23724H112.23L106.449 15.1373V0.455078H101.342Z" fill="#232323"/>
<path d="M75.2874 18.9884C74.5476 20.2072 73.0205 21.1129 71.2991 21.1129C68.9326 21.1129 67.0262 19.2018 67.0262 16.8401C67.0262 14.4784 68.9374 12.5673 71.2991 12.5673C73.0205 12.5673 74.5476 13.5205 75.2874 14.763V18.9884ZM75.2874 8.24225V10.272C74.4527 8.8635 72.3756 7.88184 70.1988 7.88184C65.7078 7.88184 62.1748 11.8464 62.1748 16.8164C62.1748 21.7864 65.7078 25.7984 70.1988 25.7984C72.3708 25.7984 74.448 24.8215 75.2874 23.4082V25.438H80.3996V8.24225H75.2874Z" fill="#232323"/>
<path fill-rule="evenodd" clip-rule="evenodd" d="M6.8366 18.9647C6.8366 20.7099 5.42813 22.1183 3.68295 22.1183C1.93777 22.1183 0.529297 20.7051 0.529297 18.9647C0.529297 17.2243 1.93777 15.811 3.68295 15.811H6.8366V18.9647ZM8.41106 18.9647C8.41106 17.2195 9.81953 15.811 11.5647 15.811C13.3099 15.811 14.7184 17.2195 14.7184 18.9647V26.8465C14.7184 28.5916 13.3099 30.0001 11.5647 30.0001C9.81953 30.0001 8.41106 28.5916 8.41106 26.8465V18.9647Z" fill="#232323"/>
<path fill-rule="evenodd" clip-rule="evenodd" d="M11.565 6.3073C9.8198 6.3073 8.41133 4.89883 8.41133 3.15365C8.41133 1.40847 9.8198 0 11.565 0C13.3102 0 14.7186 1.40847 14.7186 3.15365V6.3073H11.565ZM11.565 7.90547C13.3102 7.90547 14.7186 9.31394 14.7186 11.0591C14.7186 12.8043 13.3102 14.2128 11.565 14.2128H3.65951C1.91433 14.2128 0.505859 12.7996 0.505859 11.0591C0.505859 9.31868 1.91433 7.90547 3.65951 7.90547H11.565Z" fill="#232323"/>
<path fill-rule="evenodd" clip-rule="evenodd" d="M24.1982 11.0591C24.1982 9.31394 25.6066 7.90547 27.3518 7.90547C29.097 7.90547 30.5055 9.31394 30.5055 11.0591C30.5055 12.8043 29.097 14.2128 27.3518 14.2128H24.1982V11.0591ZM22.6237 11.0591C22.6237 12.8043 21.2152 14.2128 19.4701 14.2128C17.7249 14.2128 16.3164 12.8043 16.3164 11.0591V3.15365C16.3164 1.40847 17.7249 0 19.4701 0C21.2152 0 22.6237 1.40847 22.6237 3.15365V11.0591Z" fill="#232323"/>
<path fill-rule="evenodd" clip-rule="evenodd" d="M19.4701 23.6928C21.2152 23.6928 22.6237 25.1013 22.6237 26.8465C22.6237 28.5916 21.2152 30.0001 19.4701 30.0001C17.7249 30.0001 16.3164 28.5916 16.3164 26.8465V23.6928H19.4701ZM19.4701 22.1183C17.7249 22.1183 16.3164 20.7099 16.3164 18.9647C16.3164 17.2195 17.7249 15.811 19.4701 15.811H27.3755C29.1207 15.811 30.5292 17.2195 30.5292 18.9647C30.5292 20.7099 29.1207 22.1183 27.3755 22.1183H19.4701Z" fill="#232323"/>
</g>
<defs>
<clipPath id="clip0_1428_772">
<rect width="118.558" height="30" fill="white" transform="translate(0.505859)"/>
</clipPath>
</defs>
</svg>
