<svg width="101" height="30" viewBox="0 0 101 30" fill="none" xmlns="http://www.w3.org/2000/svg">
<g clip-path="url(#clip0_1428_780)">
<path d="M15.0644 0C6.78032 0 0.0644531 6.71568 0.0644531 14.9997C0.0644531 23.2847 6.78032 30 15.0644 30C23.3488 30 30.0643 23.2847 30.0643 14.9997C30.0643 6.71621 23.3491 0.000715925 15.0642 0.000715925L15.0644 0ZM21.9432 21.6339C21.6738 22.0758 21.0981 22.2143 20.6577 21.945C17.1353 19.7922 12.7018 19.3059 7.48048 20.4987C6.97734 20.614 6.47581 20.2986 6.36118 19.7956C6.246 19.2925 6.55999 18.7909 7.06439 18.6763C12.7783 17.37 17.6795 17.9323 21.6332 20.3482C22.0738 20.6187 22.2135 21.1936 21.943 21.6343L21.9432 21.6339ZM23.7792 17.5502C23.4399 18.1006 22.7202 18.2733 22.1705 17.9353C18.1395 15.4574 11.9927 14.7396 7.22363 16.1873C6.60513 16.3741 5.95189 16.0255 5.76417 15.4081C5.57789 14.7896 5.92664 14.1376 6.54406 13.9496C11.9916 12.2967 18.7637 13.0973 23.3939 15.9426C23.9438 16.2811 24.1175 17.0012 23.779 17.5504L23.7792 17.5502ZM23.9368 13.2972C19.1017 10.4258 11.1262 10.1617 6.51054 11.5626C5.76936 11.7874 4.98554 11.369 4.76092 10.6278C4.53631 9.88625 4.95437 9.10296 5.6961 8.87763C10.9946 7.26916 19.8028 7.57992 25.3687 10.8841C26.0353 11.2798 26.2541 12.1408 25.8589 12.8066C25.4648 13.4733 24.6015 13.693 23.937 13.2972H23.9368ZM40.8742 13.8475C38.2844 13.2299 37.8233 12.7964 37.8233 11.8856C37.8233 11.0251 38.6335 10.446 39.8382 10.446C41.0061 10.446 42.1641 10.8857 43.3781 11.791C43.4149 11.8184 43.4609 11.8293 43.5062 11.8222C43.5515 11.8154 43.5916 11.7905 43.6182 11.753L44.8827 9.97044C44.9347 9.897 44.9205 9.7958 44.8505 9.73973C43.4055 8.5803 41.7784 8.01661 39.8766 8.01661C37.0802 8.01661 35.1269 9.69477 35.1269 12.0959C35.1269 14.6707 36.8118 15.5824 39.7236 16.2862C42.2019 16.857 42.6201 17.3353 42.6201 18.1902C42.6201 19.1375 41.7743 19.7265 40.4132 19.7265C38.9015 19.7265 37.6684 19.2173 36.289 18.0227C36.2548 17.9931 36.2079 17.9797 36.1645 17.9822C36.1188 17.986 36.0771 18.0071 36.0481 18.0421L34.6302 19.7295C34.5707 19.7996 34.5782 19.9042 34.647 19.9647C36.2519 21.3975 38.2258 22.1543 40.3559 22.1543C43.3692 22.1543 45.3164 20.5078 45.3164 17.9595C45.3218 15.8083 44.0339 14.6171 40.8796 13.8498L40.8742 13.8475ZM52.1336 11.2932C50.8275 11.2932 49.7562 11.8077 48.8728 12.8618V11.6753C48.8728 11.5816 48.7968 11.5053 48.7033 11.5053H46.3843C46.2906 11.5053 46.2148 11.5816 46.2148 11.6753V24.8588C46.2148 24.9524 46.2906 25.0287 46.3843 25.0287H48.7033C48.7968 25.0287 48.8728 24.9524 48.8728 24.8588V20.6973C49.7564 21.6889 50.8279 22.1734 52.1336 22.1734C54.5605 22.1734 57.0173 20.3052 57.0173 16.7339C57.0209 13.1618 54.5634 11.293 52.1363 11.293L52.1336 11.2932ZM54.3207 16.7339C54.3207 18.5525 53.2004 19.8216 51.5964 19.8216C50.0107 19.8216 48.8146 18.4949 48.8146 16.7339C48.8146 14.9732 50.0107 13.6463 51.5964 13.6463C53.1745 13.6461 54.3208 14.9444 54.3208 16.7338L54.3207 16.7339ZM63.3142 11.2932C60.1888 11.2932 57.7402 13.6999 57.7402 16.7728C57.7402 19.8123 60.1719 22.1936 63.2759 22.1936C66.4124 22.1936 68.8685 19.7951 68.8685 16.7339C68.8685 13.6834 66.4289 11.2936 63.314 11.2936L63.3142 11.2932ZM63.3142 19.8397C61.6518 19.8397 60.3985 18.504 60.3985 16.733C60.3985 14.9546 61.6085 13.664 63.2759 13.664C64.949 13.664 66.2107 14.9997 66.2107 16.7719C66.2107 18.55 64.9927 19.8397 63.3144 19.8397H63.3142ZM75.5426 11.5053H72.9907V8.89627C72.9907 8.80277 72.9151 8.72647 72.8214 8.72647H70.5027C70.4089 8.72647 70.3328 8.80277 70.3328 8.89627V11.5053H69.2178C69.1244 11.5053 69.0488 11.5816 69.0488 11.6753V13.6683C69.0488 13.7618 69.1244 13.8383 69.2178 13.8383H70.3328V18.9953C70.3328 21.0794 71.37 22.136 73.4157 22.136C74.2476 22.136 74.9377 21.9642 75.5881 21.5954C75.6409 21.5658 75.6737 21.5089 75.6737 21.4484V19.5504C75.6737 19.4918 75.6432 19.4365 75.5931 19.4059C75.5426 19.3742 75.4797 19.3725 75.428 19.3982C74.9812 19.623 74.5494 19.7267 74.0667 19.7267C73.3226 19.7267 72.9907 19.3888 72.9907 18.6317V13.8392H75.5426C75.6363 13.8392 75.7117 13.7629 75.7117 13.6692V11.6764C75.7153 11.5827 75.64 11.5064 75.5451 11.5064L75.5426 11.5053ZM84.434 11.5155V11.1951C84.434 10.2524 84.7955 9.83198 85.6062 9.83198C86.0896 9.83198 86.478 9.92798 86.9129 10.0731C86.9664 10.0899 87.0223 10.0815 87.0658 10.0494C87.1106 10.0174 87.1359 9.96595 87.1359 9.9115V7.95732C87.1359 7.88262 87.0879 7.81653 87.0159 7.7945C86.5564 7.65782 85.9686 7.51758 85.0884 7.51758C82.9465 7.51758 81.8143 8.72376 81.8143 11.0045V11.4953H80.7001C80.6066 11.4953 80.53 11.5716 80.53 11.6651V13.6683C80.53 13.7618 80.6066 13.8383 80.7001 13.8383H81.8143V21.7928C81.8143 21.8864 81.8898 21.9627 81.9834 21.9627H84.3024C84.3961 21.9627 84.4724 21.8864 84.4724 21.7928V13.8389H86.6376L89.9543 21.7914C89.5778 22.6269 89.2075 22.7932 88.7021 22.7932C88.2935 22.7932 87.8633 22.6712 87.4233 22.4304C87.382 22.4077 87.3329 22.4039 87.2883 22.4177C87.244 22.4333 87.2068 22.4663 87.188 22.5093L86.402 24.2336C86.3646 24.3151 86.3966 24.4108 86.4751 24.4531C87.2956 24.8974 88.0363 25.0871 88.9518 25.0871C90.6641 25.0871 91.6106 24.2895 92.4449 22.1437L96.4681 11.7476C96.4884 11.6953 96.4823 11.6362 96.4502 11.5898C96.4183 11.5438 96.3669 11.516 96.3107 11.516H93.8965C93.8242 11.516 93.7595 11.5621 93.7358 11.63L91.2628 18.694L88.554 11.6253C88.5293 11.5596 88.4658 11.516 88.3956 11.516H84.4335L84.434 11.5155ZM79.279 11.5053H76.96C76.8663 11.5053 76.79 11.5816 76.79 11.6753V21.7928C76.79 21.8865 76.8663 21.9628 76.96 21.9628H79.279C79.3725 21.9628 79.449 21.8865 79.449 21.7928V11.676C79.449 11.6536 79.4447 11.6315 79.4361 11.6108C79.4276 11.5902 79.4151 11.5714 79.3992 11.5556C79.3834 11.5398 79.3646 11.5273 79.344 11.5188C79.3233 11.5103 79.3012 11.5059 79.2788 11.506L79.279 11.5053ZM78.1326 6.89857C77.214 6.89857 76.4685 7.64225 76.4685 8.56096C76.4685 9.4802 77.2141 10.2248 78.1327 10.2248C79.051 10.2248 79.7958 9.4802 79.7958 8.56096C79.7958 7.64244 79.0506 6.89857 78.1336 6.89857H78.1326ZM98.4483 14.7583C97.5305 14.7583 96.8163 14.0212 96.8163 13.1261C96.8163 12.2311 97.5398 11.4856 98.4569 11.4856C99.3747 11.4856 100.089 12.2225 100.089 13.1168C100.089 14.0119 99.3652 14.7583 98.4481 14.7583H98.4483ZM98.4572 11.6479C97.6213 11.6479 96.9888 12.3124 96.9888 13.1261C96.9888 13.9395 97.6168 14.5951 98.4488 14.5951C99.2846 14.5951 99.9178 13.9311 99.9178 13.1168C99.9178 12.3035 99.289 11.6479 98.4579 11.6479H98.4572ZM98.8191 13.2847L99.2807 13.9309H98.8914L98.4759 13.338H98.1185V13.9309H97.7927V12.2178H98.5567C98.9547 12.2178 99.2164 12.4215 99.2164 12.7643C99.2181 13.0452 99.0552 13.2168 98.8205 13.2847H98.8191V13.2847ZM98.5432 12.5118H98.1183V13.0536H98.5432C98.7553 13.0536 98.8819 12.9499 98.8819 12.7824C98.8819 12.6062 98.7547 12.5118 98.5434 12.5118H98.5432V12.5118Z" fill="#232323"/>
</g>
<defs>
<clipPath id="clip0_1428_780">
<rect width="100.024" height="30" fill="white" transform="translate(0.0644531)"/>
</clipPath>
</defs>
</svg>
