<svg width="52" height="50" viewBox="0 0 52 50" fill="none" xmlns="http://www.w3.org/2000/svg">
<g clip-path="url(#clip0_1458_816)">
<path fill-rule="evenodd" clip-rule="evenodd" d="M51.5151 27.468C51.2776 25.1261 50.6488 22.8407 49.6568 20.7386C48.6648 18.6365 47.3235 16.6896 45.6608 15.0249C44.2776 13.6282 42.7267 12.4573 41.0919 11.5544C39.3873 10.6091 37.5849 9.93195 35.7406 9.52282L35.5171 9.46639V6.39087L35.7406 6.33444C36.4392 6.16514 37.054 5.74191 37.4731 5.1917C37.8923 4.6556 38.1438 3.96431 38.1438 3.2166C38.1438 2.3278 37.7805 1.52365 37.2077 0.945228C36.6348 0.366805 35.8384 0 34.9582 0H27.6228C26.7426 0 25.9462 0.366805 25.3733 0.945228C24.8005 1.52365 24.4372 2.3278 24.4372 3.2166C24.4372 3.96431 24.6887 4.64149 25.1078 5.1917C25.541 5.74191 26.1418 6.16514 26.8404 6.33444L27.0639 6.39087V9.46639L26.8404 9.52282C24.9961 9.93195 23.1937 10.6232 21.503 11.5544C19.8683 12.4573 18.3314 13.6141 16.9481 15.0108C16.6408 15.3212 16.3334 15.6456 16.0679 15.956C15.7745 16.2946 15.509 16.6191 15.2436 16.9577L15.1457 17.0705C12.7286 16.9718 10.1158 17.0564 7.67068 17.0564C7.4611 17.0564 7.27946 17.1411 7.15371 17.268C7.02796 17.395 6.94413 17.5925 6.94413 17.79C6.94413 18.0017 7.02796 18.1851 7.15371 18.312C7.27946 18.439 7.47507 18.5236 7.67068 18.5236H14.1258L13.8743 18.961C13.511 19.5817 13.1757 20.2166 12.8823 20.8656C12.5889 21.5145 12.3234 22.1917 12.0859 22.8689L12.016 23.0664H0.726549C0.516967 23.0664 0.33533 23.151 0.209581 23.278C0.0838325 23.405 0 23.6025 0 23.8C0 24.0116 0.0838325 24.195 0.209581 24.322C0.33533 24.449 0.530939 24.5336 0.726549 24.5336H11.5968L11.513 24.8863C11.3733 25.5212 11.2475 26.1701 11.1777 26.8191C11.0938 27.468 11.038 28.1311 11.024 28.7801L11.01 29.0622H6.23155C6.02197 29.0622 5.84033 29.1469 5.71459 29.2739C5.58884 29.4008 5.505 29.5983 5.505 29.7958C5.505 30.0075 5.58884 30.1909 5.71459 30.3178C5.84033 30.4448 6.03594 30.5295 6.23155 30.5295H11.038L11.0519 30.7975C11.0938 31.4606 11.1637 32.1095 11.2755 32.7585C11.3733 33.4075 11.513 34.0564 11.6807 34.6913L11.7785 35.0581H4.8064C4.59682 35.0581 4.41518 35.1427 4.28943 35.2697C4.16368 35.3967 4.07985 35.5942 4.07985 35.7917C4.07985 36.0033 4.16368 36.1867 4.28943 36.3137C4.41518 36.4407 4.61079 36.5253 4.8064 36.5253H12.2535L12.3234 36.7087C12.8264 38.049 13.4691 39.3328 14.2515 40.5602C15.02 41.7452 15.9142 42.8739 16.9481 43.9319C18.6108 45.5967 20.525 46.9651 22.6208 47.9668C24.7166 48.9685 26.9661 49.6033 29.2995 49.8431C29.6208 49.8714 29.9562 49.8996 30.2915 49.9137C30.6129 49.9278 30.9482 49.9419 31.2975 49.9419C33.2676 49.9419 35.2236 49.6597 37.0819 49.0954C38.9402 48.5452 40.7286 47.7129 42.3774 46.6407C42.545 46.5278 42.6568 46.3585 42.6987 46.1751C42.7406 45.9917 42.7127 45.7942 42.6009 45.6249L42.5869 45.6108C42.4752 45.4415 42.3075 45.3286 42.1259 45.2863C41.9442 45.244 41.7486 45.2722 41.5809 45.3851C37.8783 47.8257 33.547 48.7709 29.3554 48.3336C25.1637 47.8963 21.1258 46.0481 17.9961 42.888C14.3214 39.1776 12.491 34.3104 12.491 29.4431C12.491 24.5759 14.3214 19.7087 17.9961 15.9983C21.6707 12.288 26.4911 10.4398 31.3115 10.4398C36.1318 10.4398 40.9522 12.288 44.6269 15.9983C47.7566 19.1585 49.573 23.2357 50.0201 27.4539C50.4672 31.6722 49.5171 36.0456 47.1139 39.7842V39.7983C47.0021 39.9676 46.9742 40.1651 47.0161 40.3485C47.058 40.5319 47.1698 40.7012 47.3374 40.8141L47.3514 40.8282C47.5191 40.927 47.7147 40.9552 47.8824 40.927C48.064 40.8846 48.2317 40.7718 48.3434 40.6025C49.587 38.6697 50.4951 36.5253 51.0261 34.2963C51.557 32.0672 51.7247 29.7253 51.5011 27.4257L51.5151 27.468ZM0.740521 35.1145C0.642716 35.1145 0.544912 35.1286 0.461079 35.171C0.377246 35.2133 0.293414 35.2697 0.223553 35.3261C0.153693 35.3967 0.0978046 35.4813 0.0698605 35.566C0.0279442 35.6506 0.0139721 35.7494 0.0139721 35.8481C0.0139721 35.9469 0.0279442 36.0456 0.0698605 36.1303C0.111777 36.2149 0.167665 36.2996 0.223553 36.3701C0.293414 36.4407 0.377246 36.4971 0.461079 36.5253C0.544912 36.5676 0.642716 36.5817 0.740521 36.5817C0.838326 36.5817 0.93613 36.5676 1.01996 36.5253C1.1038 36.483 1.18763 36.4266 1.25749 36.3701C1.32735 36.2996 1.38324 36.2149 1.41118 36.1303C1.4531 36.0456 1.46707 35.9469 1.46707 35.8481C1.46707 35.7494 1.4531 35.6506 1.41118 35.566C1.36926 35.4813 1.31338 35.3967 1.25749 35.3261C1.18763 35.2556 1.1038 35.1992 1.01996 35.171C0.93613 35.1286 0.838326 35.1145 0.740521 35.1145ZM31.2975 38.8108C31.0879 38.8108 30.9063 38.8954 30.7805 39.0224C30.6548 39.1494 30.5709 39.3469 30.5709 39.5444V40.5037C30.5709 40.7153 30.6548 40.8988 30.7805 41.0257C30.9063 41.1527 31.1019 41.2373 31.2975 41.2373C31.5071 41.2373 31.6887 41.1527 31.8145 41.0257C31.9402 40.8988 32.024 40.7012 32.024 40.5037V39.5444C32.024 39.3328 31.9402 39.1494 31.8145 39.0224C31.6887 38.8954 31.4931 38.8108 31.2975 38.8108ZM31.3254 20.1884C31.535 20.1884 31.7166 20.1037 31.8424 19.9768C31.9681 19.8498 32.052 19.6523 32.052 19.4548V18.4954C32.052 18.2838 31.9681 18.1004 31.8424 17.9734C31.7027 17.8465 31.521 17.7618 31.3254 17.7618C31.1158 17.7618 30.9342 17.8465 30.8085 17.9734C30.6827 18.1004 30.5989 18.2979 30.5989 18.4954V19.4548C30.5989 19.6664 30.6827 19.8498 30.8085 19.9768C30.9342 20.1037 31.1298 20.1884 31.3254 20.1884ZM21.3633 28.7378H20.4132C20.2036 28.7378 20.022 28.8224 19.8963 28.9494C19.7705 29.0763 19.6867 29.2739 19.6867 29.4714C19.6867 29.683 19.7705 29.8664 19.8963 29.9934C20.022 30.1203 20.2176 30.205 20.4132 30.205H21.3633C21.5729 30.205 21.7545 30.1203 21.8803 29.9934C22.006 29.8664 22.0899 29.6689 22.0899 29.4714C22.0899 29.2597 22.006 29.0763 21.8803 28.9494C21.7406 28.8224 21.5589 28.7378 21.3633 28.7378ZM42.2097 28.766H41.2596C41.05 28.766 40.8684 28.8506 40.7426 28.9776C40.6169 29.1046 40.533 29.3021 40.533 29.4996C40.533 29.7112 40.6169 29.8946 40.7426 30.0216C40.8684 30.1485 41.064 30.2332 41.2596 30.2332H42.2097C42.4193 30.2332 42.6009 30.1485 42.7267 30.0216C42.8524 29.8946 42.9362 29.6971 42.9362 29.4996C42.9362 29.288 42.8524 29.1046 42.7267 28.9776C42.6009 28.8506 42.4053 28.766 42.2097 28.766ZM37.9622 21.7261L32.7646 26.9743L32.5829 26.8896C32.3873 26.7909 32.1777 26.7203 31.9681 26.6639C31.7586 26.6216 31.535 26.5934 31.3115 26.5934C31.0879 26.5934 30.8643 26.6216 30.6548 26.6639C30.4452 26.7203 30.2356 26.7909 30.04 26.8896L29.8584 26.9743L27.4552 24.5477C27.3154 24.4066 27.1198 24.3361 26.9382 24.3361C26.7566 24.3361 26.5609 24.4066 26.4212 24.5477C26.2815 24.6888 26.2116 24.8863 26.2116 25.0697C26.2116 25.2531 26.2815 25.4506 26.4212 25.5917L28.8244 28.0183L28.7406 28.2017C28.6428 28.3992 28.5729 28.6108 28.517 28.8224C28.4751 29.034 28.4472 29.2597 28.4472 29.4855C28.4472 30.2896 28.7685 31.0091 29.2855 31.5452C29.8025 32.0672 30.529 32.3917 31.3254 32.3917C32.1218 32.3917 32.8344 32.0672 33.3654 31.5452C33.8823 31.0232 34.2037 30.2896 34.2037 29.4855C34.2037 29.2597 34.1757 29.034 34.1338 28.8224C34.0779 28.5967 34.0081 28.3851 33.9103 28.2017L33.8125 28.0183L39.0101 22.7701C39.1498 22.629 39.2197 22.4315 39.2197 22.2481C39.2197 22.0647 39.1498 21.8672 39.0101 21.7261C38.8704 21.5851 38.6747 21.5145 38.4931 21.5145C38.3115 21.5145 38.1159 21.5851 37.9761 21.7261H37.9622ZM31.3115 30.9104C30.9202 30.9104 30.5709 30.7552 30.3055 30.4871C30.054 30.2332 29.8863 29.8664 29.8863 29.4714C29.8863 29.0763 30.04 28.7236 30.3055 28.4556C30.557 28.2017 30.9202 28.0324 31.3115 28.0324C31.7027 28.0324 32.052 28.1875 32.3174 28.4556C32.5689 28.7095 32.7366 29.0763 32.7366 29.4714C32.7366 29.8664 32.5829 30.2191 32.3174 30.4871C32.0659 30.7411 31.7027 30.9104 31.3115 30.9104ZM31.3115 13.8116C27.036 13.8116 23.1518 15.5751 20.3434 18.4108C17.535 21.2465 15.7885 25.1685 15.7885 29.4855C15.7885 33.8025 17.535 37.7245 20.3434 40.5602C23.1518 43.3958 27.036 45.1593 31.3115 45.1593C35.5869 45.1593 39.4712 43.3958 42.2795 40.5602C45.0879 37.7245 46.8344 33.8025 46.8344 29.4855C46.8344 25.1685 45.0879 21.2465 42.2795 18.4108C39.4712 15.5751 35.5869 13.8116 31.3115 13.8116ZM31.3115 43.678C27.4412 43.678 23.9202 42.0838 21.3773 39.5162C18.8344 36.9485 17.2555 33.3934 17.2555 29.4855C17.2555 25.5776 18.8344 22.0224 21.3773 19.4548C23.9202 16.8871 27.4412 15.2929 31.3115 15.2929C35.1817 15.2929 38.7027 16.8871 41.2456 19.4548C43.7885 22.0224 45.3674 25.5776 45.3674 29.4855C45.3674 33.3934 43.7885 36.9485 41.2456 39.5162C38.7027 42.0838 35.1817 43.678 31.3115 43.678ZM45.1438 42.7187C45.046 42.7187 44.9482 42.7328 44.8644 42.7751C44.7806 42.8174 44.6967 42.8739 44.6269 42.9303C44.557 43.0008 44.5011 43.0855 44.4732 43.1701C44.4313 43.2548 44.4173 43.3535 44.4173 43.4523C44.4173 43.551 44.4313 43.6498 44.4732 43.7344C44.5151 43.8191 44.557 43.9037 44.6269 43.9743C44.6967 44.0448 44.7806 44.1012 44.8644 44.1295C44.9482 44.1718 45.046 44.1859 45.1438 44.1859C45.2416 44.1859 45.3394 44.1718 45.4233 44.1295C45.5071 44.0871 45.5909 44.0307 45.6608 43.9743C45.7307 43.9037 45.7865 43.8191 45.8145 43.7344C45.8564 43.6498 45.8704 43.551 45.8704 43.4523C45.8704 43.3535 45.8564 43.2548 45.8145 43.1701C45.7726 43.0855 45.7167 43.0008 45.6608 42.9303C45.5909 42.8597 45.5071 42.8033 45.4233 42.7751C45.3394 42.7328 45.2416 42.7187 45.1438 42.7187ZM25.9043 3.20249C25.9043 2.72282 26.0999 2.29958 26.4073 1.9751C26.7146 1.66473 27.1478 1.46722 27.6228 1.46722H34.9582C35.4332 1.46722 35.8524 1.66473 36.1737 1.9751C36.4811 2.28548 36.6767 2.72282 36.6767 3.20249C36.6767 3.68216 36.4811 4.10539 36.1737 4.42987C35.8664 4.74025 35.4332 4.93776 34.9582 4.93776H27.6228C27.1478 4.93776 26.7286 4.74025 26.4073 4.42987C26.0999 4.1195 25.9043 3.68216 25.9043 3.20249ZM28.531 8.85975V6.40498H34.036V9.18423L33.7147 9.14191C32.9043 9.04315 32.0939 9.00083 31.2835 9.00083C30.4731 9.00083 29.6628 9.05726 28.8524 9.15602L28.531 9.19834V8.87386V8.85975Z" fill="#F03033"/>
</g>
<defs>
<clipPath id="clip0_1458_816">
<rect width="51.6129" height="50" fill="white"/>
</clipPath>
</defs>
</svg>
