<svg width="51" height="50" viewBox="0 0 51 50" fill="none" xmlns="http://www.w3.org/2000/svg">
<g clip-path="url(#clip0_1428_379)">
<path fill-rule="evenodd" clip-rule="evenodd" d="M13.4397 16.3289C13.6351 16.3895 13.8454 16.3743 14.0107 16.2834C14.176 16.1925 14.3112 16.0411 14.3863 15.8442C15.1677 13.4509 16.6702 11.4516 18.5935 10.058C20.5168 8.66452 22.8758 7.86173 25.37 7.86173C28.5555 7.86173 31.4404 9.16437 33.5289 11.2698C35.6175 13.3752 36.9247 16.2986 36.9247 19.4946C36.9247 24.4325 34.731 27.371 32.988 29.7339C32.3569 30.5821 31.7709 31.3546 31.3502 32.1423C30.9445 32.9147 30.6741 33.6872 30.6741 34.5355L30.659 35.1262H26.1063V32.627C26.1063 32.4149 26.0161 32.2331 25.8959 32.0968C25.7607 31.9605 25.5804 31.8848 25.37 31.8848C25.1597 31.8848 24.9794 31.9756 24.8441 32.0968C24.7089 32.2331 24.6338 32.4149 24.6338 32.627V35.1262H20.081V34.5506C20.081 32.8542 19.0142 31.4152 17.7821 29.749C17.136 28.8857 16.4448 27.9617 15.8288 26.9014C15.2127 25.8411 14.6568 24.6294 14.2962 23.2207C14.2511 23.0238 14.1159 22.8572 13.9506 22.7663C13.7853 22.6754 13.59 22.63 13.3796 22.6906C13.1843 22.736 13.019 22.8723 12.9289 23.039C12.8387 23.2056 12.7936 23.4025 12.8537 23.5994L12.8688 23.6297C13.6651 26.7045 15.2879 28.8705 16.5801 30.6276L16.5951 30.6427C17.151 31.3849 17.6469 32.0514 18.0075 32.6724C18.3831 33.3237 18.6085 33.9296 18.6085 34.5355L18.6236 35.2171C18.8039 37.989 18.278 42.2453 18.6837 44.3961C18.8489 45.1686 19.1344 45.9108 19.5401 46.5924C19.9458 47.2589 20.4567 47.8648 21.0577 48.3798C21.6737 48.8948 22.3649 49.2886 23.1012 49.5612C23.8374 49.8339 24.6188 49.9702 25.4151 49.9702C26.2115 49.9702 26.9928 49.8339 27.7291 49.5612C28.4653 49.2886 29.1565 48.8948 29.7725 48.3798C30.3736 47.8799 30.8844 47.274 31.2901 46.5924C31.6958 45.926 31.9813 45.1686 32.1466 44.3961C32.5372 42.215 32.0264 37.9284 32.2067 35.2171L32.2217 34.5355C32.2217 33.9296 32.4471 33.3237 32.8227 32.6724C33.1833 32.0514 33.6792 31.3849 34.2201 30.6427L34.2351 30.6276C36.0232 28.2192 38.4723 24.9323 38.4723 19.4946C38.4723 15.8745 37.0149 12.5876 34.6558 10.2095C32.2968 7.83144 29.0363 6.36219 25.4452 6.36219C22.6204 6.36219 19.9759 7.271 17.7971 8.84628C15.6335 10.4216 13.9356 12.6785 13.0641 15.3746C13.004 15.5715 13.019 15.7836 13.1092 15.9502C13.1993 16.1168 13.3496 16.2683 13.5449 16.3289H13.4397ZM13.8003 19.5097C13.8003 19.2977 13.7102 19.1159 13.59 18.9796C13.4548 18.8433 13.2744 18.7524 13.0641 18.7524C12.8537 18.7524 12.6734 18.8433 12.5382 18.9644C12.403 19.1007 12.3128 19.2825 12.3128 19.4946C12.3128 19.7066 12.403 19.8884 12.5382 20.0247C12.6734 20.161 12.8537 20.2368 13.0641 20.2368C13.2744 20.2368 13.4548 20.1459 13.59 20.0247C13.7252 19.8884 13.8003 19.7066 13.8003 19.4946V19.5097ZM25.355 27.9466C25.1447 27.9466 24.9643 28.0374 24.8291 28.1586C24.6939 28.2949 24.6037 28.4767 24.6037 28.6888C24.6037 28.9008 24.6939 29.0826 24.8291 29.2189C24.9643 29.3552 25.1447 29.431 25.355 29.431C25.5654 29.431 25.7457 29.3401 25.8809 29.2189C26.0161 29.0826 26.0913 28.9008 26.0913 28.6888C26.0913 28.4767 26.0011 28.2949 25.8809 28.1586C25.7457 28.0223 25.5654 27.9314 25.355 27.9314V27.9466ZM41.3573 20.2519H43.9567C44.167 20.2519 44.3473 20.161 44.4826 20.0399C44.6178 19.9035 44.6929 19.7218 44.6929 19.5097C44.6929 19.2977 44.6028 19.1159 44.4826 18.9796C44.3473 18.8433 44.167 18.7675 43.9567 18.7675H41.3573C41.1469 18.7675 40.9666 18.8584 40.8314 18.9796C40.6961 19.1159 40.621 19.2977 40.621 19.5097C40.621 19.7218 40.7112 19.9035 40.8314 20.0399C40.9666 20.1762 41.1469 20.2519 41.3573 20.2519ZM36.8195 31.0668C36.6693 31.2183 36.6092 31.4001 36.6092 31.597C36.6092 31.7939 36.6843 31.9756 36.8195 32.1271L38.6677 33.9902C38.7428 34.0659 38.8179 34.1114 38.9081 34.1568C38.9982 34.1871 39.0884 34.2174 39.1936 34.2174C39.2837 34.2174 39.3889 34.2022 39.4791 34.1568C39.5692 34.1265 39.6443 34.0659 39.7195 33.9902C39.8697 33.8387 39.9298 33.6569 39.9298 33.46C39.9298 33.2631 39.8547 33.0814 39.7195 32.9299L37.8713 31.0668C37.7211 30.9154 37.5408 30.8548 37.3454 30.8548C37.1501 30.8548 36.9698 30.9305 36.8195 31.0668ZM36.6693 8.84628C36.7594 8.84628 36.8646 8.83114 36.9548 8.7857C37.0449 8.7554 37.12 8.69481 37.1952 8.61908L39.0433 6.75601C39.1936 6.60454 39.2537 6.42277 39.2537 6.22586C39.2537 6.02895 39.1785 5.84719 39.0433 5.69572C38.8931 5.54425 38.7127 5.48366 38.5174 5.48366C38.3221 5.48366 38.1418 5.5594 37.9915 5.69572L36.1434 7.55879C35.9931 7.71026 35.933 7.89203 35.933 8.08894C35.933 8.28585 36.0081 8.46761 36.1434 8.61908C36.2185 8.69481 36.2936 8.74025 36.3838 8.7857C36.4739 8.81599 36.5791 8.84628 36.6693 8.84628ZM11.5165 34.2022C11.6066 34.2022 11.7118 34.1871 11.8019 34.1416C11.8921 34.1114 11.9672 34.0508 12.0423 33.975L13.8905 32.112C14.0407 31.9605 14.1009 31.7787 14.1009 31.5818C14.1009 31.3849 14.0257 31.2031 13.8905 31.0517C13.7402 30.9002 13.5599 30.8245 13.3646 30.8245C13.1693 30.8245 12.989 30.9002 12.8387 31.0365L10.9906 32.8996C10.8403 33.0511 10.7802 33.2328 10.7802 33.4297C10.7802 33.6267 10.8553 33.8084 10.9906 33.9599C11.0657 34.0356 11.1408 34.0811 11.231 34.1265C11.3211 34.1568 11.4113 34.1871 11.5165 34.1871V34.2022ZM13.5149 8.61908C13.59 8.69481 13.6651 8.74025 13.7553 8.7857C13.8454 8.81599 13.9356 8.84628 14.0407 8.84628C14.1309 8.84628 14.2361 8.83114 14.3262 8.7857C14.4164 8.7554 14.4915 8.69481 14.5666 8.61908C14.7169 8.46761 14.777 8.28585 14.777 8.08894C14.777 7.89203 14.7019 7.71026 14.5666 7.55879L12.7185 5.69572C12.5682 5.54425 12.3879 5.48366 12.1926 5.48366C11.9973 5.48366 11.817 5.5594 11.6667 5.69572C11.5165 5.84719 11.4563 6.02895 11.4563 6.22586C11.4563 6.42277 11.5315 6.60454 11.6667 6.75601L13.5149 8.61908ZM29.6072 21.494C29.6072 21.2819 29.5171 21.1001 29.3969 20.9638C29.2617 20.8275 29.0814 20.7518 28.871 20.7518H21.8691C21.6587 20.7518 21.4784 20.8426 21.3432 20.9638C21.2079 21.1001 21.1328 21.2819 21.1328 21.494C21.1328 21.706 21.223 21.8878 21.3432 22.0241C21.4784 22.1604 21.6587 22.2362 21.8691 22.2362H24.6338V24.7354C24.6338 24.9475 24.7239 25.1292 24.8441 25.2655C24.9794 25.4019 25.1597 25.4776 25.37 25.4776C25.5804 25.4776 25.7607 25.3867 25.8959 25.2655C26.0312 25.1292 26.1063 24.9475 26.1063 24.7354V22.2362H28.871C29.0814 22.2362 29.2617 22.1453 29.3969 22.0241C29.5321 21.8878 29.6072 21.706 29.6072 21.494ZM6.75334 20.2519H9.35277C9.56313 20.2519 9.74343 20.161 9.87866 20.0399C10.0139 19.9035 10.089 19.7218 10.089 19.5097C10.089 19.2977 9.99887 19.1159 9.87866 18.9796C9.74343 18.8433 9.56313 18.7675 9.35277 18.7675H6.75334C6.54299 18.7675 6.36268 18.8584 6.22745 18.9796C6.09222 19.1159 6.01709 19.2977 6.01709 19.5097C6.01709 19.7218 6.10724 19.9035 6.22745 20.0399C6.36268 20.1762 6.54299 20.2519 6.75334 20.2519ZM25.37 4.12044C25.5804 4.12044 25.7607 4.02956 25.8959 3.90838C26.0312 3.77206 26.1063 3.5903 26.1063 3.37824V0.757824C26.1063 0.545767 26.0161 0.364004 25.8959 0.227682C25.7607 0.0913596 25.5804 0.015625 25.37 0.015625C25.1597 0.015625 24.9794 0.106507 24.8441 0.227682C24.7089 0.364004 24.6338 0.545767 24.6338 0.757824V3.37824C24.6338 3.5903 24.7239 3.77206 24.8441 3.90838C24.9794 4.04471 25.1597 4.12044 25.37 4.12044ZM25.37 48.5009C24.3333 48.5009 23.3566 48.1828 22.5152 47.6527C21.6737 47.1074 20.9675 46.3046 20.5168 45.3655L20.3515 45.0323H30.3585L30.1932 45.3655C29.7425 46.3198 29.0513 47.1074 28.1948 47.6527C27.3534 48.198 26.3767 48.5009 25.34 48.5009H25.37ZM30.3736 43.5176H20.1111V40.8214H30.5989V43.5176H30.3585H30.3736ZM30.3736 39.3219H20.1111V36.6257H30.5989V39.3219H30.3585H30.3736Z" fill="#F03033"/>
</g>
<defs>
<clipPath id="clip0_1428_379">
<rect width="38.7097" height="50" fill="white" transform="translate(6)"/>
</clipPath>
</defs>
</svg>
