<svg width="60" height="50" viewBox="0 0 60 50" fill="none" xmlns="http://www.w3.org/2000/svg">
<g clip-path="url(#clip0_1428_586)">
<path d="M58.5546 37.2227H55.6603V32.5726C55.6603 32.2683 55.5288 32.0076 55.3314 31.7903C55.1341 31.5947 54.8491 31.4643 54.5421 31.4643H5.64683C5.33986 31.4643 5.05482 31.5947 4.85749 31.7903C4.66015 31.9859 4.52859 32.2683 4.52859 32.5726V37.2227H1.63435C1.32738 37.2227 1.04234 37.3531 0.845005 37.5486C0.64767 37.7442 0.516113 38.0267 0.516113 38.3309V48.8698C0.516113 49.174 0.64767 49.4565 0.845005 49.6521C1.04234 49.8477 1.32738 49.978 1.63435 49.978H58.4888C58.7958 49.978 59.0808 49.8477 59.2781 49.6521C59.4755 49.4565 59.607 49.174 59.607 48.8698V38.3309C59.607 38.0267 59.4755 37.7442 59.2781 37.5486C59.0808 37.3531 58.7958 37.2227 58.4888 37.2227H58.5546ZM39.8297 13.407H30.1383C29.8313 13.407 29.5463 13.5373 29.349 13.7329C29.1516 13.9285 29.0201 14.211 29.0201 14.5152C29.0201 14.8194 29.1516 15.1019 29.349 15.2975C29.5463 15.493 29.8313 15.6234 30.1383 15.6234H39.8297C40.1366 15.6234 40.3997 15.493 40.619 15.2975C40.8163 15.1019 40.9479 14.8194 40.9479 14.5152C40.9479 14.211 40.8163 13.9502 40.619 13.7329C40.4217 13.5373 40.1366 13.407 39.8297 13.407ZM40.1805 24.7716C39.8735 24.7716 39.5885 24.902 39.3911 25.0975C39.1938 25.2931 39.0622 25.5756 39.0622 25.8798V28.1614C39.0622 28.4656 39.1938 28.7264 39.3911 28.9437C39.5885 29.1393 39.8735 29.2696 40.1805 29.2696C40.4874 29.2696 40.7725 29.1393 40.9698 28.9437C41.1671 28.7481 41.2987 28.4656 41.2987 28.1614V25.8798C41.2987 25.5756 41.1671 25.3148 40.9698 25.0975C40.7725 24.902 40.4874 24.7716 40.1805 24.7716ZM33.493 24.7716C33.186 24.7716 32.901 24.902 32.7037 25.0975C32.5063 25.2931 32.3748 25.5756 32.3748 25.8798V28.1614C32.3748 28.4656 32.5063 28.7264 32.7037 28.9437C32.901 29.1393 33.186 29.2696 33.493 29.2696C33.8 29.2696 34.0631 29.1393 34.2823 28.9437C34.4797 28.7481 34.6112 28.4656 34.6112 28.1614V25.8798C34.6112 25.5756 34.4797 25.2931 34.2823 25.0975C34.085 24.902 33.8 24.7716 33.493 24.7716ZM26.7836 24.7716C26.4766 24.7716 26.2135 24.902 25.9943 25.0975C25.7969 25.2931 25.6654 25.5756 25.6654 25.8798V28.1614C25.6654 28.4656 25.7969 28.7481 25.9943 28.9437C26.1916 29.1393 26.4766 29.2696 26.7836 29.2696C27.0906 29.2696 27.3756 29.1393 27.573 28.9437C27.7703 28.7481 27.9018 28.4656 27.9018 28.1614V25.8798C27.9018 25.5756 27.7703 25.3148 27.573 25.0975C27.3756 24.902 27.0906 24.7716 26.7836 24.7716ZM20.0961 24.7716C19.7892 24.7716 19.5041 24.902 19.3068 25.0975C19.1095 25.2931 18.9779 25.5756 18.9779 25.8798V28.1614C18.9779 28.4656 19.1095 28.7264 19.3068 28.9437C19.5041 29.1393 19.7892 29.2696 20.0961 29.2696C20.4031 29.2696 20.6881 29.1393 20.8855 28.9437C21.0828 28.7481 21.2144 28.4656 21.2144 28.1614V25.8798C21.2144 25.5756 21.0828 25.3148 20.8855 25.0975C20.6881 24.902 20.4031 24.7716 20.0961 24.7716ZM44.8946 -0.0219727H30.1383C29.8313 -0.0219727 29.5463 0.108405 29.349 0.303973C29.1516 0.49954 29.0201 0.782026 29.0201 1.08624C29.0201 1.39046 29.1516 1.67294 29.349 1.86851C29.5463 2.06408 29.8313 2.19446 30.1383 2.19446H43.7983V7.04017L43.0747 6.97499C40.027 6.71423 33.9754 6.41001 28.1869 7.56169C24.5471 8.27877 21.017 9.58255 18.4298 11.8207C17.0484 13.0158 16.0179 14.3848 15.3382 15.9276C14.6585 17.4922 14.3076 19.2305 14.3076 21.1427C14.3076 21.447 14.4392 21.7077 14.6365 21.925C14.8339 22.1206 15.1189 22.251 15.4259 22.251H44.9384C45.2454 22.251 45.5304 22.1206 45.7278 21.925C45.9251 21.7294 46.0567 21.447 46.0567 21.1427V1.08624C46.0567 0.782026 45.9251 0.521269 45.7278 0.303973C45.5304 0.108405 45.2454 -0.0219727 44.9384 -0.0219727H44.8946ZM43.1186 20.0345H16.5003L16.6099 19.274C16.7853 18.1006 17.1361 17.0358 17.6843 16.058C18.2324 15.0802 18.956 14.211 19.855 13.4504C22.9465 10.7777 27.7045 9.60428 32.2432 9.14795C36.7161 8.71336 40.9698 8.95239 43.1624 9.14795L43.7764 9.19141V20.0128H43.1186V20.0345ZM7.46669 33.6373H53.4677V37.201H6.80891V33.6373H7.46669ZM56.8005 47.7399H2.81836V39.3739H57.4802V47.7399H56.8224H56.8005Z" fill="#F03033"/>
</g>
<defs>
<clipPath id="clip0_1428_586">
<rect width="58.589" height="50" fill="white" transform="translate(0.581055)"/>
</clipPath>
</defs>
</svg>
