<svg width="48" height="50" viewBox="0 0 48 50" fill="none" xmlns="http://www.w3.org/2000/svg">
<g clip-path="url(#clip0_1428_578)">
<path fill-rule="evenodd" clip-rule="evenodd" d="M47.5317 41.7207H0.0245515L0 42.089V49.9946H47.5563V42.1135L47.5317 41.7207ZM2.18508 43.7585H45.5185V47.0975L45.4939 47.9813H1.91502V47.7358V47.4903H2.01322L1.98867 47.1466L1.89047 43.783H2.16053L2.18508 43.7585Z" fill="#F03033"/>
<path fill-rule="evenodd" clip-rule="evenodd" d="M3.75628 39.0435C4.56648 38.2578 5.25392 37.6195 6.80067 36.8338C9.47678 35.508 12.4721 35.0661 15.4919 35.1152C18.5117 35.1398 21.5561 35.6554 24.3059 36.1955C25.6562 36.4656 27.5712 36.932 29.7072 37.4476C35.4032 38.847 42.7686 40.6393 46.2795 40.3447V38.356C39.6997 37.6931 35.9433 36.7847 31.8432 35.7781C29.1916 35.1398 26.3928 34.4523 22.5627 33.7894C20.525 33.4457 18.3644 33.1511 16.2284 33.0775C14.0679 33.0038 11.9319 33.1266 9.89416 33.593C8.02824 34.035 6.18688 34.7715 4.66469 35.6799C3.26525 36.5147 2.08678 37.5213 1.32568 38.577L3.04429 39.6572L3.70718 39.0189L3.75628 39.0435Z" fill="#F03033"/>
<path fill-rule="evenodd" clip-rule="evenodd" d="M12.988 24.9017C15.6886 27.7006 19.445 29.4192 23.7906 29.4192C25.9512 29.4192 27.9398 28.9527 29.6584 28.2162C31.7453 27.3323 33.4394 26.1047 34.667 24.8526C39.1599 20.2124 39.0862 15.4985 39.0126 9.75343L38.988 8.23124L28.7746 8.18213L28.75 -0.0180664H18.8803V7.32283L18.8312 8.18213L16.6462 8.15758C13.97 8.10848 9.84539 8.03483 8.64236 8.23124L8.59326 13.6326C8.59326 18.0518 10.2382 22.0292 12.988 24.8772V24.9017ZM24.0853 27.4305C21.0654 27.5287 17.8246 26.4976 14.8048 23.8214C13.97 23.0849 12.7425 21.5136 11.8586 19.7213C11.1957 18.371 10.7538 16.8979 10.7783 15.523V15.2775C19.4696 15.2775 28.1363 15.3021 36.8275 15.2775V15.523C36.9011 17.9536 35.7963 20.5315 33.9304 22.6675C32.7519 23.9933 31.2788 25.1718 29.6093 26.0065C27.9398 26.8413 26.0494 27.3814 24.1098 27.4305H24.0853ZM36.9502 13.2397H10.6556V10.2199H10.9011H36.9502V13.2397ZM26.6386 8.20669L20.8936 8.15758V2.01971H21.1391H26.6877C26.6877 4.05748 26.7859 6.16891 26.6386 8.20669Z" fill="#F03033"/>
</g>
<defs>
<clipPath id="clip0_1428_578">
<rect width="47.5808" height="50" fill="white"/>
</clipPath>
</defs>
</svg>
