<svg width="39" height="50" viewBox="0 0 39 50" fill="none" xmlns="http://www.w3.org/2000/svg">
<g clip-path="url(#clip0_1458_821)">
<path fill-rule="evenodd" clip-rule="evenodd" d="M38.1916 3.76478C38.1916 3.26696 38.0986 2.76914 37.9127 2.31798C37.7268 1.86683 37.4479 1.46235 37.0915 1.10454C36.7352 0.746733 36.3169 0.466708 35.883 0.280025C35.4337 0.0933416 34.9534 0 34.4421 0C33.9463 0 33.4506 0.0933416 33.0012 0.280025C32.5519 0.466708 32.1336 0.746733 31.7927 1.10454L28.4616 4.44929L27.6405 3.62477C26.9123 2.89359 25.9517 2.52022 24.9911 2.52022C24.0305 2.52022 23.0699 2.89359 22.3417 3.62477C21.6135 4.35594 21.2416 5.32047 21.2416 6.285C21.2416 7.24953 21.6135 8.21406 22.3417 8.94524L23.2093 9.81643L15.1372 17.9216L12.2554 20.7218C12.1005 20.8619 12.023 21.0641 12.023 21.2663C12.023 21.4686 12.085 21.6553 12.2399 21.8108C12.3793 21.9664 12.5808 22.0442 12.7822 22.0442C12.9836 22.0442 13.185 21.982 13.3244 21.8264L15.8809 19.3373L16.6556 19.5862L16.7795 19.6329C16.8725 19.6795 16.9189 19.7106 16.9964 19.7729C17.0739 19.8507 17.1513 19.9284 17.1978 20.0218C17.2443 20.1151 17.2908 20.2085 17.3063 20.3174V20.3485C17.3683 20.6596 17.4767 20.9552 17.6471 21.2197C17.8176 21.4841 18.0345 21.733 18.2979 21.9197L18.8092 22.2931L10.7835 30.3516C10.3807 30.7561 9.8384 30.9583 9.31162 30.9583C8.78484 30.9583 8.24256 30.7561 7.83973 30.3516C7.4369 29.9471 7.23548 29.4182 7.23548 28.8737C7.23548 28.3447 7.4369 27.8003 7.83973 27.3958C7.99467 27.2402 8.05664 27.0535 8.05664 26.8513C8.05664 26.649 7.97917 26.4624 7.83973 26.3068C7.6848 26.1512 7.49887 26.089 7.29746 26.089C7.09604 26.089 6.91012 26.1668 6.75518 26.3068C6.39883 26.6646 6.13544 27.0846 5.96501 27.5202C5.77909 27.9869 5.70162 28.4692 5.70162 28.9515V29.0448L3.42407 31.3472C2.95927 31.8139 2.71137 32.4362 2.71137 33.0585C2.71137 33.6808 2.94377 34.3031 3.42407 34.7698C3.65648 35.0031 3.91987 35.1742 4.21424 35.2987C4.50862 35.4232 4.81849 35.4854 5.14386 35.4854C5.7636 35.4854 6.38334 35.252 6.84814 34.7698L9.14119 32.4673H9.32711C9.79192 32.4673 10.2722 32.374 10.706 32.1873C11.1244 32.0162 11.5272 31.7517 11.8681 31.4095L28.3067 14.9035L29.1743 15.7747C29.5307 16.1325 29.949 16.4126 30.3828 16.5837C30.8321 16.7704 31.3279 16.8637 31.8237 16.8637C32.3195 16.8637 32.7998 16.7704 33.2646 16.5837C33.6984 16.397 34.1168 16.1325 34.4731 15.7747C35.2013 15.0436 35.5732 14.079 35.5732 13.1145C35.5732 12.15 35.2013 11.1854 34.4731 10.4543L33.7604 9.73864L37.0915 6.3939C37.4479 6.03609 37.7268 5.61606 37.9127 5.18046C38.0986 4.72931 38.1916 4.24704 38.1916 3.73367V3.76478ZM9.26514 24.1599C9.31162 24.3311 9.40458 24.4866 9.52853 24.58C9.66797 24.6889 9.8229 24.7511 10.0088 24.7511C10.0708 24.7511 10.1328 24.7511 10.1793 24.7355C10.3807 24.6889 10.5511 24.5644 10.6596 24.3933C10.768 24.2222 10.799 24.0199 10.7525 23.8177L10.737 23.771C10.6905 23.5688 10.5666 23.3976 10.3962 23.2887C10.2257 23.1798 10.0243 23.1487 9.8229 23.1954H9.79192C9.5905 23.2421 9.43556 23.3665 9.3426 23.5376C9.23415 23.7088 9.20316 23.911 9.24964 24.1133L9.26514 24.1599ZM8.67638 43.715L6.64673 39.6235C6.2284 38.8923 5.91853 38.4412 5.67064 38.0678L5.43823 37.71C5.34527 37.5545 5.20583 37.43 5.05089 37.3522C4.89596 37.2744 4.72553 37.2278 4.53961 37.2278C4.35368 37.2278 4.18326 37.2744 4.02832 37.3522C3.87338 37.43 3.73394 37.5545 3.64098 37.71C3.42407 38.0523 3.08321 38.5812 2.71137 39.2035C2.33952 39.8258 1.9212 40.5414 1.53386 41.257C0.852145 42.5482 0.464806 43.4661 0.247897 44.1195C0.0464806 44.7573 0 45.1618 0 45.4418C0 46.7019 0.511287 47.8376 1.33244 48.6621C2.1536 49.4866 3.28463 50 4.53961 50C5.79458 50 6.92561 49.4866 7.74677 48.6621C8.56793 47.8376 9.07921 46.7019 9.07921 45.4418C9.07921 45.224 9.04823 44.9751 8.98625 44.7106C8.92428 44.4306 8.83132 44.135 8.72286 43.8083L8.67638 43.715ZM4.53961 48.4754C3.71845 48.4754 2.95927 48.1332 2.41699 47.5887C1.87472 47.0442 1.53386 46.2819 1.53386 45.4574C1.53386 44.9907 1.81274 44.1662 2.30854 43.1238C2.80433 42.0815 3.50154 40.8214 4.35368 39.4368L4.53961 39.1413C5.5157 40.6503 6.7242 42.8749 7.28196 44.3839C7.39042 44.6795 7.45239 44.9129 7.48338 45.084C7.51437 45.2707 7.52986 45.3796 7.52986 45.4574C7.52986 46.2819 7.189 47.0442 6.64673 47.5887C6.10445 48.1332 5.36076 48.4754 4.52411 48.4754H4.53961ZM5.79458 33.7119C5.71712 33.7897 5.60866 33.8675 5.50021 33.8986C5.39175 33.9452 5.2833 33.9608 5.15935 33.9608C5.0354 33.9608 4.92695 33.9297 4.81849 33.8986C4.71004 33.8519 4.61707 33.7897 4.52411 33.7119C4.44665 33.6341 4.36918 33.5252 4.33819 33.4163C4.29171 33.3074 4.27622 33.1985 4.27622 33.0741C4.27622 32.9496 4.3072 32.8407 4.33819 32.7318C4.38467 32.6229 4.44665 32.5296 4.52411 32.4518L6.2284 30.7405L6.56926 31.2072L6.78617 31.4406L7.01857 31.6584L7.48338 32.0006L5.79458 33.7119ZM19.7852 21.0952L19.212 20.6907L19.088 20.5974L18.9951 20.4885C18.9486 20.4263 18.9176 20.364 18.8866 20.3018C18.8556 20.2396 18.8401 20.1774 18.8246 20.0996C18.5922 19.0261 18.081 18.6061 17.1359 18.1238L24.2939 10.9365L27.2376 13.8923C24.8207 16.3503 22.3727 18.7928 19.9247 21.2352L19.7698 21.1263L19.7852 21.0952ZM33.4041 14.7324C32.9703 15.168 32.4125 15.3858 31.8392 15.3858C31.266 15.3858 30.7082 15.168 30.2744 14.7324L23.4417 7.87181C23.0079 7.43622 22.791 6.86061 22.791 6.30056C22.791 5.72495 23.0079 5.1649 23.4417 4.72931C23.6586 4.51151 23.9065 4.35594 24.1544 4.24704C24.4333 4.13815 24.7122 4.07592 25.0066 4.07592C25.5798 4.07592 26.1376 4.29372 26.5714 4.72931L33.4041 11.5899C33.8379 12.0255 34.0548 12.6011 34.0548 13.1612C34.0548 13.7368 33.8379 14.2968 33.4041 14.7324ZM36.007 5.35159L32.6759 8.69633L29.5462 5.55383L32.8773 2.20909C33.0787 2.00685 33.3266 1.83572 33.59 1.72682C33.8534 1.61792 34.1478 1.55569 34.4421 1.55569C34.7365 1.55569 35.0154 1.61792 35.2943 1.72682C35.5577 1.83572 35.8056 2.00685 36.007 2.20909C36.2084 2.42688 36.3788 2.66024 36.4873 2.9247C36.5957 3.18917 36.6577 3.48475 36.6577 3.78034C36.6577 4.07592 36.5957 4.3715 36.4873 4.63597C36.3788 4.90044 36.2084 5.14935 36.007 5.35159Z" fill="#F03033"/>
</g>
<defs>
<clipPath id="clip0_1458_821">
<rect width="38.1944" height="50" fill="white"/>
</clipPath>
</defs>
</svg>
