<svg width="51" height="50" viewBox="0 0 51 50" fill="none" xmlns="http://www.w3.org/2000/svg">
<path d="M1.05982 45.8088C8.16814 47.5892 14.3295 45.1535 14.391 45.1287C14.6001 45.0422 14.8337 45.0422 15.0428 45.1287C15.1289 45.1658 23.8851 48.8379 31.4116 48.195C36.1095 47.787 40.8443 45.1411 44.3 43.2123C44.7674 42.9527 45.2101 42.7054 45.6159 42.4829C46.1816 42.1738 47.0302 41.9759 47.7927 41.7905C48.137 41.7163 48.5921 41.605 48.7028 41.5556C48.7888 41.5061 48.8503 41.4072 48.8626 41.3083L49.1209 39.3424C49.2931 37.7845 46.0095 12.9329 45.4069 9.75535C45.3823 9.71826 45.2962 9.63171 45.2347 9.59462L33.1702 1.95367L28.2879 6.82509C28.0419 7.08473 28.0173 7.48038 28.2018 7.76475L31.6945 12.9453C31.9281 13.2791 32.3708 13.378 32.6783 13.1802L34.5476 11.8696C34.769 11.7212 35.0518 11.6965 35.3101 11.7707C35.5684 11.8572 35.7651 12.0674 35.8635 12.3271C35.9619 12.6238 37.1794 13.1307 38.4584 13.3162L38.8766 13.3286C39.2209 13.3286 39.5161 13.5511 39.639 13.8726C39.762 14.194 39.6882 14.5526 39.4423 14.7999C39.0241 15.2202 38.6921 15.5541 38.5076 15.7395L35.802 29.6738C36.048 31.7385 36.4292 32.3691 36.5399 32.4927C36.872 32.6535 37.0687 32.9997 37.0195 33.3829C36.958 33.8528 36.5276 34.1866 36.0603 34.1124C35.101 33.9764 34.4615 32.604 34.1295 30.0447C28.0911 24.0852 21.5854 28.0541 21.0689 28.3879C18.6461 30.2549 18.3264 31.6644 18.3141 31.7262C18.2403 32.1836 17.8222 32.5051 17.3548 32.4433C16.8875 32.3815 16.5555 31.9487 16.6292 31.4789C16.6538 31.2811 16.949 29.6119 19.4578 27.4977C17.7361 24.6663 15.5839 22.8859 13.0382 22.2183C8.66006 21.0684 4.50329 23.5659 4.4664 23.5907C4.06056 23.8379 3.54404 23.7143 3.29808 23.3063C3.05212 22.8983 3.1751 22.379 3.58094 22.1317C3.77771 22.0081 8.3772 19.2138 13.4686 20.5491C16.4448 21.3281 18.9413 23.3434 20.8967 26.5333C22.9751 25.4947 28.8167 23.2816 34.4 27.9552L36.8843 15.1461C36.9089 15.0101 36.9703 14.874 37.0564 14.7751C36.3185 14.5773 35.4331 14.2682 34.8428 13.7366L33.6253 14.602C32.4938 15.3192 31.0304 15.0101 30.2802 13.8973L26.7875 8.71678C26.148 7.76475 26.2587 6.46653 27.0581 5.61342L32.4323 0.247442C32.7152 -0.0369297 33.1456 -0.0863857 33.49 0.136166L46.1202 8.13567C46.2554 8.22222 46.9195 8.65496 47.0548 9.3968C47.3377 10.9052 51.064 37.562 50.7934 39.5649L50.5352 41.5308C50.4491 42.1614 50.0924 42.7054 49.5513 43.0269C49.2808 43.1876 48.8872 43.2865 48.1739 43.4596C47.5836 43.5956 46.7843 43.7934 46.4276 43.9913C46.0218 44.2138 45.579 44.4611 45.124 44.7084C41.533 46.7113 36.6137 49.4685 31.5592 49.9012C24.3525 50.5194 16.3956 47.515 14.6984 46.835C13.444 47.2924 8.85683 48.7267 3.21199 47.9601C2.37572 47.8488 1.52715 47.6881 0.653982 47.4655C0.198951 47.3543 -0.083906 46.8844 0.0390753 46.427C0.149758 45.9695 0.617087 45.6851 1.07212 45.8088H1.05982Z" fill="#F03033"/>
<path d="M6.56986 36.0776C6.66824 35.6573 7.07408 35.3729 7.50452 35.4347C7.97185 35.4965 8.3039 35.9293 8.23011 36.3991C8.15632 36.9678 7.47992 38.8348 2.00725 39.0079C1.95806 39.0079 1.90887 39.0079 1.87198 38.9955C1.46614 38.9461 1.14639 38.5999 1.13409 38.1671C1.12179 37.6973 1.49073 37.3017 1.95806 37.2893C5.78278 37.1657 6.49607 36.1889 6.56986 36.0776Z" fill="#F03033"/>
<path d="M22.2132 42.631C32.9617 46.5133 38.705 39.54 38.9509 39.2433C39.2461 38.8724 39.7872 38.8105 40.1439 39.1073C40.5128 39.404 40.5743 39.9357 40.2791 40.3066C40.2053 40.3931 38.5697 42.4332 35.446 43.9292C33.2938 44.9678 30.0963 45.8827 26.0133 45.3264C24.6482 45.1409 23.197 44.7947 21.6475 44.2383C21.2047 44.0776 20.9711 43.583 21.1309 43.1379C21.2908 42.6928 21.7827 42.4579 22.2255 42.6187L22.2132 42.631Z" fill="#F03033"/>
</svg>
