<svg width="88" height="30" viewBox="0 0 88 30" fill="none" xmlns="http://www.w3.org/2000/svg">
<g clip-path="url(#clip0_1428_765)">
<path d="M20.6669 15.941C20.6307 12.1449 23.7682 10.321 23.9093 10.2341C22.1433 7.65392 19.4003 7.29927 18.4232 7.25947C16.089 7.02062 13.8671 8.63462 12.6801 8.63462C11.4931 8.63462 9.66565 7.29204 7.72958 7.33184C5.18193 7.36803 2.83332 8.81194 1.51969 11.0918C-1.12205 15.6732 0.846586 22.4766 3.4268 26.2004C4.68977 28.0206 6.18796 30.0725 8.16384 29.9965C10.0673 29.9205 10.7839 28.7661 13.0782 28.7661C15.3725 28.7661 16.0203 29.9965 18.0287 29.9603C20.0734 29.9205 21.3689 28.1003 22.621 26.2728C24.0613 24.1557 24.6584 22.1111 24.6946 22.0025C24.6476 21.9844 20.7103 20.4754 20.6669 15.941Z" fill="#232323"/>
<path d="M16.8925 4.79132C17.942 3.52111 18.6476 1.75875 18.4558 0C16.9468 0.0615199 15.1193 1.00603 14.0373 2.27624C13.0674 3.39807 12.217 5.193 12.4486 6.91556C14.1241 7.04584 15.8467 6.0579 16.8925 4.79132ZM33.901 19.6719L32.1639 24.9373H29.9311L35.6163 8.20386H38.2218L43.9287 24.9373H41.6199L39.8322 19.6719H33.901ZM39.3871 17.9819L37.7514 13.1653C37.3787 12.0724 37.1326 11.0808 36.8829 10.111H36.8358C36.5861 11.1025 36.3147 12.1194 35.9926 13.1399L34.3569 17.9783L39.3871 17.9819ZM45.6223 16.842C45.6223 15.304 45.5753 14.0591 45.521 12.9192H47.4824L47.5837 14.9819H47.6308C48.5246 13.5163 49.9396 12.6478 51.901 12.6478C54.8069 12.6478 56.989 15.1049 56.989 18.7563C56.989 23.0772 54.3582 25.2087 51.5282 25.2087C49.9396 25.2087 48.5499 24.5139 47.8298 23.3233H47.7828V29.8516H45.6223V16.842ZM47.7791 20.0446C47.7791 20.3703 47.8262 20.6635 47.8805 20.9385C48.2785 22.4511 49.5922 23.497 51.1591 23.497C53.4679 23.497 54.8105 21.6116 54.8105 18.854C54.8105 16.4439 53.5439 14.3884 51.2351 14.3884C49.7478 14.3884 48.3581 15.456 47.9311 17.0953C47.8551 17.3667 47.7828 17.6924 47.7828 17.9891L47.7791 20.0446ZM59.2472 16.842C59.2472 15.304 59.2001 14.0591 59.1458 12.9192H61.1072L61.2086 14.9819H61.2556C62.1495 13.5163 63.5644 12.6478 65.5258 12.6478C68.4317 12.6478 70.6139 15.1049 70.6139 18.7563C70.6139 23.0772 67.983 25.2087 65.1531 25.2087C63.5644 25.2087 62.1748 24.5139 61.4547 23.3233H61.4076V29.8516H59.2472V16.842ZM61.4076 20.0446C61.4076 20.3703 61.4547 20.6635 61.5089 20.9385C61.907 22.4511 63.2206 23.497 64.7876 23.497C67.0964 23.497 68.439 21.6116 68.439 18.854C68.439 16.4439 67.1724 14.3884 64.8636 14.3884C63.3762 14.3884 61.9866 15.456 61.5596 17.0953C61.4836 17.3667 61.4112 17.6924 61.4112 17.9891L61.4076 20.0446ZM72.8756 7.31001H75.0614V24.9337H72.8756V7.31001ZM79.4547 19.3245C79.5017 22.2774 81.3907 23.497 83.5729 23.497C85.1362 23.497 86.0807 23.2256 86.8986 22.8782L87.2713 24.4415C86.5041 24.7889 85.1869 25.187 83.2761 25.187C79.5777 25.187 77.3666 22.7551 77.3666 19.1291C77.3666 15.503 79.5017 12.6478 83.0011 12.6478C86.9239 12.6478 87.9661 16.0965 87.9661 18.3076C87.9661 18.7563 87.9191 19.1001 87.8901 19.3245H79.4547ZM85.86 17.7612C85.8853 16.3715 85.2882 14.2111 82.831 14.2111C80.6199 14.2111 79.6537 16.2485 79.48 17.7612H85.86Z" fill="#232323"/>
</g>
<defs>
<clipPath id="clip0_1428_765">
<rect width="87.7021" height="30" fill="white" transform="translate(0.267578)"/>
</clipPath>
</defs>
</svg>
