<svg width="56" height="50" viewBox="0 0 56 50" fill="none" xmlns="http://www.w3.org/2000/svg">
<g clip-path="url(#clip0_1428_591)">
<path fill-rule="evenodd" clip-rule="evenodd" d="M43.4349 0.00732422V41.4476C43.4349 43.8019 42.4772 45.9382 40.932 47.486C39.3867 49.0337 37.2539 49.9929 34.9033 49.9929H9.13457C6.78405 49.9929 4.65116 49.0337 3.1059 47.486C1.56065 45.9382 0.603027 43.8019 0.603027 41.4476V0.00732422H43.4566H43.4349ZM33.641 35.9542V32.8805H36.1439V39.0279H30.0064V36.521H33.6628V35.9324L33.641 35.9542ZM39.1691 45.7202C40.2573 44.6303 40.9538 43.1043 40.9538 41.4476V2.51423H3.08414V41.4476C3.08414 43.1261 3.75883 44.6303 4.84704 45.7202C5.93524 46.8102 7.45873 47.486 9.11281 47.486H34.8816C36.5574 47.486 38.0591 46.8102 39.1473 45.7202H39.1691ZM36.1439 28.0629H33.641V21.9155H36.1439V28.0629ZM10.3751 28.0629H7.87225V21.9155H10.3751V28.0629ZM25.0877 13.4574H18.8196V10.9505H25.0877V13.4574ZM30.0064 13.4574V10.9505H36.1439V17.0979H33.641V13.4356H29.9846L30.0064 13.4574ZM7.87225 17.1197V10.9723H14.0097V13.4792H10.3534V17.1415H7.85049L7.87225 17.1197ZM25.0659 39.0497H18.7979V36.5428H25.0659V39.0497ZM10.3534 32.9023V36.5646H14.0097V39.0715H7.87225V32.9241H10.3751L10.3534 32.9023Z" fill="#F03033"/>
<path fill-rule="evenodd" clip-rule="evenodd" d="M43.4349 27.2338C46.0248 24.8359 47.5918 21.3044 47.5918 17.5332C47.5918 17.2716 47.3959 17.0536 47.1348 17.0536H43.4131V14.1543H47.1348C48.8541 14.1543 50.2688 15.6584 50.2688 17.5332C50.2688 22.9612 47.6353 27.975 43.4349 30.8089V27.2338Z" fill="#F03033"/>
<path fill-rule="evenodd" clip-rule="evenodd" d="M52.9458 17.5331C52.9458 14.0888 50.3341 11.2767 47.1348 11.2767H43.4131V8.37744H47.1348C51.814 8.37744 55.6228 12.4757 55.6228 17.5331C55.6228 21.6096 54.5563 25.5988 52.5105 29.0431C50.4864 32.4874 47.5918 35.2123 44.1531 36.9562L43.4131 37.3268V34.1223C49.2023 31.005 52.924 24.5524 52.924 17.5331H52.9458Z" fill="#F03033"/>
</g>
<defs>
<clipPath id="clip0_1428_591">
<rect width="55.0633" height="50" fill="white" transform="translate(0.581055)"/>
</clipPath>
</defs>
</svg>
