<svg width="80" height="50" viewBox="0 0 80 50" fill="none" xmlns="http://www.w3.org/2000/svg">
<path fill-rule="evenodd" clip-rule="evenodd" d="M73.5111 21.1911L71.4681 13.0021C72.0222 12.8809 72.455 12.3788 72.455 11.7902V10.4744C72.455 7.60042 70.1177 5.28047 67.2611 5.28047H57.9467V2.56233C57.9467 1.14266 56.804 0 55.3843 0H7.86011C6.45776 0 5.29778 1.14266 5.29778 2.56233V25C5.29778 25.6752 5.8518 26.2465 6.52701 26.2465C7.20222 26.2465 7.77355 25.6925 7.77355 25V2.56233C7.77355 2.51039 7.80817 2.47576 7.86011 2.47576H55.3843C55.4363 2.47576 55.4709 2.51039 55.4709 2.56233V25C55.4709 25.6752 56.0249 26.2465 56.7001 26.2465C57.3753 26.2465 57.9467 25.6925 57.9467 25V23.5976H72.5415C74.3421 23.5976 75.8656 24.7749 76.385 26.4024H72.5415C71.8663 26.4024 71.295 26.9564 71.295 27.6489V30.2805C71.295 32.4273 73.0263 34.1586 75.1731 34.1586H76.5755V39.5949H73.338C72.2819 36.5305 69.356 34.3144 65.928 34.3144C62.5 34.3144 59.5914 36.5305 58.518 39.5949H57.9294V30.2805C57.9294 29.6053 57.3753 29.0512 56.6828 29.0512C56.0076 29.0512 55.4363 29.6053 55.4363 30.2805V39.5949H29.7611C28.705 36.5305 25.7791 34.3144 22.3511 34.3144C18.9231 34.3144 16.0145 36.5305 14.9411 39.5949H7.82548C7.77355 39.5949 7.73892 39.5602 7.73892 39.5083V36.7902H13.106C13.7812 36.7902 14.3525 36.2361 14.3525 35.5436C14.3525 34.8684 13.7985 34.2971 13.106 34.2971H1.22922C0.554017 34.2971 0 34.8511 0 35.5436C0 36.2188 0.554017 36.7902 1.22922 36.7902H5.28047V39.5083C5.28047 40.9107 6.42313 42.0706 7.8428 42.0706H14.5256C14.5256 42.1053 14.5256 42.1226 14.5256 42.1572C14.5256 46.4855 18.0402 50 22.3684 50C26.6967 50 30.2112 46.4855 30.2112 42.1572C30.2112 42.1226 30.2112 42.1053 30.2112 42.0706H58.1025C58.1025 42.1053 58.1025 42.1226 58.1025 42.1572C58.1025 46.4855 61.617 50 65.9453 50C70.2735 50 73.7881 46.4855 73.7881 42.1572C73.7881 42.1226 73.7881 42.1053 73.7881 42.0706H77.8393C78.5145 42.0706 79.0859 41.5166 79.0859 40.8241V27.6316C79.0859 24.3767 76.6794 21.6586 73.5457 21.1911H73.5111ZM67.2438 7.75623C68.75 7.75623 69.9619 8.98546 69.9619 10.4744V10.5609H57.9121V7.75623H67.2438ZM57.9294 21.1219V13.0367H68.9231L70.9488 21.1219H57.9294ZM22.3684 47.5242C19.4079 47.5242 17.0014 45.1177 17.0014 42.1572C17.0014 39.1967 19.4079 36.7902 22.3684 36.7902C25.3289 36.7902 27.7355 39.1967 27.7355 42.1572C27.7355 45.1177 25.3289 47.5242 22.3684 47.5242ZM65.928 47.5242C62.9675 47.5242 60.5609 45.1177 60.5609 42.1572C60.5609 39.1967 62.9675 36.7902 65.928 36.7902C68.8885 36.7902 71.295 39.1967 71.295 42.1572C71.295 45.1177 68.8885 47.5242 65.928 47.5242ZM76.5755 31.6828H75.1731C74.394 31.6828 73.7708 31.0596 73.7708 30.2805V28.8781H76.5755V31.6828Z" fill="#F03033"/>
<path fill-rule="evenodd" clip-rule="evenodd" d="M22.3553 39.5953C20.953 39.5953 19.793 40.738 19.793 42.1576C19.793 43.5773 20.9357 44.72 22.3553 44.72C23.7577 44.72 24.9177 43.5773 24.9177 42.1576C24.9177 40.7553 23.775 39.5953 22.3553 39.5953Z" fill="#F03033"/>
<path fill-rule="evenodd" clip-rule="evenodd" d="M65.9151 39.5953C64.5127 39.5953 63.3528 40.738 63.3528 42.1576C63.3528 43.5773 64.4954 44.72 65.9151 44.72C67.3175 44.72 68.4774 43.5773 68.4774 42.1576C68.4774 40.7553 67.3348 39.5953 65.9151 39.5953Z" fill="#F03033"/>
<path fill-rule="evenodd" clip-rule="evenodd" d="M51.4065 34.3148H32.9335C32.2583 34.3148 31.6869 34.8689 31.6869 35.5614C31.6869 36.2366 32.241 36.7906 32.9335 36.7906H51.4065C52.0817 36.7906 52.653 36.2366 52.653 35.5614C52.653 34.8862 52.099 34.3148 51.4065 34.3148Z" fill="#F03033"/>
<path fill-rule="evenodd" clip-rule="evenodd" d="M19.7235 29.0344H3.88212C3.20691 29.0344 2.63558 29.5884 2.63558 30.2636C2.63558 30.9388 3.1896 31.5101 3.88212 31.5101H19.7235C20.3987 31.5101 20.9701 30.9561 20.9701 30.2636C20.9701 29.5884 20.4161 29.0344 19.7235 29.0344Z" fill="#F03033"/>
<path fill-rule="evenodd" clip-rule="evenodd" d="M43.0445 12.2405C42.5597 11.7558 41.7806 11.7558 41.2959 12.2405L30.2848 23.2516L24.5542 17.521C24.0694 17.0362 23.2903 17.0362 22.8056 17.521C22.3208 18.0058 22.3208 18.7848 22.8056 19.2696L29.4018 25.8659C29.6442 26.1083 29.9558 26.2294 30.2848 26.2294C30.5964 26.2294 30.9254 26.1083 31.1678 25.8659L43.0445 13.9891C43.5292 13.5044 43.5292 12.7253 43.0445 12.2405Z" fill="#F03033"/>
<path fill-rule="evenodd" clip-rule="evenodd" d="M73.5111 21.1911L71.4681 13.0021C72.0222 12.8809 72.455 12.3788 72.455 11.7902V10.4744C72.455 7.60042 70.1177 5.28047 67.2611 5.28047H57.9467V2.56233C57.9467 1.14266 56.804 0 55.3843 0H7.86011C6.45776 0 5.29778 1.14266 5.29778 2.56233V25C5.29778 25.6752 5.8518 26.2465 6.52701 26.2465C7.20222 26.2465 7.77355 25.6925 7.77355 25V2.56233C7.77355 2.51039 7.80817 2.47576 7.86011 2.47576H55.3843C55.4363 2.47576 55.4709 2.51039 55.4709 2.56233V25C55.4709 25.6752 56.0249 26.2465 56.7001 26.2465C57.3753 26.2465 57.9467 25.6925 57.9467 25V23.5976H72.5415C74.3421 23.5976 75.8656 24.7749 76.385 26.4024H72.5415C71.8663 26.4024 71.295 26.9564 71.295 27.6489V30.2805C71.295 32.4273 73.0263 34.1586 75.1731 34.1586H76.5755V39.5949H73.338C72.2819 36.5305 69.356 34.3144 65.928 34.3144C62.5 34.3144 59.5914 36.5305 58.518 39.5949H57.9294V30.2805C57.9294 29.6053 57.3753 29.0512 56.6828 29.0512C56.0076 29.0512 55.4363 29.6053 55.4363 30.2805V39.5949H29.7611C28.705 36.5305 25.7791 34.3144 22.3511 34.3144C18.9231 34.3144 16.0145 36.5305 14.9411 39.5949H7.82548C7.77355 39.5949 7.73892 39.5602 7.73892 39.5083V36.7902H13.106C13.7812 36.7902 14.3525 36.2361 14.3525 35.5436C14.3525 34.8684 13.7985 34.2971 13.106 34.2971H1.22922C0.554017 34.2971 0 34.8511 0 35.5436C0 36.2188 0.554017 36.7902 1.22922 36.7902H5.28047V39.5083C5.28047 40.9107 6.42313 42.0706 7.8428 42.0706H14.5256C14.5256 42.1053 14.5256 42.1226 14.5256 42.1572C14.5256 46.4855 18.0402 50 22.3684 50C26.6967 50 30.2112 46.4855 30.2112 42.1572C30.2112 42.1226 30.2112 42.1053 30.2112 42.0706H58.1025C58.1025 42.1053 58.1025 42.1226 58.1025 42.1572C58.1025 46.4855 61.617 50 65.9453 50C70.2735 50 73.7881 46.4855 73.7881 42.1572C73.7881 42.1226 73.7881 42.1053 73.7881 42.0706H77.8393C78.5145 42.0706 79.0859 41.5166 79.0859 40.8241V27.6316C79.0859 24.3767 76.6794 21.6586 73.5457 21.1911H73.5111ZM67.2438 7.75623C68.75 7.75623 69.9619 8.98546 69.9619 10.4744V10.5609H57.9121V7.75623H67.2438ZM57.9294 21.1219V13.0367H68.9231L70.9488 21.1219H57.9294ZM22.3684 47.5242C19.4079 47.5242 17.0014 45.1177 17.0014 42.1572C17.0014 39.1967 19.4079 36.7902 22.3684 36.7902C25.3289 36.7902 27.7355 39.1967 27.7355 42.1572C27.7355 45.1177 25.3289 47.5242 22.3684 47.5242ZM65.928 47.5242C62.9675 47.5242 60.5609 45.1177 60.5609 42.1572C60.5609 39.1967 62.9675 36.7902 65.928 36.7902C68.8885 36.7902 71.295 39.1967 71.295 42.1572C71.295 45.1177 68.8885 47.5242 65.928 47.5242ZM76.5755 31.6828H75.1731C74.394 31.6828 73.7708 31.0596 73.7708 30.2805V28.8781H76.5755V31.6828Z" stroke="white"/>
<path fill-rule="evenodd" clip-rule="evenodd" d="M22.3553 39.5953C20.953 39.5953 19.793 40.738 19.793 42.1576C19.793 43.5773 20.9357 44.72 22.3553 44.72C23.7577 44.72 24.9177 43.5773 24.9177 42.1576C24.9177 40.7553 23.775 39.5953 22.3553 39.5953Z" stroke="white"/>
<path fill-rule="evenodd" clip-rule="evenodd" d="M65.9151 39.5953C64.5127 39.5953 63.3528 40.738 63.3528 42.1576C63.3528 43.5773 64.4954 44.72 65.9151 44.72C67.3175 44.72 68.4774 43.5773 68.4774 42.1576C68.4774 40.7553 67.3348 39.5953 65.9151 39.5953Z" stroke="white"/>
<path fill-rule="evenodd" clip-rule="evenodd" d="M51.4065 34.3148H32.9335C32.2583 34.3148 31.6869 34.8689 31.6869 35.5614C31.6869 36.2366 32.241 36.7906 32.9335 36.7906H51.4065C52.0817 36.7906 52.653 36.2366 52.653 35.5614C52.653 34.8862 52.099 34.3148 51.4065 34.3148Z" stroke="white"/>
<path fill-rule="evenodd" clip-rule="evenodd" d="M19.7235 29.0344H3.88212C3.20691 29.0344 2.63558 29.5884 2.63558 30.2636C2.63558 30.9388 3.1896 31.5101 3.88212 31.5101H19.7235C20.3987 31.5101 20.9701 30.9561 20.9701 30.2636C20.9701 29.5884 20.4161 29.0344 19.7235 29.0344Z" stroke="white"/>
<path fill-rule="evenodd" clip-rule="evenodd" d="M43.0445 12.2405C42.5597 11.7558 41.7806 11.7558 41.2959 12.2405L30.2848 23.2516L24.5542 17.521C24.0694 17.0362 23.2903 17.0362 22.8056 17.521C22.3208 18.0058 22.3208 18.7848 22.8056 19.2696L29.4018 25.8659C29.6442 26.1083 29.9558 26.2294 30.2848 26.2294C30.5964 26.2294 30.9254 26.1083 31.1678 25.8659L43.0445 13.9891C43.5292 13.5044 43.5292 12.7253 43.0445 12.2405Z" stroke="white"/>
</svg>
