<svg width="44" height="50" viewBox="0 0 44 50" fill="none" xmlns="http://www.w3.org/2000/svg">
<g clip-path="url(#clip0_1458_801)">
<path d="M43.0179 6.72576C43.4183 6.72576 43.7491 6.39555 43.7491 5.99583V2.1724C43.7491 0.973236 42.7742 0 41.573 0H12.5872C11.386 0 10.4111 0.973236 10.4111 2.1724V5.02259H7.31227C6.11106 5.02259 5.13616 5.99583 5.13616 7.19499V10.0452H2.15924C0.958029 10.0452 -0.0168683 11.0184 -0.0168683 12.2176C-0.0168683 39.277 -0.103913 38.1648 0.192038 38.4776C12.239 50.504 11.6297 50.0174 12.0649 50.0174H16.3127C16.7131 50.0174 17.0438 49.6872 17.0438 49.2874C17.0438 48.8877 16.7131 48.5575 16.3127 48.5575H12.7961V39.3987C12.7961 38.1995 11.8212 37.2263 10.62 37.2263H1.44548V12.2176C1.44548 11.8352 1.75884 11.5224 2.14183 11.5224C3.4475 11.5224 30.0657 11.5224 31.1276 11.5224C31.5106 11.5224 31.824 11.8352 31.824 12.2176C31.824 12.3914 31.824 46.5763 31.824 47.845C31.824 48.2273 31.5106 48.5401 31.1276 48.5401H18.9066C18.5062 48.5401 18.1754 48.8703 18.1754 49.2701C18.1754 49.6698 18.5062 50 18.9066 50H31.1276C32.3288 50 33.3037 49.0268 33.3037 47.8276V44.9774H36.2807C37.4819 44.9774 38.4568 44.0042 38.4568 42.805V39.9548H41.5555C42.7568 39.9548 43.7317 38.9816 43.7317 37.7824V8.51581C43.7317 8.11609 43.4009 7.78589 43.0005 7.78589C42.6001 7.78589 42.2693 8.11609 42.2693 8.51581V37.7824C42.2693 38.1648 41.9559 38.4776 41.573 38.4776H38.4742V7.17762C38.4742 5.97845 37.4993 5.00521 36.2981 5.00521H11.8908V2.15502C11.8908 1.77268 12.2042 1.45985 12.5872 1.45985H41.573C41.9559 1.45985 42.2693 1.77268 42.2693 2.15502V5.97845C42.2693 6.37817 42.6001 6.70838 43.0005 6.70838L43.0179 6.72576ZM10.6548 38.6861C11.0378 38.6861 11.3511 38.999 11.3511 39.3813V47.5148C11.09 47.2541 3.56936 39.7463 2.50742 38.6861H10.6548ZM36.3155 6.49983C36.6985 6.49983 37.0118 6.81265 37.0118 7.19499C37.0118 7.36879 37.0118 41.5537 37.0118 42.8224C37.0118 43.2047 36.6985 43.5176 36.3155 43.5176H33.3386V12.2176C33.3386 11.0184 32.3637 10.0452 31.1624 10.0452H6.63333V7.19499C6.63333 6.81265 6.94669 6.49983 7.32968 6.49983C8.32199 6.49983 35.3232 6.49983 36.3155 6.49983Z" fill="#F03033"/>
</g>
<defs>
<clipPath id="clip0_1458_801">
<rect width="43.75" height="50" fill="white"/>
</clipPath>
</defs>
</svg>
