<svg width="45" height="50" viewBox="0 0 45 50" fill="none" xmlns="http://www.w3.org/2000/svg">
<path d="M22.0819 11.4286C18.3376 11.4286 14.8813 12.9524 12.3851 15.4286C9.88885 17.9048 8.35272 21.2381 8.35272 25.0476C8.35272 28.7619 9.88885 32.1905 12.3851 34.6667C14.8813 37.1429 18.2416 38.6667 22.0819 38.6667C25.8262 38.6667 29.2825 37.1429 31.7787 34.6667C34.2749 32.1905 35.8111 28.8571 35.8111 25.0476C35.8111 21.3333 34.2749 17.9048 31.7787 15.4286C29.2825 12.9524 25.9222 11.4286 22.0819 11.4286ZM22.1779 15.7143C19.5857 15.7143 17.2815 16.7619 15.5533 18.381C13.8252 20.0952 12.8651 22.381 12.8651 24.9524C12.8651 25.1429 12.9611 25.3333 13.0571 25.5238C13.1531 25.619 13.3451 25.7143 13.6332 25.7143C13.8252 25.7143 14.0172 25.619 14.2092 25.5238C14.3052 25.4286 14.4012 25.2381 14.4012 24.9524C14.4012 22.8571 15.2653 20.8571 16.7054 19.4286C18.1456 18 20.0657 17.1429 22.2739 17.1429C22.4659 17.1429 22.6579 17.0476 22.85 16.9524C22.946 16.8571 23.042 16.6667 23.042 16.381C23.042 16.1905 22.946 16 22.85 15.8095C22.754 15.7143 22.5619 15.619 22.2739 15.619L22.1779 15.7143ZM13.7292 27.9048C13.5372 28.0952 13.5372 28.2857 13.5372 28.4762C13.5372 28.6667 13.6332 28.8571 13.7292 29.0476C13.8252 29.1429 13.9212 29.1429 14.0172 29.2381C14.1132 29.2381 14.2092 29.3333 14.3052 29.3333C14.4012 29.3333 14.4972 29.3333 14.5933 29.2381C14.6893 29.2381 14.7853 29.1429 14.8813 29.0476C15.0733 28.8571 15.0733 28.6667 15.0733 28.4762C15.0733 28.2857 14.9773 28.0952 14.8813 27.9048C14.6893 27.7143 14.4972 27.7143 14.3052 27.7143C14.1132 27.7143 13.9212 27.8095 13.7292 27.9048ZM22.0819 40.8571C21.8899 40.8571 21.6979 40.9524 21.5058 41.0476C21.4098 41.1429 21.3138 41.3333 21.3138 41.619V49.2381C21.3138 49.4286 21.4098 49.619 21.5058 49.8095C21.6019 49.9048 21.7939 50 22.0819 50C22.2739 50 22.4659 49.9048 22.6579 49.8095C22.754 49.7143 22.85 49.5238 22.85 49.2381V41.619C22.85 41.4286 22.754 41.2381 22.6579 41.0476C22.5619 40.9524 22.3699 40.8571 22.0819 40.8571ZM36.5791 17.4286C36.6752 17.4286 36.6752 17.4286 36.7712 17.4286C36.8672 17.4286 36.8672 17.4286 36.9632 17.3333L43.5877 13.5238C43.7798 13.4286 43.8758 13.2381 43.9718 13.0476C44.0678 12.8571 43.9718 12.6667 43.8758 12.4762C43.7798 12.2857 43.5877 12.1905 43.3957 12.0952C43.2037 12 43.0117 12.0952 42.8197 12.1905L36.1951 16C36.0031 16.0952 35.9071 16.2857 35.8111 16.4762C35.7151 16.6667 35.8111 16.8571 35.9071 17.0476C36.0031 17.1429 36.0991 17.2381 36.1951 17.3333C36.2911 17.4286 36.4831 17.4286 36.5791 17.4286ZM43.5877 36.4762L36.9632 32.6667C36.7712 32.5714 36.5791 32.5714 36.3871 32.5714C36.1951 32.6667 36.0031 32.7619 35.9071 32.9524C35.8111 33.1429 35.8111 33.3333 35.8111 33.5238C35.9071 33.7143 36.0031 33.9048 36.1951 34L42.8197 37.8095C42.9157 37.8095 42.9157 37.9048 43.0117 37.9048C43.1077 37.9048 43.1077 37.9048 43.2037 37.9048C43.2997 37.9048 43.4917 37.9048 43.5877 37.8095C43.6838 37.7143 43.7798 37.619 43.8758 37.5238C43.9718 37.3333 43.9718 37.1429 43.9718 36.9524C43.8758 36.7619 43.7798 36.5714 43.5877 36.4762ZM7.20062 32.6667L0.57605 36.4762C0.384033 36.5714 0.288025 36.7619 0.192017 36.9524C0.0960083 37.1429 0.192017 37.3333 0.288025 37.5238C0.384033 37.619 0.480041 37.7143 0.57605 37.8095C0.672058 37.9048 0.864074 37.9048 0.960083 37.9048C1.05609 37.9048 1.05609 37.9048 1.1521 37.9048C1.24811 37.9048 1.24811 37.9048 1.34412 37.8095L7.96869 34C8.1607 33.9048 8.25671 33.7143 8.35272 33.5238C8.44873 33.3333 8.35272 33.1429 8.25671 32.9524C8.1607 32.7619 7.96869 32.6667 7.77667 32.5714C7.58465 32.4762 7.39264 32.5714 7.20062 32.6667ZM0.57605 13.5238L7.20062 17.3333C7.29663 17.3333 7.29663 17.4286 7.39264 17.4286C7.48864 17.4286 7.48864 17.4286 7.58465 17.4286C7.68066 17.4286 7.87268 17.4286 7.96869 17.3333C8.06469 17.2381 8.1607 17.1429 8.25671 17.0476C8.35272 16.8571 8.35272 16.6667 8.35272 16.4762C8.25671 16.2857 8.1607 16.0952 7.96869 16L1.34412 12.1905C1.1521 12.0952 0.960083 12.0952 0.768066 12.0952C0.57605 12.1905 0.384033 12.2857 0.288025 12.4762C0.192017 12.6667 0.192017 12.8571 0.192017 13.0476C0.288025 13.2381 0.384033 13.4286 0.57605 13.5238ZM30.0506 11.2381C30.1466 11.2381 30.1466 11.3333 30.2426 11.3333C30.3386 11.3333 30.3386 11.3333 30.4346 11.3333C30.5306 11.3333 30.7226 11.3333 30.8186 11.2381C30.9147 11.1429 31.0107 11.0476 31.1067 10.9524L33.4109 7.04762C33.5069 6.85714 33.5069 6.66667 33.5069 6.47619C33.4109 6.28571 33.3149 6.09524 33.1228 6C32.9308 5.90476 32.7388 5.90476 32.5468 5.90476C32.3548 6 32.1628 6.09524 32.0668 6.28571L29.7626 10.1905C29.6666 10.381 29.6665 10.5714 29.6665 10.7619C29.7626 10.9524 29.8586 11.1429 30.0506 11.2381ZM43.2997 24.2857H38.7873C38.5953 24.2857 38.4033 24.381 38.2113 24.4762C38.1153 24.5714 38.0193 24.7619 38.0193 25.0476C38.0193 25.2381 38.1153 25.4286 38.2113 25.619C38.3073 25.7143 38.4993 25.8095 38.7873 25.8095H43.2997C43.4917 25.8095 43.6838 25.7143 43.8758 25.619C43.9718 25.5238 44.0678 25.3333 44.0678 25.0476C44.0678 24.8571 43.9718 24.6667 43.8758 24.4762C43.7798 24.381 43.5877 24.2857 43.2997 24.2857ZM31.0107 39.0476C30.9147 38.8571 30.7226 38.7619 30.5306 38.6667C30.3386 38.5714 30.1466 38.6667 29.9546 38.7619C29.7626 38.8571 29.6666 39.0476 29.5705 39.2381C29.4745 39.4286 29.5705 39.619 29.6665 39.8095L31.9707 43.7143C32.0668 43.8095 32.1628 43.9048 32.2588 44C32.3548 44.0952 32.5468 44.0952 32.6428 44.0952C32.7388 44.0952 32.7388 44.0952 32.8348 44.0952C32.9308 44.0952 32.9308 44.0952 33.0268 44C33.2189 43.9048 33.3149 43.7143 33.4109 43.5238C33.5069 43.3333 33.4109 43.1429 33.3149 42.9524L31.0107 39.0476ZM14.0172 38.7619C13.8252 38.6667 13.6332 38.6667 13.4412 38.6667C13.2491 38.7619 13.0571 38.8571 12.9611 39.0476L10.6569 42.9524C10.5609 43.1429 10.5609 43.3333 10.5609 43.5238C10.6569 43.7143 10.7529 43.9048 10.9449 44C11.0409 44 11.0409 44.0952 11.137 44.0952C11.233 44.0952 11.233 44.0952 11.329 44.0952C11.425 44.0952 11.617 44.0952 11.713 44C11.809 43.9048 11.905 43.8095 12.001 43.7143L14.3052 39.8095C14.4012 39.619 14.4012 39.4286 14.4012 39.2381C14.3052 39.0476 14.2092 38.8571 14.0172 38.7619ZM0.768066 25.7143H5.28045C5.47247 25.7143 5.66449 25.619 5.8565 25.5238C5.95251 25.4286 6.04852 25.2381 6.04852 24.9524C6.04852 24.7619 5.95251 24.5714 5.8565 24.381C5.7605 24.2857 5.56848 24.1905 5.28045 24.1905H0.768066C0.57605 24.1905 0.384033 24.2857 0.192017 24.381C0.0960083 24.4762 0 24.6667 0 24.9524C0 25.1429 0.0960083 25.3333 0.192017 25.5238C0.288025 25.619 0.480041 25.7143 0.768066 25.7143ZM13.0571 10.9524C13.1531 11.0476 13.2491 11.1429 13.3451 11.2381C13.4412 11.3333 13.6332 11.3333 13.7292 11.3333C13.8252 11.3333 13.8252 11.3333 13.9212 11.3333C14.0172 11.3333 14.0172 11.3333 14.1132 11.2381C14.3052 11.1429 14.4012 10.9524 14.4972 10.7619C14.5933 10.5714 14.4972 10.381 14.4012 10.1905L12.097 6.28571C12.001 6.09524 11.809 6 11.617 5.90476C11.425 5.80952 11.233 5.90476 11.0409 6C10.8489 6.09524 10.7529 6.28571 10.6569 6.47619C10.5609 6.66667 10.6569 6.85714 10.7529 7.04762L13.0571 10.9524ZM22.0819 9.14286C22.2739 9.14286 22.4659 9.04762 22.6579 8.95238C22.754 8.85714 22.85 8.66667 22.85 8.38095V0.761905C22.85 0.571429 22.754 0.380952 22.6579 0.190476C22.5619 0.0952381 22.3699 0 22.0819 0C21.8899 0 21.6979 0.0952381 21.5058 0.190476C21.4098 0.285714 21.3138 0.47619 21.3138 0.761905V8.38095C21.3138 8.57143 21.4098 8.7619 21.5058 8.95238C21.6019 9.04762 21.7939 9.14286 22.0819 9.14286ZM22.0819 37.0476C18.7216 37.0476 15.6493 35.7143 13.4412 33.5238C11.233 31.3333 9.88885 28.2857 9.88885 24.9524C9.88885 21.619 11.233 18.5714 13.4412 16.381C15.6493 14.1905 18.7216 12.8571 22.0819 12.8571C25.4422 12.8571 28.5145 14.1905 30.7226 16.381C32.9308 18.5714 34.2749 21.619 34.2749 24.9524C34.2749 28.2857 32.9308 31.3333 30.7226 33.5238C28.5145 35.7143 25.4422 37.0476 22.0819 37.0476Z" fill="#F03033"/>
</svg>
