<svg width="50" height="50" viewBox="0 0 50 50" fill="none" xmlns="http://www.w3.org/2000/svg">
<path fill-rule="evenodd" clip-rule="evenodd" d="M6.14035 0H43.7134C47.2222 0 50 4.09357 50 9.35672C50 14.6199 47.2222 18.7134 43.7134 18.7134V45.7602C43.7134 48.0994 41.8129 50 39.4737 50H11.4035C11.1111 50 10.8187 49.8538 10.6725 49.7076L0.292398 39.3275C0.146199 39.1813 0 38.8889 0 38.5965V9.35672C0 4.09357 2.77778 0 6.28655 0H6.14035ZM43.7134 16.6667C45.9064 16.6667 47.9532 13.3041 47.9532 9.35672C47.9532 5.40936 46.0526 2.04678 43.7134 2.04678H10.0877C11.5497 3.80117 12.4269 6.28655 12.4269 9.35672C12.4269 12.2807 11.5497 14.9123 10.0877 16.6667H43.7134ZM10.3801 46.4912V41.6667C10.3801 40.4971 9.50292 39.6199 8.33333 39.6199H3.50877L10.3801 46.4912ZM2.04678 37.5731H8.33333C10.6725 37.5731 12.5731 39.4737 12.5731 41.8129V48.0994H39.6199C40.7895 48.0994 41.6667 47.2222 41.6667 46.0526V19.0058H6.28655C4.67836 19.0058 3.21637 18.1287 2.04678 16.6667V37.8655V37.5731ZM6.28655 16.6667C8.47953 16.6667 10.5263 13.3041 10.5263 9.35672C10.5263 5.40936 8.62573 2.04678 6.28655 2.04678C4.09357 2.04678 2.04678 5.40936 2.04678 9.35672C2.04678 13.3041 3.94737 16.6667 6.28655 16.6667Z" fill="#F03033"/>
<path fill-rule="evenodd" clip-rule="evenodd" d="M6.1405 6.28656C7.31009 6.28656 8.18728 7.60235 8.18728 9.35674C8.18728 11.1111 7.31009 12.4269 6.1405 12.4269C4.97091 12.4269 4.09371 11.1111 4.09371 9.35674C4.09371 7.60235 4.97091 6.28656 6.1405 6.28656Z" fill="#F03033"/>
</svg>
