<svg width="73" height="50" viewBox="0 0 73 50" fill="none" xmlns="http://www.w3.org/2000/svg">
<path fill-rule="evenodd" clip-rule="evenodd" d="M26.479 47.7647H7.49848C6.09251 47.7647 4.68655 47.1765 3.74924 46.2353C2.81193 45.2941 2.22611 44 2.22611 42.4706V23.5294C2.22611 20.7059 2.81193 18 3.8664 15.5294C4.92088 13.0588 6.44401 10.7059 8.43579 8.70588C10.4276 6.70588 12.7708 5.17647 15.2313 4.11765C17.6917 3.05882 20.5037 2.58824 23.1984 2.58824C28.9394 2.58824 34.2118 4.94118 37.961 8.82353C41.7103 12.7059 44.0536 18 44.0536 23.7647V28.7059C44.0536 29.6471 44.2879 30.5882 44.6394 31.5294C44.9909 32.3529 45.5767 33.1765 46.2797 33.8824L48.2715 35.8824C48.7401 36.3529 49.2088 36.9412 49.4431 37.6471C49.6774 38.2353 49.7946 38.9412 49.7946 39.6471V47.7647H31.9857C31.7514 47.7647 31.3999 47.8824 31.2827 48.1176C31.0484 48.3529 30.9312 48.5882 30.9312 48.8235C30.9312 49.0588 31.0484 49.4118 31.2827 49.5294C31.517 49.7647 31.7514 49.8824 31.9857 49.8824H71.587C71.8214 49.8824 72.1729 49.7647 72.29 49.5294C72.5243 49.2941 72.6415 49.0588 72.6415 48.8235V39.4118C72.6415 39.1765 72.5243 38.8235 72.29 38.7059C72.0557 38.4706 71.8214 38.3529 71.587 38.3529H66.9005C66.6662 38.3529 66.3147 38.4706 66.1975 38.7059C65.9632 38.9412 65.846 39.1765 65.846 39.4118V43.0588H60.808C60.5736 43.0588 60.2222 43.1765 60.105 43.4118C59.8707 43.6471 59.7535 43.8824 59.7535 44.1176C59.7535 44.3529 59.8707 44.7059 60.105 44.8235C60.3393 45.0588 60.5736 45.1765 60.808 45.1765H65.846V47.8824H51.7864V45.1765H55.4184C55.6528 45.1765 56.0043 45.0588 56.1214 44.8235C56.3558 44.5882 56.4729 44.3529 56.4729 44.1176C56.4729 43.8824 56.3558 43.5294 56.1214 43.4118C55.8871 43.1765 55.6528 43.0588 55.4184 43.0588H51.7864V39.6471C51.7864 38.7059 51.552 37.7647 51.2005 36.8235C50.8491 36 50.2632 35.1765 49.5603 34.4706L47.5685 32.4706C47.0998 32 46.6312 31.4118 46.3968 30.7059C46.1625 30.1176 46.0453 29.4118 46.0453 28.7059V23.7647C46.0453 22.1176 45.9282 20.5882 45.5767 19.0588C45.2252 17.5294 44.7565 16 44.1707 14.5882V14.4706L45.6939 12.9412C45.9282 12.7059 46.1625 12.3529 46.2797 12.1176C46.3968 11.7647 46.514 11.4118 46.514 11.1765C46.514 10.8235 46.3968 10.4706 46.2797 10.2353C46.1625 9.88235 45.9282 9.64706 45.6939 9.41176L45.108 8.82353C44.8737 8.58823 44.6394 8.23529 44.5222 7.88235C44.4051 7.52941 44.4051 7.17647 44.5222 6.82353L44.7565 5.64706C44.8737 5.17647 44.8737 4.82353 44.7565 4.35294C44.6394 4 44.4051 3.52941 44.0536 3.29412L43.2334 2.47059C42.8819 2.11765 42.5304 1.88235 42.1789 1.76471C41.8274 1.64706 41.3588 1.64706 40.8901 1.76471L39.7185 2C39.367 2.11765 39.0155 2 38.664 2C38.3125 1.88235 38.0782 1.76471 37.7267 1.41176L37.1409 0.823529C36.9066 0.588235 36.5551 0.352941 36.3208 0.235294C35.9693 0.117647 35.6178 0 35.3834 0C35.032 0 34.6805 0.117647 34.4461 0.235294C34.0946 0.352941 33.8603 0.588235 33.626 0.823529L32.1029 2.35294H31.9857C30.5797 1.76471 29.1738 1.29412 27.6506 0.941176C26.1275 0.588235 24.6044 0.470588 23.0813 0.470588C20.035 0.470588 16.9887 1.05882 14.294 2.23529C11.5992 3.41176 9.02161 5.05882 6.7955 7.29412C4.56939 9.52941 2.92909 12 1.75746 14.8235C0.585819 17.5294 0 20.5882 0 23.6471V42.5882C0 43.7647 0.234328 44.8235 0.702982 45.7647C1.17164 46.8235 1.87462 47.6471 2.81193 48.3529C3.51491 48.8235 4.21789 49.1765 5.03804 49.5294C5.85819 49.7647 6.91266 50 7.96713 50H26.2447C26.479 50 26.8305 49.8824 26.9477 49.6471C27.182 49.4118 27.2991 49.1765 27.2991 48.9412C27.2991 48.7059 27.182 48.3529 26.9477 48.2353C26.7133 48 26.479 47.8824 26.2447 47.8824L26.479 47.7647ZM39.367 7.41176C37.8439 5.88235 36.2036 4.58824 34.329 3.52941L34.2118 3.41176L35.1491 2.47059C35.2663 2.35294 35.2663 2.35294 35.3834 2.35294C35.5006 2.35294 35.5006 2.35294 35.5006 2.35294H35.6178C35.7349 2.35294 35.7349 2.47059 35.8521 2.47059L36.4379 3.05882C36.9066 3.52941 37.4924 3.88235 38.1954 4.11765C38.8984 4.35294 39.6013 4.35294 40.1872 4.23529L41.3588 4C41.476 4 41.5931 4 41.5931 4C41.7103 4 41.7103 4.11765 41.8274 4.11765L42.6476 4.94118C42.7648 5.05882 42.7648 5.05882 42.7648 5.17647C42.7648 5.29412 42.7648 5.29412 42.7648 5.41176L42.5304 6.58824C42.4133 7.29412 42.4133 8 42.6476 8.58823C42.8819 9.29412 43.2334 9.88235 43.7021 10.3529L44.4051 11.0588C44.4051 11.1765 44.4051 11.1765 44.4051 11.2941C44.4051 11.2941 44.4051 11.4118 44.4051 11.5294C44.4051 11.5294 44.2879 11.6471 44.2879 11.7647L43.2334 12.8235L43.1162 12.7059C42.0618 10.8235 40.773 9.05882 39.2499 7.52941L39.367 7.41176ZM67.955 47.7647V40.3529H70.6497V47.7647H67.955Z" fill="#F03033"/>
<path fill-rule="evenodd" clip-rule="evenodd" d="M9.60746 23.7645C9.60746 27.5292 11.1306 30.8234 13.591 33.2939C16.0515 35.7645 19.332 37.2939 23.0813 37.2939C26.8305 37.2939 30.1111 35.7645 32.5715 33.2939C35.032 30.8234 36.5551 27.5292 36.5551 23.7645C36.5551 19.9998 35.032 16.7057 32.5715 14.2351C30.1111 11.7645 26.8305 10.2351 23.0813 10.2351C19.332 10.2351 16.0515 11.7645 13.591 14.2351C11.1306 16.7057 9.60746 19.9998 9.60746 23.7645ZM11.7164 23.7645C11.7164 20.5881 13.0052 17.7645 14.997 15.6469C17.1059 13.5292 19.9179 12.3528 23.0813 12.3528C26.2447 12.3528 29.0566 13.6469 31.1656 15.6469C33.2745 17.7645 34.4462 20.5881 34.4462 23.7645C34.4462 26.941 33.1574 29.7645 31.1656 31.8822C29.0566 33.9998 26.2447 35.1763 23.0813 35.1763C19.9179 35.1763 17.1059 33.8822 14.997 31.8822C12.888 29.7645 11.7164 26.941 11.7164 23.7645Z" fill="#F03033"/>
<path fill-rule="evenodd" clip-rule="evenodd" d="M15.7 23.7649C15.7 25.7649 16.5201 27.6472 17.8089 28.9414C19.0977 30.2355 20.9723 31.059 22.9641 31.059C24.9559 31.059 26.8305 30.2355 28.1193 28.9414C29.4081 27.6472 30.2283 25.7649 30.2283 23.7649C30.2283 21.7649 29.4081 19.8825 28.1193 18.5884C26.8305 17.2943 24.9559 16.4708 22.9641 16.4708C20.9723 16.4708 19.0977 17.2943 17.8089 18.5884C16.5201 19.8825 15.7 21.7649 15.7 23.7649ZM19.332 27.5296C18.3947 26.5884 17.8089 25.2943 17.8089 23.7649C17.8089 22.3531 18.3947 20.9414 19.332 20.0002C20.2693 19.059 21.5581 18.4708 23.0813 18.4708C24.4872 18.4708 25.8932 19.059 26.8305 20.0002C27.7678 20.9414 28.3536 22.2355 28.3536 23.7649C28.3536 25.1767 27.7678 26.5884 26.8305 27.5296C25.8932 28.4708 24.6044 29.059 23.0813 29.059C21.6753 29.059 20.2693 28.4708 19.332 27.5296Z" fill="#F03033"/>
<path fill-rule="evenodd" clip-rule="evenodd" d="M33.6261 34.8237C32.9231 35.5296 32.4544 36.5884 32.4544 37.7648C32.4544 38.9413 32.9231 40.0001 33.6261 40.706C34.3291 41.4119 35.3835 41.8825 36.5552 41.8825C37.7268 41.8825 38.7813 41.4119 39.4843 40.706C40.1872 40.0001 40.6559 38.9413 40.6559 37.7648C40.6559 36.5884 40.1872 35.5296 39.4843 34.8237C38.7813 34.1178 37.7268 33.6472 36.5552 33.6472C35.3835 33.6472 34.3291 34.1178 33.6261 34.8237ZM35.032 39.2943C34.6806 38.9413 34.4462 38.3531 34.4462 37.7648C34.4462 37.1766 34.6806 36.706 35.032 36.2354C35.3835 35.8825 35.9694 35.6472 36.5552 35.6472C37.141 35.6472 37.6096 35.8825 38.0783 36.2354C38.4298 36.5884 38.6641 37.1766 38.6641 37.7648C38.6641 38.3531 38.4298 38.8237 38.0783 39.2943C37.7268 39.6472 37.141 39.8825 36.5552 39.8825C35.9694 39.8825 35.5007 39.6472 35.032 39.2943Z" fill="#F03033"/>
</svg>
