<svg width="56" height="50" viewBox="0 0 56 50" fill="none" xmlns="http://www.w3.org/2000/svg">
<path d="M51.3727 0H17.9141C15.9087 0 14.2199 1.68067 14.2199 3.67647V4.41176L10.5257 3.67647C9.5758 3.46639 8.62588 3.67647 7.78149 4.30672C6.93711 4.83193 6.40937 5.67227 6.19828 6.61765L0.0765118 39.4958C-0.345679 41.4916 1.02644 43.3824 3.03185 43.8025L35.9627 49.895C36.1738 49.895 36.3849 50 36.596 50C37.3349 50 38.0737 49.7899 38.707 49.3697C39.5514 48.8445 40.0791 48.0042 40.2902 47.0588L41.4512 40.8613H51.4782C53.4837 40.8613 55.1724 39.1807 55.1724 37.1849V3.78151C55.1724 1.78571 53.4837 0.105042 51.4782 0.105042L51.3727 0ZM53.4836 37.0798C53.4836 38.2353 52.5337 39.1807 51.3727 39.1807H24.6691C24.2469 39.1807 23.8247 39.4958 23.8247 40.021C23.8247 40.4412 24.1414 40.8613 24.6691 40.8613H39.6569L38.6014 46.7437C38.4959 47.2689 38.1792 47.7941 37.757 48.1092C37.3349 48.4244 36.7016 48.5294 36.1738 48.4244L3.24294 42.3319C2.08192 42.1218 1.34308 41.0714 1.55418 39.916L7.67595 7.03782C7.78149 6.51261 8.09814 5.98739 8.52033 5.67227C8.94252 5.35714 9.5758 5.2521 10.1035 5.35714L14.1144 6.09244V37.1849C14.1144 39.1807 15.8031 40.8613 17.8085 40.8613H20.8694C21.2916 40.8613 21.7138 40.5462 21.7138 40.021C21.7138 39.6008 21.3971 39.1807 20.8694 39.1807H17.8085C16.6475 39.1807 15.6976 38.2353 15.6976 37.0798V3.67647C15.6976 2.52101 16.6475 1.57563 17.8085 1.57563H51.2671C52.4282 1.57563 53.3781 2.52101 53.3781 3.67647V37.0798H53.4836Z" fill="#F03033"/>
<path d="M50.9507 3.25637H18.1254C17.7032 3.25637 17.281 3.5715 17.281 4.09671V32.0379C17.281 32.458 17.5976 32.8782 18.1254 32.8782H50.9507C51.3729 32.8782 51.7951 32.5631 51.7951 32.0379V11.2396C51.7951 10.8194 51.4784 10.3992 50.9507 10.3992C50.5285 10.3992 50.1063 10.7144 50.1063 11.2396V25.3152L43.1402 18.3824C42.8235 18.0673 42.2958 18.0673 41.9792 18.3824L37.2295 23.1093L29.9467 15.8614C29.6301 15.5463 29.1023 15.5463 28.7857 15.8614L21.9251 22.6891H18.8642V5.04209H50.0008V7.56309C50.0008 7.98326 50.3174 8.40343 50.8452 8.40343C51.2673 8.40343 51.6895 8.0883 51.6895 7.56309V4.20175C51.6895 3.78158 51.3729 3.36141 50.8452 3.36141L50.9507 3.25637ZM22.3473 24.1597C22.5584 24.1597 22.7695 24.0547 22.875 23.9496L29.3134 17.5421L36.5962 24.79C36.9129 25.1051 37.4406 25.1051 37.7572 24.79L42.5069 20.0631L50.1063 27.6261V31.3026H18.9698V24.2648H22.3473V24.1597Z" fill="#F03033"/>
<path d="M33.0073 12.1848C33.0073 14.4957 34.9071 16.3865 37.2292 16.3865C39.5512 16.3865 41.4511 14.4957 41.4511 12.1848C41.4511 9.87386 39.5512 7.98311 37.2292 7.98311C34.9071 7.98311 33.0073 9.87386 33.0073 12.1848ZM39.8679 12.1848C39.8679 13.6554 38.7069 14.8108 37.2292 14.8108C35.7515 14.8108 34.5905 13.6554 34.5905 12.1848C34.5905 10.7142 35.7515 9.55874 37.2292 9.55874C38.7069 9.55874 39.8679 10.7142 39.8679 12.1848Z" fill="#F03033"/>
</svg>
