<svg width="73" height="50" viewBox="0 0 73 50" fill="none" xmlns="http://www.w3.org/2000/svg">
<path fill-rule="evenodd" clip-rule="evenodd" d="M55.7048 42.2101C55.8871 42.3913 56.1607 42.5725 56.5253 42.5725C58.8046 42.5725 60.9015 41.6667 62.4514 40.1268C64.0013 38.587 64.913 36.5942 64.913 34.2391C64.913 33.9674 64.8218 33.6957 64.5483 33.4239C64.3659 33.2428 64.0924 33.0616 63.7278 33.0616C63.4543 33.0616 63.1807 33.1522 62.9072 33.4239C62.7249 33.6051 62.5425 33.8768 62.5425 34.2391C62.5425 35.9601 61.8132 37.4094 60.7192 38.4964C59.6251 39.5833 58.0752 40.308 56.4342 40.308C56.1607 40.308 55.8871 40.3985 55.6136 40.6703C55.4313 40.8514 55.249 41.1232 55.249 41.4855C55.249 41.7572 55.3401 42.029 55.6136 42.3007L55.7048 42.2101ZM15.043 42.2101C15.2254 42.3913 15.4989 42.5725 15.8636 42.5725C18.1428 42.5725 20.2397 41.6667 21.7896 40.1268C23.3395 38.587 24.2512 36.5942 24.2512 34.2391C24.2512 33.9674 24.16 33.6957 23.8865 33.4239C23.7042 33.2428 23.4307 33.0616 23.066 33.0616C22.7925 33.0616 22.519 33.1522 22.2455 33.4239C22.0631 33.6051 21.8808 33.8768 21.8808 34.2391C21.8808 35.9601 21.1514 37.4094 20.0574 38.4964C18.9633 39.5833 17.4135 40.308 15.7724 40.308C15.4989 40.308 15.2254 40.3985 14.9519 40.6703C14.7695 40.8514 14.5872 41.1232 14.5872 41.4855C14.5872 41.7572 14.6784 42.029 14.9519 42.3007L15.043 42.2101ZM4.64966 45.3804C7.47593 48.1884 11.4874 50 15.7724 50C20.1485 50 24.0689 48.279 26.8951 45.3804C29.7214 42.5725 31.5448 38.587 31.5448 34.3297C31.5448 31.1594 29.9037 26.3587 27.7156 21.3768C23.4307 11.6848 17.0488 1.26812 16.6841 0.634058C16.5929 0.452899 16.4106 0.362319 16.3194 0.271739C16.1371 0.181159 15.9547 0.0905797 15.7724 0.0905797C15.5901 0.0905797 15.4077 0.181159 15.2254 0.271739C15.043 0.362319 14.9519 0.452899 14.8607 0.634058C14.496 1.26812 8.11412 11.6848 3.82914 21.3768C1.64106 26.3587 0 31.1594 0 34.3297C0 38.6775 1.73223 42.5725 4.64966 45.3804ZM5.65253 22.6449C8.4788 16.0326 12.5814 8.69565 15.3165 4.07609L15.7724 3.26087L16.2282 4.07609C18.9633 8.69565 23.066 16.1232 25.8922 22.6449C27.898 27.2645 29.3567 31.5217 29.3567 34.2391C29.3567 37.9529 27.8068 41.3043 25.3452 43.75C22.8836 46.1957 19.5104 47.7355 15.7724 47.7355C12.0344 47.7355 8.66114 46.1957 6.19955 43.75C3.73797 41.3043 2.18808 37.9529 2.18808 34.2391C2.18808 31.5217 3.6468 27.2645 5.65253 22.6449ZM32.8212 49.6377C33.9152 49.8188 35.0092 50 36.1033 50C40.4794 50 44.3997 48.279 47.226 45.3804C50.0523 42.5725 51.8757 38.587 51.8757 34.3297C51.8757 31.1594 50.2346 26.3587 48.0465 21.3768C43.7616 11.6848 37.3797 1.26812 37.015 0.634058C36.9238 0.452899 36.7415 0.362319 36.6503 0.271739C36.468 0.181159 36.2856 0.0905797 36.1033 0.0905797C35.9209 0.0905797 35.7386 0.181159 35.5563 0.271739C35.3739 0.362319 35.2827 0.452899 35.1916 0.634058C35.1004 0.724638 33.5505 3.35145 31.3624 7.24638C30.2684 9.23913 28.992 11.5036 27.8068 13.8587C27.6245 14.1304 27.6245 14.4022 27.7156 14.6739C27.8068 14.9457 27.9892 15.2174 28.2627 15.308C28.5362 15.4891 28.8097 15.4891 29.0832 15.3986C29.3567 15.308 29.6302 15.1268 29.7214 14.8551C30.8154 12.6812 32.0006 10.5978 33.0035 8.78623C34.0064 6.88406 34.9181 5.3442 35.6474 4.16667L36.1033 3.35145L36.5591 4.16667C39.2942 8.78623 43.3969 16.2138 46.2231 22.7355C48.2289 27.3551 49.6876 31.6123 49.6876 34.3297C49.6876 38.0435 48.1377 41.3949 45.6761 43.8406C43.2145 46.2862 39.8412 47.8261 36.1033 47.8261C35.1916 47.8261 34.1887 47.7355 33.277 47.5543C32.3653 47.3732 31.5448 47.1014 30.7243 46.7391L30.6331 46.6486C30.3596 46.558 30.0861 46.558 29.8126 46.6486C29.539 46.7391 29.3567 46.9203 29.1744 47.192C29.0832 47.4638 29.0832 47.7355 29.1744 48.0072C29.2655 48.279 29.4479 48.4601 29.7214 48.6413C30.7243 49.0942 31.8183 49.4565 32.8212 49.6377ZM35.2827 42.2101C35.4651 42.3913 35.7386 42.5725 36.1033 42.5725C38.3825 42.5725 40.4794 41.6667 42.0293 40.1268C43.5792 38.587 44.4909 36.5942 44.4909 34.2391C44.4909 33.9674 44.3997 33.6957 44.1262 33.4239C43.9439 33.2428 43.6704 33.0616 43.3057 33.0616C43.0322 33.0616 42.7587 33.1522 42.4852 33.4239C42.3028 33.6051 42.1205 33.8768 42.1205 34.2391C42.1205 35.8696 41.3911 37.4094 40.2971 38.4964C39.2031 39.5833 37.6532 40.308 36.0121 40.308C35.7386 40.308 35.4651 40.3985 35.1916 40.6703C35.0092 40.8514 34.8269 41.1232 34.8269 41.4855C34.8269 41.7572 34.9181 42.029 35.1916 42.3007L35.2827 42.2101ZM53.2432 49.6377C54.2461 49.8188 55.3401 49.9094 56.343 49.9094C60.7192 49.9094 64.6395 48.1884 67.4657 45.2899C70.292 42.4819 72.1154 38.4964 72.1154 34.2391C72.1154 31.0688 70.4743 26.2681 68.2862 21.2862C64.0013 11.5942 57.6194 1.17754 57.2547 0.543478C57.1635 0.362319 56.9812 0.271739 56.89 0.181159C56.7077 0.0905797 56.5253 0 56.343 0C56.1607 0 55.9783 0.0905797 55.796 0.181159C55.6136 0.271739 55.5225 0.362319 55.4313 0.543478C55.4313 0.543478 53.7902 3.26087 51.6022 7.1558C50.5081 9.14855 49.2317 11.413 48.0465 13.7681C47.8642 14.0399 47.8642 14.3116 47.9554 14.5833C48.0465 14.8551 48.2289 15.1268 48.5024 15.2174C48.7759 15.3986 49.0494 15.3986 49.3229 15.308C49.5964 15.2174 49.8699 15.0362 49.9611 14.7645C50.964 12.8623 51.8757 11.1413 52.7874 9.51087C53.9726 7.33696 55.0666 5.43478 55.8871 4.07609L56.343 3.26087L56.7988 4.07609C59.5339 8.69565 63.6366 16.1232 66.4629 22.6449C68.4686 27.2645 69.9273 31.5217 69.9273 34.2391C69.9273 37.9529 68.3774 41.3043 65.9158 43.75C63.4542 46.1957 60.081 47.7355 56.343 47.7355C55.4313 47.7355 54.5196 47.6449 53.6079 47.4638C52.6962 47.2826 51.8757 47.0109 51.0551 46.6486C50.7816 46.558 50.5081 46.558 50.2346 46.6486C49.9611 46.7391 49.7788 46.9203 49.5964 47.192C49.5053 47.4638 49.5053 47.7355 49.5964 48.0072C49.6876 48.279 49.8699 48.4601 50.1434 48.6413C51.1463 49.0942 52.1492 49.3659 53.1521 49.5471L53.2432 49.6377Z" fill="#F03033"/>
</svg>
