<svg width="119" height="40" viewBox="0 0 119 40" fill="none" xmlns="http://www.w3.org/2000/svg">
<path fill-rule="evenodd" clip-rule="evenodd" d="M0.038458 3.88409C0.038458 5.8363 1.15374 8.23589 1.67293 9.88307C2.44209 12.3437 1.99982 13.9705 2.96127 16.2278C4.46113 19.7661 6.8263 21.332 10.4221 21.9014C11.0375 22.003 11.5759 21.8404 12.0374 22.1454C10.8067 22.4504 9.90295 22.8775 8.03773 22.5724C5.92254 22.2267 4.94186 22.9995 4.94186 25.4601C4.94186 29.0798 5.98023 33.0452 7.11474 36.0346C7.36472 36.6853 7.55701 37.3564 7.8839 37.8444C8.74921 39.1256 9.69143 39.9187 10.7106 40H11.0182C11.6912 39.9593 12.4027 39.573 13.1142 38.8002C13.3834 38.5155 13.6718 38.2511 13.8834 37.9664C14.5948 37.031 15.2678 35.9329 15.8639 34.8754L16.46 33.7367C16.6523 33.3299 16.7869 32.9639 16.9792 32.5369C17.3446 31.7438 17.633 30.9304 17.9215 30.1169C18.6329 28.0224 18.9021 26.9649 19.4598 24.911C19.6905 24.0366 19.9405 22.5928 20.3251 22.3081C21.1904 22.9792 20.5751 26.6802 21.6134 27.4733C22.1326 27.331 22.2672 26.3955 22.2672 25.8058C22.2672 25.8058 20.5558 21.2913 21.6903 16.3091C21.748 16.0447 21.8442 15.7397 21.8634 15.516C21.9019 15.15 21.8826 14.8856 21.9403 14.5196C22.1326 13.2588 21.5557 14.1535 20.9212 13.5231C20.7289 13.3401 20.6712 13.1978 20.5174 12.9741C19.9982 12.303 19.6905 11.7539 19.4021 10.9405C19.1329 10.2084 18.9214 9.17133 18.8252 8.31723C18.7098 7.23945 19.0367 7.52415 18.6522 7.23945C18.3253 7.50381 18.6137 8.74428 18.7098 9.23233C18.9406 10.6355 19.3252 11.5709 20.0366 12.7097C20.1905 12.9537 20.3443 13.1774 20.4981 13.4011C20.6904 13.6655 20.8827 13.8078 21.0558 14.0722C20.0943 15.577 21.1904 15.0686 20.9596 16.1261H20.7673C20.3251 14.1535 17.4407 9.45602 16.1716 7.80885C14.6141 5.77529 12.7104 4.10778 10.5952 2.76563C10.1337 2.4606 9.69143 2.25724 9.19147 1.99288C7.82621 1.2608 4.32653 0 2.67283 0C0.634558 0 0 1.99288 0 3.80275L0.038458 3.88409Z" fill="#F03033"/>
<path fill-rule="evenodd" clip-rule="evenodd" d="M40.5542 21.1682C40.5542 19.1345 40.3812 16.7551 41.5542 15.1892C41.8618 14.7825 42.381 14.4774 42.9002 14.2741C43.9386 13.8673 45.2269 13.9487 46.3806 13.9487C50.9956 13.9487 50.4764 17.5889 50.7649 19.5616C50.8802 20.314 50.6495 22.429 50.4572 23.2425C50.0342 24.9508 49.1496 25.8049 47.3613 26.1099C46.5152 26.2523 44.4962 26.2116 43.7655 26.0896C42.6502 25.8862 41.8234 25.4185 41.3426 24.5644C40.8427 23.6899 40.5735 22.5307 40.5735 21.1885L40.5542 21.1682ZM37.3238 19.1142C37.3238 21.941 37.2469 24.7067 38.9582 26.7607C40.9196 29.1198 44.3424 28.7944 47.2844 28.7944C48.342 28.7944 49.4957 28.5097 50.2457 28.225C53.88 26.8421 53.9184 22.7137 53.9184 19.1345C53.9184 13.9283 51.6879 11.3253 46.7268 11.3253C44.3039 11.3253 41.458 11.1422 39.5543 12.8098C38.9005 13.3793 38.7852 13.4809 38.3237 14.3351C37.6314 15.5553 37.3238 17.5686 37.3238 19.1345V19.1142Z" fill="white"/>
<path fill-rule="evenodd" clip-rule="evenodd" d="M72.2249 21.1685C72.2249 19.135 72.0518 16.8574 73.1863 15.2509C74.2054 13.807 76.436 13.9494 78.0512 13.9494C80.7241 13.9494 81.974 15.1695 82.3009 17.6708C82.6085 20.0704 82.5508 23.0598 81.5509 24.6866C81.0317 25.5204 80.1857 25.9271 79.0319 26.1304C78.2243 26.2728 76.1283 26.2525 75.4361 26.0898C73.0325 25.5814 72.2249 23.8529 72.2249 21.1889V21.1685ZM68.9944 19.2163C68.9944 22.043 68.9367 24.7273 70.6288 26.7609C72.571 29.0791 75.8976 28.7944 78.782 28.7944C80.8202 28.7944 82.6278 28.225 83.9738 26.7609C85.6275 24.9713 85.6083 21.7379 85.6083 19.1146C85.6083 13.6647 83.1662 11.3057 78.4166 11.3057C75.9745 11.3057 73.1478 11.1227 71.2442 12.7902C70.2635 13.6647 69.8212 14.3764 69.4366 15.7592C69.1482 16.7557 69.0136 17.9555 69.0136 19.2163H68.9944Z" fill="white"/>
<path fill-rule="evenodd" clip-rule="evenodd" d="M87.4541 14.4371V28.5913H90.5884V15.0268C90.5884 14.5388 90.973 14.1524 91.4153 14.1524H97.1455C99.6453 14.1524 98.9146 18.8501 98.3185 19.5009C97.1071 20.8838 92.4344 18.9111 92.4344 21.1685C92.4344 22.5514 93.0497 22.9378 94.165 24.1173L98.3185 28.4286C98.6454 28.7134 99.4915 28.5913 100.203 28.5913C100.914 28.5913 101.626 28.5913 102.318 28.5913C101.991 28.0626 101.357 27.6152 100.818 27.0458L96.9917 23.2835C96.7417 23.0191 96.3379 22.7141 96.2225 22.4294C97.0686 22.4294 97.9531 22.4497 98.8184 22.4294C99.5107 22.409 100.28 22.0023 100.684 21.6566C102.087 20.477 102.049 17.813 102.049 15.9827C102.049 13.2982 100.626 11.4883 98.1647 11.4883H89.8577C89.0886 11.4883 88.3963 11.834 88.031 12.3017C87.6272 12.8102 87.4541 13.5219 87.4541 14.4167V14.4371Z" fill="white"/>
<path fill-rule="evenodd" clip-rule="evenodd" d="M103.703 15.1084C103.703 16.959 103.645 18.2198 105.106 19.4807C105.76 20.0501 107.433 20.5381 108.298 20.8025C109.375 21.1075 110.587 21.6159 111.663 21.9413C114.144 22.6734 114.317 22.9378 114.317 24.6053C114.317 26.0288 113.336 25.9678 112.01 25.9678H100.934C101.049 26.4356 101.645 26.7609 102.164 27.31C102.568 27.7371 102.837 27.9201 103.03 28.3471C103.145 28.5912 103.03 28.7132 103.337 28.7132H113.759C116.509 28.7132 117.644 26.9236 117.644 24.3206C117.644 23.2021 117.413 21.8396 116.663 21.0669L116.374 20.7822C116.144 20.5788 115.99 20.4568 115.721 20.3144C114.317 19.5823 110.933 18.6062 109.51 18.0978C107.914 17.5284 106.837 17.5894 106.837 15.6372C106.837 14.6407 107.452 14.173 108.414 14.173H118.009V11.5293H106.741C106.433 11.5293 105.741 11.753 105.51 11.875C105.299 11.997 104.702 12.4444 104.549 12.6274C104.087 13.1562 103.703 14.1526 103.703 15.1491V15.1084Z" fill="white"/>
<path fill-rule="evenodd" clip-rule="evenodd" d="M22.0944 19.6034C22.0944 22.8571 22.1906 25.5413 24.748 27.5342C25.8249 28.3679 27.5555 28.673 29.0169 28.673H35.747V25.948H29.6514C25.9979 25.948 25.3057 23.6095 25.3057 20.2948C25.3057 17.4479 25.7479 14.6213 28.6515 14.2553C31.1321 13.9502 34.8625 14.1333 37.593 14.1333C37.8046 13.2589 38.9006 12.3031 39.6313 11.7947L39.9967 11.51C37.9007 11.51 28.6131 11.3677 27.344 11.6117C23.652 12.2828 22.0752 15.0484 22.0752 19.6238L22.0944 19.6034Z" fill="white"/>
<path fill-rule="evenodd" clip-rule="evenodd" d="M56.2451 26.9243C56.2451 27.6158 56.5912 28.0631 57.0335 28.3275C57.6104 28.6732 58.0719 28.5919 58.918 28.5919H71.6476C71.5514 28.5105 71.6283 28.5715 71.4937 28.4699C71.4168 28.4089 71.4168 28.4089 71.3207 28.3478C71.1476 28.2462 71.0515 28.1852 70.9169 28.1038C70.34 27.7174 69.3209 26.721 69.167 26.0499H61.2254C60.3601 26.0499 59.2833 26.1516 59.2833 25.2771V11.5098H56.2451V26.9243Z" fill="white"/>
<path fill-rule="evenodd" clip-rule="evenodd" d="M90.1267 34.9362C90.1267 34.0618 90.0498 33.6145 90.2229 32.8824C90.8382 32.5774 91.8766 32.5978 91.8766 33.1671C91.8766 35.7699 92.165 35.5055 90.4921 35.5055C90.2036 35.5055 90.1267 35.2209 90.1267 34.9158V34.9362ZM89.4729 33.1874C89.4729 35.1192 89.146 36.1156 90.7613 36.1156C91.242 36.1156 91.5497 35.9936 91.8766 35.8309C91.8766 36.6443 91.9919 36.8679 91.5689 37.0713C91.0882 37.3153 90.1844 37.1323 89.6652 37.0916C89.6652 37.8236 89.7037 37.7016 91.1459 37.7016C92.0112 37.7016 92.6265 37.3559 92.6265 36.4409V32.3334C92.4535 32.3334 92.3573 32.3334 92.1842 32.3537C92.165 32.3537 92.1266 32.3741 92.1073 32.3741L91.8958 32.4351C91.8958 32.4351 89.4922 31.6217 89.4922 33.2078L89.4729 33.1874Z" fill="#F03033"/>
<path fill-rule="evenodd" clip-rule="evenodd" d="M101.472 35.424C101.106 35.5053 99.8181 35.7697 99.8181 35.1393C99.8181 32.7397 99.5681 32.699 100.741 32.699C101.068 32.699 101.26 32.7803 101.472 32.9024C101.587 33.4311 101.664 34.9766 101.472 35.4443V35.424ZM99.0681 33.4718C99.0681 35.2003 98.7989 36.1154 100.549 36.1154C100.953 36.1154 101.299 35.973 101.568 35.8307C101.568 37.6813 100.991 37.0915 99.3566 37.0915C99.3566 37.8236 99.222 37.6812 100.933 37.6812C101.529 37.6812 102.222 37.3559 102.222 36.7051V32.3126L101.414 32.3533C100.914 32.2719 101.702 32.2109 100.28 32.2109C99.4912 32.2109 99.0874 32.638 99.0874 33.4718H99.0681Z" fill="#F03033"/>
<path fill-rule="evenodd" clip-rule="evenodd" d="M62.2449 35.1194C62.2449 32.9434 62.0142 32.679 62.9756 32.679C64.264 32.679 63.9948 32.984 63.9948 35.1194C63.9948 35.6888 62.2449 35.6888 62.2449 35.1194ZM63.9948 31.6011C63.9948 32.0892 64.0717 32.0282 64.0909 32.4756C63.3218 32.0486 61.5142 31.8859 61.5142 33.1671C61.5142 35.0177 61.1873 36.0955 62.8987 36.0955C63.4371 36.0955 63.7833 35.9328 64.0909 35.7091V35.9938H64.7447V30.625H64.014V31.6011H63.9948Z" fill="#F03033"/>
<path fill-rule="evenodd" clip-rule="evenodd" d="M69.7252 33.0659C69.7252 32.5167 71.302 32.5167 71.302 33.0659V33.7575H69.7252V33.0659ZM68.9945 33.2693C68.9945 34.8355 68.6483 36.0966 70.5713 36.0966C71.0328 36.0966 71.5904 35.9949 71.9558 35.8932C71.9558 34.9779 71.7442 35.5068 70.5713 35.5068C69.5906 35.5068 69.7444 35.0389 69.7444 34.327H72.0519C72.0519 32.537 72.1096 32.1709 70.2059 32.1709C69.5329 32.1709 69.0137 32.5574 69.0137 33.2489L68.9945 33.2693Z" fill="#F03033"/>
<path fill-rule="evenodd" clip-rule="evenodd" d="M58.2834 35.0186C58.2834 34.083 58.2834 34.2457 59.8602 34.2457C59.8602 35.9134 59.9563 35.5067 58.3796 35.5067C58.3219 35.283 58.2834 35.283 58.2834 35.0186ZM57.8219 32.4764V32.7611C59.6295 32.7611 59.8602 32.212 59.8602 33.7373C58.5911 33.7373 57.5527 33.4932 57.5527 34.9169C57.5527 36.2592 58.7642 36.1575 59.5718 35.9745C59.9563 35.8931 59.9756 35.9948 60.6101 35.9948C60.6101 31.8459 60.9755 32.1916 58.1104 32.1916C57.8989 32.1916 57.8412 32.2526 57.8412 32.4764H57.8219Z" fill="#F03033"/>
<path fill-rule="evenodd" clip-rule="evenodd" d="M103.876 33.3709C103.876 33.1065 103.914 33.1065 103.972 32.8828C104.664 32.5371 104.933 32.7405 105.452 32.7811L105.548 33.7572H103.895V33.3709H103.876ZM103.222 33.1675C103.222 34.408 103.029 35.3841 103.664 35.8315C104.299 36.2585 105.433 36.0755 106.087 35.9128V35.3231C105.818 35.4654 103.876 35.9332 103.876 34.7334V34.347C106.625 34.347 106.279 34.591 106.279 33.4725C106.279 32.0897 105.279 32.2117 104.433 32.2117C103.818 32.2117 103.241 32.5574 103.241 33.1878L103.222 33.1675Z" fill="#F03033"/>
<path fill-rule="evenodd" clip-rule="evenodd" d="M95.8572 35.018C95.8572 34.0827 95.8572 34.2453 97.434 34.2453C97.434 35.9127 97.5301 35.506 95.9533 35.506C95.9149 35.2823 95.8572 35.2823 95.8572 35.018ZM95.3957 32.4763V32.761C97.5109 32.578 97.434 32.517 97.434 33.737C96.3379 33.737 95.1265 33.5133 95.1265 34.8147C95.1265 36.8277 97.2417 35.8517 97.4916 35.8923L97.5878 35.933C97.607 35.933 97.6262 35.9533 97.6455 35.9533C97.8762 36.0143 97.9147 35.994 98.1647 35.994C98.1647 31.846 98.53 32.1916 95.6649 32.1916C95.4534 32.1916 95.3957 32.2526 95.3957 32.4763Z" fill="#F03033"/>
<path fill-rule="evenodd" clip-rule="evenodd" d="M107.202 32.2923V35.9944C108.01 35.9944 107.952 36.0555 107.952 35.2215C107.933 33.3704 107.683 32.6788 108.779 32.6788C108.971 32.6788 109.375 32.8008 109.51 32.8822C109.51 33.4314 109.51 33.9806 109.51 34.5502C109.51 35.9741 109.298 36.0148 110.24 36.0148C110.24 32.5974 110.567 32.2109 108.76 32.2109C108.356 32.2109 108.106 32.4144 108.01 32.4144L107.183 32.3126L107.202 32.2923Z" fill="#F03033"/>
<path fill-rule="evenodd" clip-rule="evenodd" d="M85.4155 32.2929V35.9939H86.1462V33.1674C86.1462 32.537 87.3576 32.6996 87.723 32.8827C87.9153 33.7571 87.8191 35.0585 87.8191 36.0143H88.4729V33.086C88.4729 31.6219 86.2616 32.415 86.1462 32.3946L85.4155 32.3133V32.2929Z" fill="#F03033"/>
<path fill-rule="evenodd" clip-rule="evenodd" d="M114.951 37.5593H115.682C115.759 37.1933 115.971 36.6848 116.105 36.2578L117.432 32.292H116.701C116.605 32.7597 116.451 33.2478 116.297 33.7156C116.144 34.1834 116.105 34.8748 115.778 35.1189C115.74 34.7121 115.509 34.102 115.374 33.6953C115.221 33.2072 115.048 32.7597 114.951 32.292H114.221C114.259 32.7394 114.49 33.1868 114.644 33.5936C114.817 34.0817 115.528 35.8103 115.432 36.1967L114.951 37.539V37.5593Z" fill="#F03033"/>
<path fill-rule="evenodd" clip-rule="evenodd" d="M79.9741 33.0651C79.9741 34.7326 80.7817 34.1022 82.0893 34.4276V35.4037C81.1086 35.6478 80.8587 35.4037 80.051 35.4037V35.9935C81.3202 35.9935 82.82 36.6035 82.82 34.6309C82.82 33.5328 81.5317 33.8582 80.7048 33.6548C80.7048 32.1906 81.1663 32.7397 82.647 32.7804V32.1906C81.7624 32.1906 79.9741 31.9669 79.9741 33.0651Z" fill="#F03033"/>
<path fill-rule="evenodd" clip-rule="evenodd" d="M75.8205 32.0081C75.8205 32.3945 75.5898 32.2928 74.9937 32.2928V32.7809H75.8205C75.8205 35.2823 75.4744 36.0958 77.1089 36.0958C77.4358 36.0958 77.4742 36.0145 77.7627 35.9941V35.506C76.3397 35.506 76.4743 36.0348 76.4743 32.7809H77.7627V32.2928C76.2435 32.2928 76.4743 32.5369 76.4743 31.1133H75.8205V31.9878V32.0081Z" fill="#F03033"/>
<path fill-rule="evenodd" clip-rule="evenodd" d="M66.4945 35.9938H67.3213C67.5328 35.5057 67.7251 34.7531 67.9174 34.1836C68.1289 33.5327 68.3789 32.9632 68.5327 32.292H67.8789C67.6482 32.7801 67.2252 34.9362 66.8598 35.2209C66.7829 34.3463 66.0906 33.1666 66.033 32.292H65.3022C65.3407 32.8208 66.3406 35.3023 66.4945 35.9938Z" fill="#F03033"/>
<path fill-rule="evenodd" clip-rule="evenodd" d="M111.163 33.6549C111.163 35.3028 110.952 36.4421 113.413 36.0352C113.932 35.9539 113.932 36.0556 113.932 35.4046C113.298 35.4249 112.971 35.6487 111.99 35.4046C111.817 34.6518 111.894 34.0415 111.894 33.1667C111.894 32.3936 113.528 32.7191 113.836 32.8818V32.2919C113.259 32.1494 111.759 32.007 111.375 32.6174C111.24 32.8412 111.163 33.3091 111.163 33.6549Z" fill="#F03033"/>
<path fill-rule="evenodd" clip-rule="evenodd" d="M73.6094 32.5779V32.2932H72.9556V35.9943H73.6863C73.6863 32.8422 73.3594 32.7812 74.8785 32.7812V32.1915C74.1478 32.1915 74.2055 32.1508 73.5901 32.5779H73.6094Z" fill="#F03033"/>
<path fill-rule="evenodd" clip-rule="evenodd" d="M78.397 35.9938H79.1469V32.292H78.397V35.9938Z" fill="#F03033"/>
<path fill-rule="evenodd" clip-rule="evenodd" d="M83.6655 35.9938H84.3962V32.292H83.6655V35.9938Z" fill="#F03033"/>
<path fill-rule="evenodd" clip-rule="evenodd" d="M78.397 31.7029H78.8585C79.07 31.7029 79.1277 31.6418 79.1277 31.418V30.9297H78.397V31.7029Z" fill="#F03033"/>
<path fill-rule="evenodd" clip-rule="evenodd" d="M83.6655 31.7029H84.127C84.3385 31.7029 84.3962 31.6418 84.3962 31.418V30.9297H83.6655V31.7029Z" fill="#F03033"/>
</svg>
