<svg width="51" height="50" viewBox="0 0 51 50" fill="none" xmlns="http://www.w3.org/2000/svg">
<path fill-rule="evenodd" clip-rule="evenodd" d="M14.0644 49.8266H0.115125L0.0383749 42.024C0.0191874 39.4231 0 36.7645 0 34.2406C0 32.3141 0.172687 31.7361 0.326187 31.2737C0.537248 30.1178 1.0745 29.2123 1.82281 28.4609C2.57112 27.7288 3.5113 27.1701 4.54742 26.6692C6.86911 25.7445 9.20997 24.839 11.5508 23.9142C11.7811 23.8179 11.9922 23.7408 12.184 23.683L12.6062 23.5674V23.4518C12.6062 22.6427 12.5486 22.1996 12.4335 21.9298C12.3375 21.6987 12.1648 21.5831 11.9346 21.4097C11.4549 21.0629 10.9944 20.5235 10.649 19.9262C10.2845 19.2904 10.0158 18.5969 9.91991 17.9804C9.84316 17.4795 9.82397 17.3446 8.84541 16.9786C8.30816 16.7859 7.84766 16.4006 7.50229 15.9382C7.13773 15.4373 6.90748 14.8401 6.84992 14.2621C6.73479 13.2988 7.0226 12.875 7.29123 12.4319C7.44473 12.2007 7.59823 11.9502 7.67498 11.6034C7.77092 11.0447 7.7901 10.0044 7.80929 9.09888L7.82848 8.02C7.96279 6.63287 8.44248 5.36133 9.1716 4.26319C10.1118 2.83752 11.4741 1.68158 13.0283 0.949482C14.5825 0.217385 16.3093 -0.129398 18.017 0.0439934C19.3218 0.178853 20.5881 0.602699 21.7394 1.37333C23.543 2.5678 24.6367 3.85861 25.2891 5.3806C25.9414 6.88332 26.1141 8.59797 26.0949 10.6594C26.0757 11.5264 26.1141 11.5649 26.3635 11.9117L26.6514 12.3548C27.0543 12.9906 27.131 13.8382 26.9584 14.6281C26.7857 15.4373 26.3252 16.2079 25.7112 16.6703C25.3466 16.94 25.0396 17.0556 24.7902 17.1327C24.4064 17.2675 24.1186 17.3639 23.9267 18.2694C23.7924 18.9051 23.543 19.5024 23.2168 20.0225C22.8906 20.562 22.4493 21.0436 21.9504 21.4675C21.701 21.6601 21.5475 21.795 21.4708 22.0069C21.3748 22.2574 21.3364 22.6812 21.3364 23.4711V23.5867C22.6604 23.9142 23.9076 24.4537 25.1547 24.9931L25.692 25.2243L27.4764 25.9564C28.148 26.2261 28.8387 26.4958 29.4527 26.7655L29.7214 26.8811C30.3162 27.1316 30.6232 27.2665 30.8726 27.2665C31.1412 27.2665 31.4866 27.1123 32.139 26.7848C32.139 26.361 32.1198 26.072 32.043 25.8215C31.9471 25.5518 31.7552 25.3013 31.3907 24.9738C30.9302 24.5693 30.3162 24.0298 29.7597 22.1225C29.587 21.5638 29.376 21.4867 29.0114 21.3519C28.8195 21.2748 28.6277 21.1785 28.455 21.0822C27.8985 20.7354 27.4764 20.1959 27.2654 19.618C27.0351 19.0207 27.0159 18.3464 27.2462 17.7299C27.3037 17.5565 27.3997 17.3831 27.4956 17.229C27.9945 16.3813 27.9945 15.7456 27.9753 14.8015V14.5511C27.9561 13.7997 28.0329 13.1062 28.1864 12.4319C28.3399 11.7576 28.6085 11.1218 28.973 10.4282C29.7981 8.92549 31.1988 7.76955 32.8105 7.09525C34.4607 6.40168 36.341 6.18976 38.0103 6.6136C40.025 7.11451 41.5408 8.23192 42.5769 9.71538C43.709 11.353 44.2462 13.3951 44.2079 15.5336L44.1887 15.8804C44.1695 16.4006 44.1695 16.574 44.5149 17.1712L44.5341 17.1905C44.7643 17.6529 44.8986 18.1152 44.937 18.5776C44.9562 19.04 44.8794 19.5216 44.6492 20.0225C44.3614 20.6198 44.016 20.9858 43.5747 21.217C43.2101 21.4097 42.8072 21.506 42.3659 21.5445C42.3083 22.4308 42.0973 23.2207 41.6943 23.9142C41.3106 24.5885 40.7349 25.1472 39.9674 25.5903V26.8426C40.8693 27.2857 42.0205 27.7096 43.0374 28.0756L44.3997 28.5765C47.6808 29.771 50.2519 30.6958 50.8467 34.7416C50.8851 35.0305 50.8851 38.2864 50.8467 38.5562C50.8084 38.7488 50.7124 38.9222 50.5973 39.0571C50.5014 39.1534 50.3862 39.2305 50.2711 39.269C50.156 39.3075 50.0025 39.3268 49.8682 39.2883C49.6955 39.2497 49.542 39.1727 49.3885 39.0378C49.0815 38.7296 49.0815 38.036 49.1199 37.1498C49.1582 35.6663 49.1966 33.5471 47.8343 32.2177C47.0092 31.4086 44.8219 30.5994 42.7496 29.8481C41.6751 29.4435 40.6198 29.0582 39.7948 28.6921C39.2191 29.482 38.6051 30.0022 37.8568 30.638L37.2812 31.1581C36.4178 31.948 35.9956 32.3333 34.7868 31.0811C34.4223 30.715 34.2112 30.5224 34.0002 30.3875C33.8467 30.3104 33.6932 30.2526 33.4629 30.1756C33.5013 30.5994 33.5588 30.9655 33.6932 31.4086C33.7699 31.659 33.8467 31.9288 33.9042 32.3719C33.9618 32.815 34.0002 33.4122 34.0002 34.3562V48.112H43.3252L43.3061 46.5129C43.2677 44.6441 43.2485 42.7368 43.3252 40.8873C43.3444 40.4442 43.5555 40.1167 43.8049 39.9626C43.9201 39.8855 44.0544 39.847 44.1887 39.8662C44.323 39.8662 44.4573 39.924 44.5916 40.0011C44.8411 40.1745 45.0329 40.5598 45.0329 41.157L45.0137 48.112H49.1582L49.139 47.5918C49.1007 45.9735 49.0239 43.1029 49.2542 42.6598C49.3501 42.4671 49.4844 42.3322 49.6571 42.2552C49.8106 42.1781 49.9833 42.1781 50.1368 42.2167C50.2903 42.2552 50.4246 42.3322 50.5397 42.4478C50.7124 42.602 50.8275 42.8332 50.8659 43.1029C50.9235 43.4882 50.9235 48.112 50.8659 48.4587C50.5973 49.9615 49.5228 49.9615 46.2034 49.9615L38.7395 49.9422C32.4843 49.9037 26.1909 49.8844 19.9741 49.9807H19.8782C19.3409 50 18.5926 50.0193 18.4967 49.2101C18.4008 48.478 18.9572 48.2083 19.6288 48.1312C20.0317 48.0734 20.473 48.112 20.78 48.112L21.0294 48.1312L25.3082 48.1505L25.2891 45.5882C25.2699 43.7194 25.2315 41.8506 25.3082 40.0011C25.3274 39.4039 25.5577 38.98 25.8263 38.7681C25.9606 38.6718 26.1141 38.614 26.2676 38.614C26.4211 38.614 26.5746 38.6718 26.7089 38.7874C26.9584 38.9993 27.1502 39.4424 27.1502 40.1167V48.1312H32.2349L32.2157 45.4726C32.1965 42.679 32.1773 39.8855 32.2925 37.1305V37.1112C32.4268 33.7783 32.5419 30.9655 30.1819 29.193C29.7789 28.8848 29.0306 28.538 28.148 28.1719C27.2462 27.8059 26.1525 27.4013 25.1164 27.016L24.8669 26.9197C23.6965 26.4958 22.5261 26.072 21.394 25.5325C20.8184 26.3224 20.1084 26.9004 19.3985 27.4976C19.0148 27.8059 18.631 28.1334 18.2664 28.4802C17.9019 28.827 17.6524 29.0774 17.2687 29.116C16.9041 29.1545 16.5204 28.9811 15.9064 28.4995L15.254 27.96C14.3714 27.2279 13.412 26.438 12.7405 25.5325L12.3183 25.7252L8.99891 27.0353L6.37023 28.0949C5.41086 28.4802 4.48986 28.8462 3.74155 29.3857C3.01243 29.9251 2.43681 30.638 2.11062 31.7361C1.70768 33.0847 1.82281 40.4249 1.88037 44.9909L1.91874 48.1505H6.60048V42.679L6.58129 42.3322C6.56211 42.024 6.54292 41.6387 6.52373 41.1956C6.50454 40.0011 6.65804 38.691 7.50229 38.691C8.28898 38.6718 8.4041 39.2305 8.42329 39.8084C8.44248 42.5827 8.42329 45.3762 8.42329 48.1505L13.9493 48.1312C14.3522 48.1312 14.7168 48.1698 15.0046 48.3239C15.3308 48.4973 15.5418 48.8055 15.5802 49.345L15.5994 49.5184L15.4651 49.6147C14.9854 50 14.9086 50 14.3714 50H14.1603L14.0644 49.8266ZM33.8275 26.6114V26.7655C33.8275 27.7866 33.9042 27.8444 34.3263 28.2297C34.7677 28.6343 35.209 29.0004 35.6503 29.3664L35.9381 29.6169C36.0916 29.5398 36.2259 29.4435 36.3602 29.3664C36.5329 29.2508 36.6864 29.116 36.8783 28.9233C37.0126 28.7884 37.1661 28.6728 37.3388 28.538C37.6266 28.3068 37.9528 28.0371 38.0295 27.8637C38.1255 27.6325 38.1063 27.0353 38.1063 26.5729C37.051 26.8233 36.2259 27.016 35.0363 26.7655C34.7677 26.7077 34.5182 26.6692 34.2688 26.65L33.8083 26.5922L33.8275 26.6114ZM14.4481 23.1629V24.5115C14.4481 24.8775 14.6592 25.0316 14.9278 25.205C15.0813 25.3206 15.2348 25.4362 15.4075 25.5903C15.8296 26.0142 16.2901 26.3802 16.7506 26.7655L17.0001 26.9775L17.096 26.9004C17.7868 26.3224 19.3793 25.0124 19.4944 24.7812C19.5904 24.55 19.5712 23.7408 19.552 23.2014V23.1629C19.2066 23.1821 18.9188 23.2014 18.5543 23.2977C17.5757 23.5674 16.5971 23.4326 15.6378 23.2977C15.254 23.2399 14.8511 23.2014 14.4865 23.1629H14.4481ZM17.5565 21.6987C18.0746 21.6409 18.6118 21.506 19.1683 21.2363C22.7755 19.5987 22.6796 16.0538 22.6028 12.6052C22.5836 12.0658 22.5836 11.5264 22.5836 11.0255C22.5836 10.8328 22.3534 10.5053 22.0272 10.1585C21.5667 9.65759 20.9527 9.13741 20.5689 8.84843C18.8421 9.77318 17.4989 10.3704 16.1175 10.7365C14.736 11.1025 13.3161 11.2566 11.3973 11.2566L11.3782 12.5474C11.2822 16.4391 11.2055 20.4271 15.9064 21.5253C16.5012 21.6601 17.0385 21.7179 17.5757 21.6601L17.5565 21.6987ZM29.4911 17.4602L29.1649 17.8263C29.069 17.9226 29.0114 17.9996 28.973 18.0767C28.9347 18.1538 28.9155 18.2886 28.9155 18.5198V18.751C28.8963 18.9822 28.8963 19.1363 29.1265 19.2326C29.2417 19.2712 29.3952 19.406 29.4911 19.4638V17.4409V17.4602ZM31.3139 16.3621V20.639C31.3715 22.0069 31.9471 23.1436 32.8489 23.9335C33.7507 24.7234 34.9787 25.1665 36.3218 25.1087C38.6243 24.9546 39.7564 23.8757 40.2936 22.4308C40.8501 20.928 40.8117 19.0015 40.7925 17.2483V16.7088C40.8117 16.0731 40.8117 15.7841 40.1401 15.2061C39.6221 14.763 39.5453 14.6667 39.411 14.2043L39.0081 14.3392C38.8162 14.4162 38.6051 14.5125 38.3173 14.6474C36.9934 15.3024 35.8997 15.7263 34.7677 15.996C33.7123 16.2465 32.6378 16.3428 31.3139 16.3621ZM42.4618 17.5373V19.5987C42.8647 19.3482 43.1526 19.1171 43.1526 18.5198C43.1526 18.096 42.8264 17.807 42.4618 17.5373ZM24.2721 12.5282V15.418L24.5791 15.2639C24.8861 15.1098 25.1164 14.8401 25.2507 14.5125C25.385 14.2043 25.4042 13.8768 25.3082 13.5493C25.1356 13.0291 24.7326 12.7594 24.2721 12.5089V12.5282ZM9.70885 12.5282C9.09485 12.8557 8.61516 13.1639 8.61516 13.9731C8.61516 14.763 9.09485 15.1098 9.70885 15.418V12.5089V12.5282ZM40.7541 13.2217C41.0611 13.6456 41.4449 14.1658 42.1356 14.6281L42.3659 14.7823V14.4933C42.3659 13.7034 42.1932 12.8557 41.8862 12.0658C41.5984 11.3144 41.1571 10.6209 40.639 10.0814C39.8139 9.25301 39.1232 8.7521 38.3749 8.46311C37.6266 8.17413 36.7631 8.0778 35.5927 8.0778C34.8252 8.0778 34.0769 8.25119 33.4053 8.57871C32.6954 8.90622 32.043 9.40713 31.4866 10.0044C30.7958 10.7557 30.3545 11.5264 30.1051 12.3548C29.8749 13.0676 29.7789 13.8382 29.7597 14.7052L29.9324 14.6667C30.5656 14.5125 31.2563 14.5318 31.9279 14.5318H32.6954C33.4821 14.5125 34.3263 14.3392 35.1514 14.0694C36.1683 13.7419 37.1661 13.2603 38.0103 12.7979C38.6051 12.4704 39.0081 12.2392 39.4494 12.2585C39.8907 12.2777 40.2936 12.5474 40.7733 13.2025L40.7925 13.2217H40.7541ZM9.9391 6.92185C9.65129 7.76955 9.55535 8.6943 9.55535 9.85024V10.1392L9.7856 9.9851L10.035 9.79245C10.3037 9.58052 10.4188 9.4842 11.0136 9.46493H11.1095C14.1411 9.40713 15.6761 9.38787 18.5159 8.00074C18.8421 7.84661 19.1299 7.69248 19.3601 7.53836L19.9741 7.13378C20.1468 7.01818 20.3003 6.92185 20.4154 6.84479C20.5881 6.74846 20.7416 6.70993 20.8759 6.74846C21.087 6.80626 21.5859 7.21084 22.1039 7.73102C22.7371 8.34752 23.4279 9.09888 23.6965 9.44566C23.9459 9.77318 24.1762 9.94657 24.4448 10.1392C24.4448 9.00255 24.3872 8.11633 24.1762 7.2879C23.9267 6.34388 23.4471 5.43839 22.5452 4.32098C21.7394 3.2999 20.8184 2.6834 19.8014 2.31735C18.7653 1.9513 17.6141 1.83571 16.3477 1.83571C15.5226 1.83571 14.5633 2.12469 13.6615 2.5678C12.7405 3.03018 11.9154 3.68521 11.3782 4.35951C10.6874 5.265 10.2269 6.07416 9.9391 6.92185Z" fill="#F03033"/>
</svg>
